<svg version="1.1"
     baseProfile="full"
     xmlns="http://www.w3.org/2000/svg"
     xmlns:xlink="http://www.w3.org/1999/xlink"
     xmlns:ev="http://www.w3.org/2001/xml-events"
     width="1517.67" height="1445.40"
     viewBox="0 0 1517.67 1445.40"
     font-family="Arial, Helvetica, sans-serif"
     onload='Init(evt)'
>
<title>grafico</title>
<desc>R SVG Plot with tooltips! (mode=1)</desc>
<script type="text/ecmascript"><![CDATA[
    var SVGDocument = null;
    var SVGRoot = null;
    var SVGViewBox = null;
    var svgns = 'http://www.w3.org/2000/svg';
    var xlinkns = 'http://www.w3.org/1999/xlink';
    var map = null;
    var toolTip = null;
    var TrueCoords = null;
    var tipBox = null;
    var tipText = null;
    var tipTitle = null;
    var tipDesc1 = null;

    var lastElement = null;
    var titleText = '';
    var titleDesc = '';


    function Init(evt)
    {
       SVGDocument = evt.target.ownerDocument;
       SVGRoot = SVGDocument.documentElement;
       TrueCoords = SVGRoot.createSVGPoint();
       map = document.getElementById('canvas')

       toolTip = SVGDocument.getElementById('ToolTip');
       tipBox = SVGDocument.getElementById('tipbox');
       tipText = SVGDocument.getElementById('tipText');
       tipText.setAttributeNS(null, 'font-family', 'Arial, sans-serif' );
       tipTitle = SVGDocument.getElementById('tipTitle');
       tipDesc1 = SVGDocument.getElementById('tipDesc1');
       //window.status = (TrueCoords);

       //create event for object
       SVGRoot.addEventListener('mousemove', ShowTooltip, false);
       SVGRoot.addEventListener('mouseout', HideTooltip, false);
    };


    function GetTrueCoords(evt)
    {
       // find the current zoom level and pan setting, and adjust the reported
       //    mouse position accordingly
       var newScale = SVGRoot.currentScale;
       var translation = SVGRoot.currentTranslate;
       TrueCoords.x = (evt.pageX - translation.x)/newScale;
       TrueCoords.y = (evt.pageY - translation.y)/newScale;
    };


    function HideTooltip( evt )
    {
       toolTip.setAttributeNS(null, 'visibility', 'hidden');
    };


   function ShowTooltip( evt )
   {
      GetTrueCoords( evt );

      var tipScale = 1/SVGRoot.currentScale;
      var textWidth = 0;
      var tspanWidth = 0;
      var boxHeight = 20;

      tipBox.setAttributeNS(null, 'transform', 'scale(' + tipScale + ',' + tipScale + ')' );
      tipText.setAttributeNS(null, 'transform', 'scale(' + tipScale + ',' + tipScale + ')' );

      var titleValue = '';
      var desc1Value = '';
      var targetElement = evt.target;
      if ( lastElement != targetElement )
      {
         var targetTitle = targetElement.getElementsByTagName('tiptitle').item(0);
         if ( targetTitle )
         {
            // if there is a 'tiptitle' element, use its contents for the tooltip tiptitle
            titleValue = targetTitle.firstChild.nodeValue;
         }

         var targetDesc1 = targetElement.getElementsByTagName('desc1').item(0);
         if ( targetDesc1 )
         {
            // if there is a 'desc1' element, use its contents for the tooltip desc1
            desc1Value = targetDesc1.firstChild.nodeValue;

            if ( '' == titleValue )
            {
               // if there is no 'tiptitle' element, use the contents of the 'desc1' element for the tooltip title instead
               titleValue = desc1Value;
               desc1Value = '';
            }
         } else {
             // useful for debugging positioning...
             // desc1Value = 'xPos=' + TrueCoords.x + ' yPos=' + TrueCoords.y;
         }

         // if there is still no 'tiptitle' element, use the contents of the 'id' attribute for the tooltip title
         if ( '' == titleValue)
         {
             titleValue = targetElement.getAttributeNS(null, 'id');
             if (titleValue = 'canvas')
                 titleValue = ''
         }

         // selectively assign the tooltip title and desc the proper values,
         //   and hide those which don't have text values
         //
         var titleDisplay = 'none';
         if ( '' != titleValue )
         {
            tipTitle.firstChild.nodeValue = titleValue;
            titleDisplay = 'inline';
         }
         tipTitle.setAttributeNS(null, 'display', titleDisplay );

         var desc1Display = 'none';
         if ( '' != desc1Value )
         {
            tipDesc1.firstChild.nodeValue = desc1Value;
            desc1Display = 'inline';
         }
         tipDesc1.setAttributeNS(null, 'display', desc1Display );
      }

      // if there are tooltip contents to be displayed, adjust the size and position of the box
      if ( '' != titleValue )
      {
         var xPos = TrueCoords.x;
         var yPos = TrueCoords.y;
         //return rectangle around text as SVGRect object
         var outline = tipText.getBBox();
         tipBox.setAttributeNS(null, 'width', Number(outline.width) + 10);
         tipBox.setAttributeNS(null, 'height', Number(outline.height) + 10);

         // work out which direction tooltip needs to hang in to be visible
         var mapbb = map.getBBox();
         if (xPos + (10 * tipScale) + Number(outline.width) < Number(mapbb.width))
             xPos = xPos + 10 * tipScale;
         else
             xPos = xPos - 10 * tipScale - Number(outline.width);
         if (yPos + (10 * tipScale) + Number(outline.height) < Number(mapbb.height))
             yPos = yPos + 10 * tipScale;
         else
             yPos = yPos - 10 * tipScale - Number(outline.height);

         // update position
         toolTip.setAttributeNS(null, 'transform', 'translate(' + xPos + ',' + yPos + ')');
         toolTip.setAttributeNS(null, 'visibility', 'visible');
       }
    };

   ]]></script>
<rect width="100%" height="100%" style="fill:#FFFFFF" id='canvas'/>
<polyline points="566.33 , 1235.01 817.47 , 1342.82 " stroke-width="2px" stroke="#808080" fill="#000000" stroke-opacity="1.000000" fill-opacity="0.000000"/>
<polygon points="815.26 , 1347.98 829.91 , 1348.16 819.69 , 1337.67 " stroke-width="1px" stroke="#FFFFFF" fill="#808080" stroke-opacity="0.000000" fill-opacity="1.000000" />
<polyline points="567.81 , 1230.44 816.71 , 1287.00 " stroke-width="2px" stroke="#808080" fill="#000000" stroke-opacity="1.000000" fill-opacity="0.000000"/>
<polygon points="815.47 , 1292.47 829.91 , 1290.00 817.96 , 1281.54 " stroke-width="1px" stroke="#FFFFFF" fill="#808080" stroke-opacity="0.000000" fill-opacity="1.000000" />
<polyline points="568.46 , 1225.24 816.38 , 1231.50 " stroke-width="2px" stroke="#808080" fill="#000000" stroke-opacity="1.000000" fill-opacity="0.000000"/>
<polygon points="816.24 , 1237.11 829.91 , 1231.84 816.52 , 1225.90 " stroke-width="1px" stroke="#FFFFFF" fill="#808080" stroke-opacity="0.000000" fill-opacity="1.000000" />
<polyline points="568.07 , 1219.97 816.58 , 1176.04 " stroke-width="2px" stroke="#808080" fill="#000000" stroke-opacity="1.000000" fill-opacity="0.000000"/>
<polygon points="817.56 , 1181.56 829.91 , 1173.69 815.61 , 1170.52 " stroke-width="1px" stroke="#FFFFFF" fill="#808080" stroke-opacity="0.000000" fill-opacity="1.000000" />
<polyline points="566.76 , 1215.21 817.25 , 1120.32 " stroke-width="2px" stroke="#808080" fill="#000000" stroke-opacity="1.000000" fill-opacity="0.000000"/>
<polygon points="819.24 , 1125.57 829.91 , 1115.53 815.27 , 1115.08 " stroke-width="1px" stroke="#FFFFFF" fill="#808080" stroke-opacity="0.000000" fill-opacity="1.000000" />
<polyline points="566.33 , 870.01 817.47 , 977.82 " stroke-width="2px" stroke="#808080" fill="#000000" stroke-opacity="1.000000" fill-opacity="0.000000"/>
<polygon points="815.26 , 982.98 829.91 , 983.16 819.69 , 972.67 " stroke-width="1px" stroke="#FFFFFF" fill="#808080" stroke-opacity="0.000000" fill-opacity="1.000000" />
<polyline points="567.81 , 865.44 816.71 , 922.00 " stroke-width="2px" stroke="#808080" fill="#000000" stroke-opacity="1.000000" fill-opacity="0.000000"/>
<polygon points="815.47 , 927.47 829.91 , 925.00 817.96 , 916.54 " stroke-width="1px" stroke="#FFFFFF" fill="#808080" stroke-opacity="0.000000" fill-opacity="1.000000" />
<polyline points="568.46 , 860.24 816.38 , 866.50 " stroke-width="2px" stroke="#808080" fill="#000000" stroke-opacity="1.000000" fill-opacity="0.000000"/>
<polygon points="816.24 , 872.11 829.91 , 866.84 816.52 , 860.90 " stroke-width="1px" stroke="#FFFFFF" fill="#808080" stroke-opacity="0.000000" fill-opacity="1.000000" />
<polyline points="568.07 , 854.97 816.58 , 811.04 " stroke-width="2px" stroke="#808080" fill="#000000" stroke-opacity="1.000000" fill-opacity="0.000000"/>
<polygon points="817.56 , 816.56 829.91 , 808.69 815.61 , 805.52 " stroke-width="1px" stroke="#FFFFFF" fill="#808080" stroke-opacity="0.000000" fill-opacity="1.000000" />
<polyline points="566.76 , 850.21 817.25 , 755.32 " stroke-width="2px" stroke="#808080" fill="#000000" stroke-opacity="1.000000" fill-opacity="0.000000"/>
<polygon points="819.24 , 760.57 829.91 , 750.53 815.27 , 750.08 " stroke-width="1px" stroke="#FFFFFF" fill="#808080" stroke-opacity="0.000000" fill-opacity="1.000000" />
<polyline points="567.81 , 573.44 816.71 , 630.00 " stroke-width="2px" stroke="#808080" fill="#000000" stroke-opacity="1.000000" fill-opacity="0.000000"/>
<polygon points="815.47 , 635.47 829.91 , 633.00 817.96 , 624.54 " stroke-width="1px" stroke="#FFFFFF" fill="#808080" stroke-opacity="0.000000" fill-opacity="1.000000" />
<polyline points="568.46 , 568.24 816.38 , 574.50 " stroke-width="2px" stroke="#808080" fill="#000000" stroke-opacity="1.000000" fill-opacity="0.000000"/>
<polygon points="816.24 , 580.11 829.91 , 574.84 816.52 , 568.90 " stroke-width="1px" stroke="#FFFFFF" fill="#808080" stroke-opacity="0.000000" fill-opacity="1.000000" />
<polyline points="568.07 , 562.97 816.58 , 519.04 " stroke-width="2px" stroke="#808080" fill="#000000" stroke-opacity="1.000000" fill-opacity="0.000000"/>
<polygon points="817.56 , 524.56 829.91 , 516.69 815.61 , 513.52 " stroke-width="1px" stroke="#FFFFFF" fill="#808080" stroke-opacity="0.000000" fill-opacity="1.000000" />
<polyline points="565.39 , 251.47 830.46 , 392.03 " stroke-width="2px" stroke="#808080" fill="#000000" stroke-opacity="1.000000" fill-opacity="0.000000"/>
<polygon points="827.84 , 396.99 842.42 , 398.38 833.09 , 387.08 " stroke-width="1px" stroke="#FFFFFF" fill="#808080" stroke-opacity="0.000000" fill-opacity="1.000000" />
<polyline points="567.15 , 247.32 817.05 , 329.36 " stroke-width="2px" stroke="#808080" fill="#000000" stroke-opacity="1.000000" fill-opacity="0.000000"/>
<polygon points="815.30 , 334.69 829.91 , 333.58 818.80 , 324.03 " stroke-width="1px" stroke="#FFFFFF" fill="#808080" stroke-opacity="0.000000" fill-opacity="1.000000" />
<polyline points="568.26 , 242.39 816.48 , 273.73 " stroke-width="2px" stroke="#808080" fill="#000000" stroke-opacity="1.000000" fill-opacity="0.000000"/>
<polygon points="815.78 , 279.29 829.91 , 275.42 817.18 , 268.17 " stroke-width="1px" stroke="#FFFFFF" fill="#808080" stroke-opacity="0.000000" fill-opacity="1.000000" />
<polyline points="568.40 , 237.08 816.41 , 218.29 " stroke-width="2px" stroke="#808080" fill="#000000" stroke-opacity="1.000000" fill-opacity="0.000000"/>
<polygon points="816.84 , 223.88 829.91 , 217.27 815.99 , 212.70 " stroke-width="1px" stroke="#FFFFFF" fill="#808080" stroke-opacity="0.000000" fill-opacity="1.000000" />
<polyline points="567.51 , 232.00 816.87 , 162.73 " stroke-width="2px" stroke="#808080" fill="#000000" stroke-opacity="1.000000" fill-opacity="0.000000"/>
<polygon points="818.37 , 168.13 829.91 , 159.11 815.37 , 157.33 " stroke-width="1px" stroke="#FFFFFF" fill="#808080" stroke-opacity="0.000000" fill-opacity="1.000000" />
<polyline points="565.87 , 227.63 823.80 , 103.88 " stroke-width="2px" stroke="#808080" fill="#000000" stroke-opacity="1.000000" fill-opacity="0.000000"/>
<polygon points="826.23 , 108.93 836.01 , 98.02 821.38 , 98.82 " stroke-width="1px" stroke="#FFFFFF" fill="#808080" stroke-opacity="0.000000" fill-opacity="1.000000" />
<polyline points="195.59 , 883.39 513.54 , 1196.52 " stroke-width="2px" stroke="#808080" fill="#000000" stroke-opacity="1.000000" fill-opacity="0.000000"/>
<polygon points="509.60 , 1200.51 523.18 , 1206.02 517.47 , 1192.52 " stroke-width="1px" stroke="#FFFFFF" fill="#808080" stroke-opacity="0.000000" fill-opacity="1.000000" />
<polyline points="193.05 , 810.39 516.26 , 1194.00 " stroke-width="2px" stroke="#808080" fill="#000000" stroke-opacity="1.000000" fill-opacity="0.000000"/>
<polygon points="511.97 , 1197.61 524.98 , 1204.35 520.55 , 1190.39 " stroke-width="1px" stroke="#FFFFFF" fill="#808080" stroke-opacity="0.000000" fill-opacity="1.000000" />
<polyline points="191.25 , 737.39 518.66 , 1192.13 " stroke-width="2px" stroke="#808080" fill="#000000" stroke-opacity="1.000000" fill-opacity="0.000000"/>
<polygon points="514.11 , 1195.40 526.57 , 1203.11 523.21 , 1188.85 " stroke-width="1px" stroke="#FFFFFF" fill="#808080" stroke-opacity="0.000000" fill-opacity="1.000000" />
<polyline points="189.91 , 664.39 520.75 , 1190.72 " stroke-width="2px" stroke="#808080" fill="#000000" stroke-opacity="1.000000" fill-opacity="0.000000"/>
<polygon points="516.00 , 1193.71 527.95 , 1202.18 525.49 , 1187.74 " stroke-width="1px" stroke="#FFFFFF" fill="#808080" stroke-opacity="0.000000" fill-opacity="1.000000" />
<polyline points="188.87 , 591.39 522.55 , 1189.66 " stroke-width="2px" stroke="#808080" fill="#000000" stroke-opacity="1.000000" fill-opacity="0.000000"/>
<polygon points="517.65 , 1192.39 529.14 , 1201.48 527.45 , 1186.92 " stroke-width="1px" stroke="#FFFFFF" fill="#808080" stroke-opacity="0.000000" fill-opacity="1.000000" />
<polyline points="215.94 , 867.81 502.05 , 860.58 " stroke-width="2px" stroke="#808080" fill="#000000" stroke-opacity="1.000000" fill-opacity="0.000000"/>
<polygon points="502.20 , 866.19 515.59 , 860.24 501.91 , 854.98 " stroke-width="1px" stroke="#FFFFFF" fill="#808080" stroke-opacity="0.000000" fill-opacity="1.000000" />
<polyline points="215.94 , 801.93 502.65 , 852.62 " stroke-width="2px" stroke="#808080" fill="#000000" stroke-opacity="1.000000" fill-opacity="0.000000"/>
<polygon points="501.68 , 858.14 515.98 , 854.97 503.63 , 847.09 " stroke-width="1px" stroke="#FFFFFF" fill="#808080" stroke-opacity="0.000000" fill-opacity="1.000000" />
<polyline points="215.94 , 736.06 504.63 , 845.41 " stroke-width="2px" stroke="#808080" fill="#000000" stroke-opacity="1.000000" fill-opacity="0.000000"/>
<polygon points="502.65 , 850.66 517.29 , 850.21 506.62 , 840.17 " stroke-width="1px" stroke="#FFFFFF" fill="#808080" stroke-opacity="0.000000" fill-opacity="1.000000" />
<polyline points="205.97 , 664.39 507.45 , 839.49 " stroke-width="2px" stroke="#808080" fill="#000000" stroke-opacity="1.000000" fill-opacity="0.000000"/>
<polygon points="504.63 , 844.34 519.16 , 846.29 510.27 , 834.64 " stroke-width="1px" stroke="#FFFFFF" fill="#808080" stroke-opacity="0.000000" fill-opacity="1.000000" />
<polyline points="199.44 , 591.39 510.54 , 834.93 " stroke-width="2px" stroke="#808080" fill="#000000" stroke-opacity="1.000000" fill-opacity="0.000000"/>
<polygon points="507.08 , 839.34 521.20 , 843.27 514.00 , 830.51 " stroke-width="1px" stroke="#FFFFFF" fill="#808080" stroke-opacity="0.000000" fill-opacity="1.000000" />
<polyline points="198.31 , 854.01 511.31 , 593.17 " stroke-width="2px" stroke="#808080" fill="#000000" stroke-opacity="1.000000" fill-opacity="0.000000"/>
<polygon points="514.90 , 597.48 521.71 , 584.51 507.72 , 588.86 " stroke-width="1px" stroke="#FFFFFF" fill="#808080" stroke-opacity="0.000000" fill-opacity="1.000000" />
<polyline points="203.95 , 781.01 508.22 , 588.92 " stroke-width="2px" stroke="#808080" fill="#000000" stroke-opacity="1.000000" fill-opacity="0.000000"/>
<polygon points="511.21 , 593.66 519.66 , 581.69 505.22 , 584.18 " stroke-width="1px" stroke="#FFFFFF" fill="#808080" stroke-opacity="0.000000" fill-opacity="1.000000" />
<polyline points="214.90 , 708.01 505.28 , 583.35 " stroke-width="2px" stroke="#808080" fill="#000000" stroke-opacity="1.000000" fill-opacity="0.000000"/>
<polygon points="507.50 , 588.50 517.72 , 578.01 503.07 , 578.20 " stroke-width="1px" stroke="#FFFFFF" fill="#808080" stroke-opacity="0.000000" fill-opacity="1.000000" />
<polyline points="215.94 , 641.69 503.04 , 576.44 " stroke-width="2px" stroke="#808080" fill="#000000" stroke-opacity="1.000000" fill-opacity="0.000000"/>
<polygon points="504.28 , 581.90 516.24 , 573.44 501.79 , 570.97 " stroke-width="1px" stroke="#FFFFFF" fill="#808080" stroke-opacity="0.000000" fill-opacity="1.000000" />
<polyline points="215.94 , 575.81 502.05 , 568.58 " stroke-width="2px" stroke="#808080" fill="#000000" stroke-opacity="1.000000" fill-opacity="0.000000"/>
<polygon points="502.20 , 574.19 515.59 , 568.24 501.91 , 562.98 " stroke-width="1px" stroke="#FFFFFF" fill="#808080" stroke-opacity="0.000000" fill-opacity="1.000000" />
<polyline points="189.11 , 854.01 522.12 , 273.75 " stroke-width="2px" stroke="#808080" fill="#000000" stroke-opacity="1.000000" fill-opacity="0.000000"/>
<polygon points="526.99 , 276.54 528.86 , 262.01 517.26 , 270.96 " stroke-width="1px" stroke="#FFFFFF" fill="#808080" stroke-opacity="0.000000" fill-opacity="1.000000" />
<polyline points="190.21 , 781.01 520.25 , 272.61 " stroke-width="2px" stroke="#808080" fill="#000000" stroke-opacity="1.000000" fill-opacity="0.000000"/>
<polygon points="524.96 , 275.66 527.62 , 261.26 515.55 , 269.56 " stroke-width="1px" stroke="#FFFFFF" fill="#808080" stroke-opacity="0.000000" fill-opacity="1.000000" />
<polyline points="191.65 , 708.01 518.09 , 271.11 " stroke-width="2px" stroke="#808080" fill="#000000" stroke-opacity="1.000000" fill-opacity="0.000000"/>
<polygon points="522.58 , 274.46 526.20 , 260.26 513.60 , 267.75 " stroke-width="1px" stroke="#FFFFFF" fill="#808080" stroke-opacity="0.000000" fill-opacity="1.000000" />
<polyline points="193.60 , 635.01 515.61 , 269.09 " stroke-width="2px" stroke="#808080" fill="#000000" stroke-opacity="1.000000" fill-opacity="0.000000"/>
<polygon points="519.82 , 272.80 524.55 , 258.93 511.40 , 265.39 " stroke-width="1px" stroke="#FFFFFF" fill="#808080" stroke-opacity="0.000000" fill-opacity="1.000000" />
<polyline points="196.40 , 562.01 512.81 , 266.37 " stroke-width="2px" stroke="#808080" fill="#000000" stroke-opacity="1.000000" fill-opacity="0.000000"/>
<polygon points="516.64 , 270.47 522.70 , 257.13 508.98 , 262.28 " stroke-width="1px" stroke="#FFFFFF" fill="#808080" stroke-opacity="0.000000" fill-opacity="1.000000" />
<polygon points="829.91 , 1412.02 976.84 , 1412.02 976.84 , 1347.38 829.91 , 1347.38 " stroke-width="1px" stroke="#FFFFFF" fill="#66C2A5" stroke-opacity="0.000000" fill-opacity="0.393701" />
<polyline points="829.91 , 1412.02 976.84 , 1412.02 976.84 , 1347.38 829.91 , 1347.38 829.91 , 1412.02 " stroke-width="1px" stroke="#FFFFFF" fill="#000000" stroke-opacity="0.000000" fill-opacity="0.000000"/>
<rect x="829.91" y="1347.38" width="146.92" height="64.65" stroke-width="2px" stroke="#000000" fill="#FFFFFF" stroke-opacity="1.000000" fill-opacity="0.000000" />
<polygon points="829.91 , 1339.02 976.84 , 1339.02 976.84 , 1274.38 829.91 , 1274.38 " stroke-width="1px" stroke="#FFFFFF" fill="#66C2A5" stroke-opacity="0.000000" fill-opacity="0.393701" />
<polyline points="829.91 , 1339.02 976.84 , 1339.02 976.84 , 1274.38 829.91 , 1274.38 829.91 , 1339.02 " stroke-width="1px" stroke="#FFFFFF" fill="#000000" stroke-opacity="0.000000" fill-opacity="0.000000"/>
<rect x="829.91" y="1274.38" width="146.92" height="64.65" stroke-width="2px" stroke="#000000" fill="#FFFFFF" stroke-opacity="1.000000" fill-opacity="0.000000" />
<polygon points="829.91 , 1266.02 976.84 , 1266.02 976.84 , 1201.38 829.91 , 1201.38 " stroke-width="1px" stroke="#FFFFFF" fill="#66C2A5" stroke-opacity="0.000000" fill-opacity="0.393701" />
<polyline points="829.91 , 1266.02 976.84 , 1266.02 976.84 , 1201.38 829.91 , 1201.38 829.91 , 1266.02 " stroke-width="1px" stroke="#FFFFFF" fill="#000000" stroke-opacity="0.000000" fill-opacity="0.000000"/>
<rect x="829.91" y="1201.38" width="146.92" height="64.65" stroke-width="2px" stroke="#000000" fill="#FFFFFF" stroke-opacity="1.000000" fill-opacity="0.000000" />
<polygon points="829.91 , 1193.02 976.84 , 1193.02 976.84 , 1128.38 829.91 , 1128.38 " stroke-width="1px" stroke="#FFFFFF" fill="#66C2A5" stroke-opacity="0.000000" fill-opacity="0.393701" />
<polyline points="829.91 , 1193.02 976.84 , 1193.02 976.84 , 1128.38 829.91 , 1128.38 829.91 , 1193.02 " stroke-width="1px" stroke="#FFFFFF" fill="#000000" stroke-opacity="0.000000" fill-opacity="0.000000"/>
<rect x="829.91" y="1128.38" width="146.92" height="64.65" stroke-width="2px" stroke="#000000" fill="#FFFFFF" stroke-opacity="1.000000" fill-opacity="0.000000" />
<polygon points="829.91 , 1120.02 976.84 , 1120.02 976.84 , 1055.38 829.91 , 1055.38 " stroke-width="1px" stroke="#FFFFFF" fill="#66C2A5" stroke-opacity="0.000000" fill-opacity="0.393701" />
<polyline points="829.91 , 1120.02 976.84 , 1120.02 976.84 , 1055.38 829.91 , 1055.38 829.91 , 1120.02 " stroke-width="1px" stroke="#FFFFFF" fill="#000000" stroke-opacity="0.000000" fill-opacity="0.000000"/>
<rect x="829.91" y="1055.38" width="146.92" height="64.65" stroke-width="2px" stroke="#000000" fill="#FFFFFF" stroke-opacity="1.000000" fill-opacity="0.000000" />
<polygon points="829.91 , 1047.02 976.84 , 1047.02 976.84 , 982.38 829.91 , 982.38 " stroke-width="1px" stroke="#FFFFFF" fill="#FC8D62" stroke-opacity="0.000000" fill-opacity="0.393701" />
<polyline points="829.91 , 1047.02 976.84 , 1047.02 976.84 , 982.38 829.91 , 982.38 829.91 , 1047.02 " stroke-width="1px" stroke="#FFFFFF" fill="#000000" stroke-opacity="0.000000" fill-opacity="0.000000"/>
<rect x="829.91" y="982.38" width="146.92" height="64.65" stroke-width="2px" stroke="#000000" fill="#FFFFFF" stroke-opacity="1.000000" fill-opacity="0.000000" />
<polygon points="829.91 , 974.02 976.84 , 974.02 976.84 , 909.38 829.91 , 909.38 " stroke-width="1px" stroke="#FFFFFF" fill="#FC8D62" stroke-opacity="0.000000" fill-opacity="0.393701" />
<polyline points="829.91 , 974.02 976.84 , 974.02 976.84 , 909.38 829.91 , 909.38 829.91 , 974.02 " stroke-width="1px" stroke="#FFFFFF" fill="#000000" stroke-opacity="0.000000" fill-opacity="0.000000"/>
<rect x="829.91" y="909.38" width="146.92" height="64.65" stroke-width="2px" stroke="#000000" fill="#FFFFFF" stroke-opacity="1.000000" fill-opacity="0.000000" />
<polygon points="829.91 , 901.02 976.84 , 901.02 976.84 , 836.38 829.91 , 836.38 " stroke-width="1px" stroke="#FFFFFF" fill="#FC8D62" stroke-opacity="0.000000" fill-opacity="0.393701" />
<polyline points="829.91 , 901.02 976.84 , 901.02 976.84 , 836.38 829.91 , 836.38 829.91 , 901.02 " stroke-width="1px" stroke="#FFFFFF" fill="#000000" stroke-opacity="0.000000" fill-opacity="0.000000"/>
<rect x="829.91" y="836.38" width="146.92" height="64.65" stroke-width="2px" stroke="#000000" fill="#FFFFFF" stroke-opacity="1.000000" fill-opacity="0.000000" />
<polygon points="829.91 , 828.02 976.84 , 828.02 976.84 , 763.38 829.91 , 763.38 " stroke-width="1px" stroke="#FFFFFF" fill="#FC8D62" stroke-opacity="0.000000" fill-opacity="0.393701" />
<polyline points="829.91 , 828.02 976.84 , 828.02 976.84 , 763.38 829.91 , 763.38 829.91 , 828.02 " stroke-width="1px" stroke="#FFFFFF" fill="#000000" stroke-opacity="0.000000" fill-opacity="0.000000"/>
<rect x="829.91" y="763.38" width="146.92" height="64.65" stroke-width="2px" stroke="#000000" fill="#FFFFFF" stroke-opacity="1.000000" fill-opacity="0.000000" />
<polygon points="829.91 , 755.02 976.84 , 755.02 976.84 , 690.38 829.91 , 690.38 " stroke-width="1px" stroke="#FFFFFF" fill="#FC8D62" stroke-opacity="0.000000" fill-opacity="0.393701" />
<polyline points="829.91 , 755.02 976.84 , 755.02 976.84 , 690.38 829.91 , 690.38 829.91 , 755.02 " stroke-width="1px" stroke="#FFFFFF" fill="#000000" stroke-opacity="0.000000" fill-opacity="0.000000"/>
<rect x="829.91" y="690.38" width="146.92" height="64.65" stroke-width="2px" stroke="#000000" fill="#FFFFFF" stroke-opacity="1.000000" fill-opacity="0.000000" />
<polygon points="829.91 , 682.02 976.84 , 682.02 976.84 , 617.38 829.91 , 617.38 " stroke-width="1px" stroke="#FFFFFF" fill="#8DA0CB" stroke-opacity="0.000000" fill-opacity="0.393701" />
<polyline points="829.91 , 682.02 976.84 , 682.02 976.84 , 617.38 829.91 , 617.38 829.91 , 682.02 " stroke-width="1px" stroke="#FFFFFF" fill="#000000" stroke-opacity="0.000000" fill-opacity="0.000000"/>
<rect x="829.91" y="617.38" width="146.92" height="64.65" stroke-width="2px" stroke="#000000" fill="#FFFFFF" stroke-opacity="1.000000" fill-opacity="0.000000" />
<polygon points="829.91 , 609.02 976.84 , 609.02 976.84 , 544.38 829.91 , 544.38 " stroke-width="1px" stroke="#FFFFFF" fill="#8DA0CB" stroke-opacity="0.000000" fill-opacity="0.393701" />
<polyline points="829.91 , 609.02 976.84 , 609.02 976.84 , 544.38 829.91 , 544.38 829.91 , 609.02 " stroke-width="1px" stroke="#FFFFFF" fill="#000000" stroke-opacity="0.000000" fill-opacity="0.000000"/>
<rect x="829.91" y="544.38" width="146.92" height="64.65" stroke-width="2px" stroke="#000000" fill="#FFFFFF" stroke-opacity="1.000000" fill-opacity="0.000000" />
<polygon points="829.91 , 536.02 976.84 , 536.02 976.84 , 471.38 829.91 , 471.38 " stroke-width="1px" stroke="#FFFFFF" fill="#8DA0CB" stroke-opacity="0.000000" fill-opacity="0.393701" />
<polyline points="829.91 , 536.02 976.84 , 536.02 976.84 , 471.38 829.91 , 471.38 829.91 , 536.02 " stroke-width="1px" stroke="#FFFFFF" fill="#000000" stroke-opacity="0.000000" fill-opacity="0.000000"/>
<rect x="829.91" y="471.38" width="146.92" height="64.65" stroke-width="2px" stroke="#000000" fill="#FFFFFF" stroke-opacity="1.000000" fill-opacity="0.000000" />
<polygon points="829.91 , 463.02 976.84 , 463.02 976.84 , 398.38 829.91 , 398.38 " stroke-width="1px" stroke="#FFFFFF" fill="#E78AC3" stroke-opacity="0.000000" fill-opacity="0.393701" />
<polyline points="829.91 , 463.02 976.84 , 463.02 976.84 , 398.38 829.91 , 398.38 829.91 , 463.02 " stroke-width="1px" stroke="#FFFFFF" fill="#000000" stroke-opacity="0.000000" fill-opacity="0.000000"/>
<rect x="829.91" y="398.38" width="146.92" height="64.65" stroke-width="2px" stroke="#000000" fill="#FFFFFF" stroke-opacity="1.000000" fill-opacity="0.000000" />
<polygon points="829.91 , 390.02 976.84 , 390.02 976.84 , 325.38 829.91 , 325.38 " stroke-width="1px" stroke="#FFFFFF" fill="#E78AC3" stroke-opacity="0.000000" fill-opacity="0.393701" />
<polyline points="829.91 , 390.02 976.84 , 390.02 976.84 , 325.38 829.91 , 325.38 829.91 , 390.02 " stroke-width="1px" stroke="#FFFFFF" fill="#000000" stroke-opacity="0.000000" fill-opacity="0.000000"/>
<rect x="829.91" y="325.38" width="146.92" height="64.65" stroke-width="2px" stroke="#000000" fill="#FFFFFF" stroke-opacity="1.000000" fill-opacity="0.000000" />
<polygon points="829.91 , 317.02 976.84 , 317.02 976.84 , 252.38 829.91 , 252.38 " stroke-width="1px" stroke="#FFFFFF" fill="#E78AC3" stroke-opacity="0.000000" fill-opacity="0.393701" />
<polyline points="829.91 , 317.02 976.84 , 317.02 976.84 , 252.38 829.91 , 252.38 829.91 , 317.02 " stroke-width="1px" stroke="#FFFFFF" fill="#000000" stroke-opacity="0.000000" fill-opacity="0.000000"/>
<rect x="829.91" y="252.38" width="146.92" height="64.65" stroke-width="2px" stroke="#000000" fill="#FFFFFF" stroke-opacity="1.000000" fill-opacity="0.000000" />
<polygon points="829.91 , 244.02 976.84 , 244.02 976.84 , 179.38 829.91 , 179.38 " stroke-width="1px" stroke="#FFFFFF" fill="#E78AC3" stroke-opacity="0.000000" fill-opacity="0.393701" />
<polyline points="829.91 , 244.02 976.84 , 244.02 976.84 , 179.38 829.91 , 179.38 829.91 , 244.02 " stroke-width="1px" stroke="#FFFFFF" fill="#000000" stroke-opacity="0.000000" fill-opacity="0.000000"/>
<rect x="829.91" y="179.38" width="146.92" height="64.65" stroke-width="2px" stroke="#000000" fill="#FFFFFF" stroke-opacity="1.000000" fill-opacity="0.000000" />
<polygon points="829.91 , 171.02 976.84 , 171.02 976.84 , 106.38 829.91 , 106.38 " stroke-width="1px" stroke="#FFFFFF" fill="#E78AC3" stroke-opacity="0.000000" fill-opacity="0.393701" />
<polyline points="829.91 , 171.02 976.84 , 171.02 976.84 , 106.38 829.91 , 106.38 829.91 , 171.02 " stroke-width="1px" stroke="#FFFFFF" fill="#000000" stroke-opacity="0.000000" fill-opacity="0.000000"/>
<rect x="829.91" y="106.38" width="146.92" height="64.65" stroke-width="2px" stroke="#000000" fill="#FFFFFF" stroke-opacity="1.000000" fill-opacity="0.000000" />
<polygon points="829.91 , 98.02 976.84 , 98.02 976.84 , 33.38 829.91 , 33.38 " stroke-width="1px" stroke="#FFFFFF" fill="#E78AC3" stroke-opacity="0.000000" fill-opacity="0.393701" />
<polyline points="829.91 , 98.02 976.84 , 98.02 976.84 , 33.38 829.91 , 33.38 829.91 , 98.02 " stroke-width="1px" stroke="#FFFFFF" fill="#000000" stroke-opacity="0.000000" fill-opacity="0.000000"/>
<rect x="829.91" y="33.38" width="146.92" height="64.65" stroke-width="2px" stroke="#000000" fill="#FFFFFF" stroke-opacity="1.000000" fill-opacity="0.000000" />
<polygon points="145.41 , 883.39 215.94 , 883.39 215.94 , 854.01 145.41 , 854.01 " stroke-width="1px" stroke="#FFFFFF" fill="#8DD3C7" stroke-opacity="0.000000" fill-opacity="0.393701" />
<polyline points="145.41 , 883.39 215.94 , 883.39 215.94 , 854.01 145.41 , 854.01 145.41 , 883.39 " stroke-width="1px" stroke="#FFFFFF" fill="#000000" stroke-opacity="0.000000" fill-opacity="0.000000"/>
<rect x="145.41" y="854.01" width="70.52" height="29.38" stroke-width="2px" stroke="#000000" fill="#FFFFFF" stroke-opacity="1.000000" fill-opacity="0.000000" />
<polygon points="145.41 , 810.39 215.94 , 810.39 215.94 , 781.01 145.41 , 781.01 " stroke-width="1px" stroke="#FFFFFF" fill="#FFFFB3" stroke-opacity="0.000000" fill-opacity="0.393701" />
<polyline points="145.41 , 810.39 215.94 , 810.39 215.94 , 781.01 145.41 , 781.01 145.41 , 810.39 " stroke-width="1px" stroke="#FFFFFF" fill="#000000" stroke-opacity="0.000000" fill-opacity="0.000000"/>
<rect x="145.41" y="781.01" width="70.52" height="29.38" stroke-width="2px" stroke="#000000" fill="#FFFFFF" stroke-opacity="1.000000" fill-opacity="0.000000" />
<polygon points="145.41 , 737.39 215.94 , 737.39 215.94 , 708.01 145.41 , 708.01 " stroke-width="1px" stroke="#FFFFFF" fill="#BEBADA" stroke-opacity="0.000000" fill-opacity="0.393701" />
<polyline points="145.41 , 737.39 215.94 , 737.39 215.94 , 708.01 145.41 , 708.01 145.41 , 737.39 " stroke-width="1px" stroke="#FFFFFF" fill="#000000" stroke-opacity="0.000000" fill-opacity="0.000000"/>
<rect x="145.41" y="708.01" width="70.52" height="29.38" stroke-width="2px" stroke="#000000" fill="#FFFFFF" stroke-opacity="1.000000" fill-opacity="0.000000" />
<polygon points="145.41 , 664.39 215.94 , 664.39 215.94 , 635.01 145.41 , 635.01 " stroke-width="1px" stroke="#FFFFFF" fill="#FB8072" stroke-opacity="0.000000" fill-opacity="0.393701" />
<polyline points="145.41 , 664.39 215.94 , 664.39 215.94 , 635.01 145.41 , 635.01 145.41 , 664.39 " stroke-width="1px" stroke="#FFFFFF" fill="#000000" stroke-opacity="0.000000" fill-opacity="0.000000"/>
<rect x="145.41" y="635.01" width="70.52" height="29.38" stroke-width="2px" stroke="#000000" fill="#FFFFFF" stroke-opacity="1.000000" fill-opacity="0.000000" />
<polygon points="145.41 , 591.39 215.94 , 591.39 215.94 , 562.01 145.41 , 562.01 " stroke-width="1px" stroke="#FFFFFF" fill="#80B1D3" stroke-opacity="0.000000" fill-opacity="0.393701" />
<polyline points="145.41 , 591.39 215.94 , 591.39 215.94 , 562.01 145.41 , 562.01 145.41 , 591.39 " stroke-width="1px" stroke="#FFFFFF" fill="#000000" stroke-opacity="0.000000" fill-opacity="0.000000"/>
<rect x="145.41" y="562.01" width="70.52" height="29.38" stroke-width="2px" stroke="#000000" fill="#FFFFFF" stroke-opacity="1.000000" fill-opacity="0.000000" />
<polygon points="542.02 , 1198.13 543.70 , 1198.18 545.37 , 1198.34 547.03 , 1198.61 548.67 , 1198.98 550.28 , 1199.45 551.85 , 1200.02 553.39 , 1200.70 554.88 , 1201.46 556.32 , 1202.33 557.71 , 1203.28 559.02 , 1204.32 560.28 , 1205.43 561.45 , 1206.63 562.55 , 1207.90 563.57 , 1209.23 564.50 , 1210.63 565.34 , 1212.09 566.08 , 1213.59 566.73 , 1215.14 567.28 , 1216.72 567.73 , 1218.34 568.07 , 1219.98 568.31 , 1221.64 568.44 , 1223.32 568.47 , 1224.99 568.39 , 1226.67 568.20 , 1228.34 567.91 , 1229.99 567.52 , 1231.62 567.02 , 1233.22 566.42 , 1234.79 565.72 , 1236.32 564.93 , 1237.80 564.04 , 1239.22 563.07 , 1240.59 562.01 , 1241.89 560.87 , 1243.13 559.66 , 1244.28 558.37 , 1245.36 557.02 , 1246.36 555.61 , 1247.27 554.14 , 1248.08 552.63 , 1248.80 551.07 , 1249.43 549.48 , 1249.95 547.85 , 1250.37 546.20 , 1250.69 544.54 , 1250.90 542.86 , 1251.01 541.19 , 1251.01 539.51 , 1250.90 537.85 , 1250.69 536.20 , 1250.37 534.57 , 1249.95 532.98 , 1249.43 531.42 , 1248.80 529.91 , 1248.08 528.44 , 1247.27 527.03 , 1246.36 525.68 , 1245.36 524.39 , 1244.28 523.18 , 1243.13 522.04 , 1241.89 520.98 , 1240.59 520.01 , 1239.22 519.12 , 1237.80 518.33 , 1236.32 517.63 , 1234.79 517.03 , 1233.22 516.53 , 1231.62 516.14 , 1229.99 515.85 , 1228.34 515.66 , 1226.67 515.58 , 1224.99 515.61 , 1223.32 515.74 , 1221.64 515.98 , 1219.98 516.32 , 1218.34 516.77 , 1216.72 517.32 , 1215.14 517.97 , 1213.59 518.71 , 1212.09 519.55 , 1210.63 520.48 , 1209.23 521.50 , 1207.90 522.60 , 1206.63 523.77 , 1205.43 525.03 , 1204.32 526.34 , 1203.28 527.73 , 1202.33 529.17 , 1201.46 530.66 , 1200.70 532.20 , 1200.02 533.77 , 1199.45 535.38 , 1198.98 537.02 , 1198.61 538.68 , 1198.34 540.35 , 1198.18 542.02 , 1198.13 " stroke-width="2px" stroke="#FFFFFF" fill="#66C2A5" stroke-opacity="0.000000" fill-opacity="0.393701" />
<polyline points="542.02 , 1198.13 543.70 , 1198.18 545.37 , 1198.34 547.03 , 1198.61 548.67 , 1198.98 550.28 , 1199.45 551.85 , 1200.02 553.39 , 1200.70 554.88 , 1201.46 556.32 , 1202.33 557.71 , 1203.28 559.02 , 1204.32 560.28 , 1205.43 561.45 , 1206.63 562.55 , 1207.90 563.57 , 1209.23 564.50 , 1210.63 565.34 , 1212.09 566.08 , 1213.59 566.73 , 1215.14 567.28 , 1216.72 567.73 , 1218.34 568.07 , 1219.98 568.31 , 1221.64 568.44 , 1223.32 568.47 , 1224.99 568.39 , 1226.67 568.20 , 1228.34 567.91 , 1229.99 567.52 , 1231.62 567.02 , 1233.22 566.42 , 1234.79 565.72 , 1236.32 564.93 , 1237.80 564.04 , 1239.22 563.07 , 1240.59 562.01 , 1241.89 560.87 , 1243.13 559.66 , 1244.28 558.37 , 1245.36 557.02 , 1246.36 555.61 , 1247.27 554.14 , 1248.08 552.63 , 1248.80 551.07 , 1249.43 549.48 , 1249.95 547.85 , 1250.37 546.20 , 1250.69 544.54 , 1250.90 542.86 , 1251.01 541.19 , 1251.01 539.51 , 1250.90 537.85 , 1250.69 536.20 , 1250.37 534.57 , 1249.95 532.98 , 1249.43 531.42 , 1248.80 529.91 , 1248.08 528.44 , 1247.27 527.03 , 1246.36 525.68 , 1245.36 524.39 , 1244.28 523.18 , 1243.13 522.04 , 1241.89 520.98 , 1240.59 520.01 , 1239.22 519.12 , 1237.80 518.33 , 1236.32 517.63 , 1234.79 517.03 , 1233.22 516.53 , 1231.62 516.14 , 1229.99 515.85 , 1228.34 515.66 , 1226.67 515.58 , 1224.99 515.61 , 1223.32 515.74 , 1221.64 515.98 , 1219.98 516.32 , 1218.34 516.77 , 1216.72 517.32 , 1215.14 517.97 , 1213.59 518.71 , 1212.09 519.55 , 1210.63 520.48 , 1209.23 521.50 , 1207.90 522.60 , 1206.63 523.77 , 1205.43 525.03 , 1204.32 526.34 , 1203.28 527.73 , 1202.33 529.17 , 1201.46 530.66 , 1200.70 532.20 , 1200.02 533.77 , 1199.45 535.38 , 1198.98 537.02 , 1198.61 538.68 , 1198.34 540.35 , 1198.18 542.02 , 1198.13 542.02 , 1198.13 " stroke-width="2px" stroke="#000000" fill="#000000" stroke-opacity="1.000000" fill-opacity="0.000000"/>
<polygon points="542.02 , 833.13 543.70 , 833.18 545.37 , 833.34 547.03 , 833.61 548.67 , 833.98 550.28 , 834.45 551.85 , 835.02 553.39 , 835.70 554.88 , 836.46 556.32 , 837.33 557.71 , 838.28 559.02 , 839.32 560.28 , 840.43 561.45 , 841.63 562.55 , 842.90 563.57 , 844.23 564.50 , 845.63 565.34 , 847.09 566.08 , 848.59 566.73 , 850.14 567.28 , 851.72 567.73 , 853.34 568.07 , 854.98 568.31 , 856.64 568.44 , 858.32 568.47 , 859.99 568.39 , 861.67 568.20 , 863.34 567.91 , 864.99 567.52 , 866.62 567.02 , 868.22 566.42 , 869.79 565.72 , 871.32 564.93 , 872.80 564.04 , 874.22 563.07 , 875.59 562.01 , 876.89 560.87 , 878.13 559.66 , 879.28 558.37 , 880.36 557.02 , 881.36 555.61 , 882.27 554.14 , 883.08 552.63 , 883.80 551.07 , 884.43 549.48 , 884.95 547.85 , 885.37 546.20 , 885.69 544.54 , 885.90 542.86 , 886.01 541.19 , 886.01 539.51 , 885.90 537.85 , 885.69 536.20 , 885.37 534.57 , 884.95 532.98 , 884.43 531.42 , 883.80 529.91 , 883.08 528.44 , 882.27 527.03 , 881.36 525.68 , 880.36 524.39 , 879.28 523.18 , 878.13 522.04 , 876.89 520.98 , 875.59 520.01 , 874.22 519.12 , 872.80 518.33 , 871.32 517.63 , 869.79 517.03 , 868.22 516.53 , 866.62 516.14 , 864.99 515.85 , 863.34 515.66 , 861.67 515.58 , 859.99 515.61 , 858.32 515.74 , 856.64 515.98 , 854.98 516.32 , 853.34 516.77 , 851.72 517.32 , 850.14 517.97 , 848.59 518.71 , 847.09 519.55 , 845.63 520.48 , 844.23 521.50 , 842.90 522.60 , 841.63 523.77 , 840.43 525.03 , 839.32 526.34 , 838.28 527.73 , 837.33 529.17 , 836.46 530.66 , 835.70 532.20 , 835.02 533.77 , 834.45 535.38 , 833.98 537.02 , 833.61 538.68 , 833.34 540.35 , 833.18 542.02 , 833.13 " stroke-width="2px" stroke="#FFFFFF" fill="#FC8D62" stroke-opacity="0.000000" fill-opacity="0.393701" />
<polyline points="542.02 , 833.13 543.70 , 833.18 545.37 , 833.34 547.03 , 833.61 548.67 , 833.98 550.28 , 834.45 551.85 , 835.02 553.39 , 835.70 554.88 , 836.46 556.32 , 837.33 557.71 , 838.28 559.02 , 839.32 560.28 , 840.43 561.45 , 841.63 562.55 , 842.90 563.57 , 844.23 564.50 , 845.63 565.34 , 847.09 566.08 , 848.59 566.73 , 850.14 567.28 , 851.72 567.73 , 853.34 568.07 , 854.98 568.31 , 856.64 568.44 , 858.32 568.47 , 859.99 568.39 , 861.67 568.20 , 863.34 567.91 , 864.99 567.52 , 866.62 567.02 , 868.22 566.42 , 869.79 565.72 , 871.32 564.93 , 872.80 564.04 , 874.22 563.07 , 875.59 562.01 , 876.89 560.87 , 878.13 559.66 , 879.28 558.37 , 880.36 557.02 , 881.36 555.61 , 882.27 554.14 , 883.08 552.63 , 883.80 551.07 , 884.43 549.48 , 884.95 547.85 , 885.37 546.20 , 885.69 544.54 , 885.90 542.86 , 886.01 541.19 , 886.01 539.51 , 885.90 537.85 , 885.69 536.20 , 885.37 534.57 , 884.95 532.98 , 884.43 531.42 , 883.80 529.91 , 883.08 528.44 , 882.27 527.03 , 881.36 525.68 , 880.36 524.39 , 879.28 523.18 , 878.13 522.04 , 876.89 520.98 , 875.59 520.01 , 874.22 519.12 , 872.80 518.33 , 871.32 517.63 , 869.79 517.03 , 868.22 516.53 , 866.62 516.14 , 864.99 515.85 , 863.34 515.66 , 861.67 515.58 , 859.99 515.61 , 858.32 515.74 , 856.64 515.98 , 854.98 516.32 , 853.34 516.77 , 851.72 517.32 , 850.14 517.97 , 848.59 518.71 , 847.09 519.55 , 845.63 520.48 , 844.23 521.50 , 842.90 522.60 , 841.63 523.77 , 840.43 525.03 , 839.32 526.34 , 838.28 527.73 , 837.33 529.17 , 836.46 530.66 , 835.70 532.20 , 835.02 533.77 , 834.45 535.38 , 833.98 537.02 , 833.61 538.68 , 833.34 540.35 , 833.18 542.02 , 833.13 542.02 , 833.13 " stroke-width="2px" stroke="#000000" fill="#000000" stroke-opacity="1.000000" fill-opacity="0.000000"/>
<polygon points="542.02 , 541.13 543.70 , 541.18 545.37 , 541.34 547.03 , 541.61 548.67 , 541.98 550.28 , 542.45 551.85 , 543.02 553.39 , 543.70 554.88 , 544.46 556.32 , 545.33 557.71 , 546.28 559.02 , 547.32 560.28 , 548.43 561.45 , 549.63 562.55 , 550.90 563.57 , 552.23 564.50 , 553.63 565.34 , 555.09 566.08 , 556.59 566.73 , 558.14 567.28 , 559.72 567.73 , 561.34 568.07 , 562.98 568.31 , 564.64 568.44 , 566.32 568.47 , 567.99 568.39 , 569.67 568.20 , 571.34 567.91 , 572.99 567.52 , 574.62 567.02 , 576.22 566.42 , 577.79 565.72 , 579.32 564.93 , 580.80 564.04 , 582.22 563.07 , 583.59 562.01 , 584.89 560.87 , 586.13 559.66 , 587.28 558.37 , 588.36 557.02 , 589.36 555.61 , 590.27 554.14 , 591.08 552.63 , 591.80 551.07 , 592.43 549.48 , 592.95 547.85 , 593.37 546.20 , 593.69 544.54 , 593.90 542.86 , 594.01 541.19 , 594.01 539.51 , 593.90 537.85 , 593.69 536.20 , 593.37 534.57 , 592.95 532.98 , 592.43 531.42 , 591.80 529.91 , 591.08 528.44 , 590.27 527.03 , 589.36 525.68 , 588.36 524.39 , 587.28 523.18 , 586.13 522.04 , 584.89 520.98 , 583.59 520.01 , 582.22 519.12 , 580.80 518.33 , 579.32 517.63 , 577.79 517.03 , 576.22 516.53 , 574.62 516.14 , 572.99 515.85 , 571.34 515.66 , 569.67 515.58 , 567.99 515.61 , 566.32 515.74 , 564.64 515.98 , 562.98 516.32 , 561.34 516.77 , 559.72 517.32 , 558.14 517.97 , 556.59 518.71 , 555.09 519.55 , 553.63 520.48 , 552.23 521.50 , 550.90 522.60 , 549.63 523.77 , 548.43 525.03 , 547.32 526.34 , 546.28 527.73 , 545.33 529.17 , 544.46 530.66 , 543.70 532.20 , 543.02 533.77 , 542.45 535.38 , 541.98 537.02 , 541.61 538.68 , 541.34 540.35 , 541.18 542.02 , 541.13 " stroke-width="2px" stroke="#FFFFFF" fill="#8DA0CB" stroke-opacity="0.000000" fill-opacity="0.393701" />
<polyline points="542.02 , 541.13 543.70 , 541.18 545.37 , 541.34 547.03 , 541.61 548.67 , 541.98 550.28 , 542.45 551.85 , 543.02 553.39 , 543.70 554.88 , 544.46 556.32 , 545.33 557.71 , 546.28 559.02 , 547.32 560.28 , 548.43 561.45 , 549.63 562.55 , 550.90 563.57 , 552.23 564.50 , 553.63 565.34 , 555.09 566.08 , 556.59 566.73 , 558.14 567.28 , 559.72 567.73 , 561.34 568.07 , 562.98 568.31 , 564.64 568.44 , 566.32 568.47 , 567.99 568.39 , 569.67 568.20 , 571.34 567.91 , 572.99 567.52 , 574.62 567.02 , 576.22 566.42 , 577.79 565.72 , 579.32 564.93 , 580.80 564.04 , 582.22 563.07 , 583.59 562.01 , 584.89 560.87 , 586.13 559.66 , 587.28 558.37 , 588.36 557.02 , 589.36 555.61 , 590.27 554.14 , 591.08 552.63 , 591.80 551.07 , 592.43 549.48 , 592.95 547.85 , 593.37 546.20 , 593.69 544.54 , 593.90 542.86 , 594.01 541.19 , 594.01 539.51 , 593.90 537.85 , 593.69 536.20 , 593.37 534.57 , 592.95 532.98 , 592.43 531.42 , 591.80 529.91 , 591.08 528.44 , 590.27 527.03 , 589.36 525.68 , 588.36 524.39 , 587.28 523.18 , 586.13 522.04 , 584.89 520.98 , 583.59 520.01 , 582.22 519.12 , 580.80 518.33 , 579.32 517.63 , 577.79 517.03 , 576.22 516.53 , 574.62 516.14 , 572.99 515.85 , 571.34 515.66 , 569.67 515.58 , 567.99 515.61 , 566.32 515.74 , 564.64 515.98 , 562.98 516.32 , 561.34 516.77 , 559.72 517.32 , 558.14 517.97 , 556.59 518.71 , 555.09 519.55 , 553.63 520.48 , 552.23 521.50 , 550.90 522.60 , 549.63 523.77 , 548.43 525.03 , 547.32 526.34 , 546.28 527.73 , 545.33 529.17 , 544.46 530.66 , 543.70 532.20 , 543.02 533.77 , 542.45 535.38 , 541.98 537.02 , 541.61 538.68 , 541.34 540.35 , 541.18 542.02 , 541.13 542.02 , 541.13 " stroke-width="2px" stroke="#000000" fill="#000000" stroke-opacity="1.000000" fill-opacity="0.000000"/>
<polygon points="542.02 , 212.63 543.70 , 212.68 545.37 , 212.84 547.03 , 213.11 548.67 , 213.48 550.28 , 213.95 551.85 , 214.52 553.39 , 215.20 554.88 , 215.96 556.32 , 216.83 557.71 , 217.78 559.02 , 218.82 560.28 , 219.93 561.45 , 221.13 562.55 , 222.40 563.57 , 223.73 564.50 , 225.13 565.34 , 226.59 566.08 , 228.09 566.73 , 229.64 567.28 , 231.22 567.73 , 232.84 568.07 , 234.48 568.31 , 236.14 568.44 , 237.82 568.47 , 239.49 568.39 , 241.17 568.20 , 242.84 567.91 , 244.49 567.52 , 246.12 567.02 , 247.72 566.42 , 249.29 565.72 , 250.82 564.93 , 252.30 564.04 , 253.72 563.07 , 255.09 562.01 , 256.39 560.87 , 257.63 559.66 , 258.78 558.37 , 259.86 557.02 , 260.86 555.61 , 261.77 554.14 , 262.58 552.63 , 263.30 551.07 , 263.93 549.48 , 264.45 547.85 , 264.87 546.20 , 265.19 544.54 , 265.40 542.86 , 265.51 541.19 , 265.51 539.51 , 265.40 537.85 , 265.19 536.20 , 264.87 534.57 , 264.45 532.98 , 263.93 531.42 , 263.30 529.91 , 262.58 528.44 , 261.77 527.03 , 260.86 525.68 , 259.86 524.39 , 258.78 523.18 , 257.63 522.04 , 256.39 520.98 , 255.09 520.01 , 253.72 519.12 , 252.30 518.33 , 250.82 517.63 , 249.29 517.03 , 247.72 516.53 , 246.12 516.14 , 244.49 515.85 , 242.84 515.66 , 241.17 515.58 , 239.49 515.61 , 237.82 515.74 , 236.14 515.98 , 234.48 516.32 , 232.84 516.77 , 231.22 517.32 , 229.64 517.97 , 228.09 518.71 , 226.59 519.55 , 225.13 520.48 , 223.73 521.50 , 222.40 522.60 , 221.13 523.77 , 219.93 525.03 , 218.82 526.34 , 217.78 527.73 , 216.83 529.17 , 215.96 530.66 , 215.20 532.20 , 214.52 533.77 , 213.95 535.38 , 213.48 537.02 , 213.11 538.68 , 212.84 540.35 , 212.68 542.02 , 212.63 " stroke-width="2px" stroke="#FFFFFF" fill="#E78AC3" stroke-opacity="0.000000" fill-opacity="0.393701" />
<polyline points="542.02 , 212.63 543.70 , 212.68 545.37 , 212.84 547.03 , 213.11 548.67 , 213.48 550.28 , 213.95 551.85 , 214.52 553.39 , 215.20 554.88 , 215.96 556.32 , 216.83 557.71 , 217.78 559.02 , 218.82 560.28 , 219.93 561.45 , 221.13 562.55 , 222.40 563.57 , 223.73 564.50 , 225.13 565.34 , 226.59 566.08 , 228.09 566.73 , 229.64 567.28 , 231.22 567.73 , 232.84 568.07 , 234.48 568.31 , 236.14 568.44 , 237.82 568.47 , 239.49 568.39 , 241.17 568.20 , 242.84 567.91 , 244.49 567.52 , 246.12 567.02 , 247.72 566.42 , 249.29 565.72 , 250.82 564.93 , 252.30 564.04 , 253.72 563.07 , 255.09 562.01 , 256.39 560.87 , 257.63 559.66 , 258.78 558.37 , 259.86 557.02 , 260.86 555.61 , 261.77 554.14 , 262.58 552.63 , 263.30 551.07 , 263.93 549.48 , 264.45 547.85 , 264.87 546.20 , 265.19 544.54 , 265.40 542.86 , 265.51 541.19 , 265.51 539.51 , 265.40 537.85 , 265.19 536.20 , 264.87 534.57 , 264.45 532.98 , 263.93 531.42 , 263.30 529.91 , 262.58 528.44 , 261.77 527.03 , 260.86 525.68 , 259.86 524.39 , 258.78 523.18 , 257.63 522.04 , 256.39 520.98 , 255.09 520.01 , 253.72 519.12 , 252.30 518.33 , 250.82 517.63 , 249.29 517.03 , 247.72 516.53 , 246.12 516.14 , 244.49 515.85 , 242.84 515.66 , 241.17 515.58 , 239.49 515.61 , 237.82 515.74 , 236.14 515.98 , 234.48 516.32 , 232.84 516.77 , 231.22 517.32 , 229.64 517.97 , 228.09 518.71 , 226.59 519.55 , 225.13 520.48 , 223.73 521.50 , 222.40 522.60 , 221.13 523.77 , 219.93 525.03 , 218.82 526.34 , 217.78 527.73 , 216.83 529.17 , 215.96 530.66 , 215.20 532.20 , 214.52 533.77 , 213.95 535.38 , 213.48 537.02 , 213.11 538.68 , 212.84 540.35 , 212.68 542.02 , 212.63 542.02 , 212.63 " stroke-width="2px" stroke="#000000" fill="#000000" stroke-opacity="1.000000" fill-opacity="0.000000"/>
<text transform="translate(838.88,1373.82) " fill="#000000"  style="font-size:11pt" >O&#160;diretor&#160;deveria&#160;ter</text>
<text transform="translate(836.11,1385.58) " fill="#000000"  style="font-size:11pt" >mais&#160;autonomia&#160;para</text>
<text transform="translate(831.95,1397.35) " fill="#000000"  style="font-size:11pt" >administrar&#160;a&#160;prisão.</text>
<text transform="translate(855.75,1292.49) " fill="#000000"  style="font-size:9pt" >O&#160;cargo&#160;de&#160;diretor</text>
<text transform="translate(850.00,1301.96) " fill="#000000"  style="font-size:9pt" >deveria&#160;ser&#160;ocupado</text>
<text transform="translate(846.37,1311.44) " fill="#000000"  style="font-size:9pt" >por&#160;meio&#160;de&#160;concurso</text>
<text transform="translate(830.80,1320.91) " fill="#000000"  style="font-size:9pt" >público&#160;interno&#160;e&#160;não&#160;por</text>
<text transform="translate(869.43,1330.39) " fill="#000000"  style="font-size:9pt" >indicação.</text>
<text transform="translate(855.86,1220.06) " fill="#000000"  style="font-size:8pt" >A&#160;perda&#160;do&#160;cargo&#160;de</text>
<text transform="translate(843.63,1229.15) " fill="#000000"  style="font-size:8pt" >diretor&#160;geralmente&#160;se&#160;dá</text>
<text transform="translate(836.17,1238.25) " fill="#000000"  style="font-size:8pt" >mais&#160;por&#160;razões&#160;políticas</text>
<text transform="translate(859.36,1247.34) " fill="#000000"  style="font-size:8pt" >do&#160;que&#160;por&#160;falta&#160;de</text>
<text transform="translate(853.58,1256.44) " fill="#000000"  style="font-size:8pt" >capacidade&#160;técnica.</text>
<text transform="translate(857.21,1146.99) " fill="#000000"  style="font-size:8pt" >Muitos&#160;aspectos&#160;da</text>
<text transform="translate(852.17,1156.13) " fill="#000000"  style="font-size:8pt" >dinâmica&#160;da&#160;unidade</text>
<text transform="translate(855.73,1165.27) " fill="#000000"  style="font-size:8pt" >são&#160;decididos&#160;pela</text>
<text transform="translate(836.51,1174.41) " fill="#000000"  style="font-size:8pt" >Coordenação&#160;Regional&#160;ou</text>
<text transform="translate(850.82,1183.55) " fill="#000000"  style="font-size:8pt" >pelo&#160;gabinete&#160;da&#160;SAP.</text>
<text transform="translate(840.70,1073.62) " fill="#000000"  style="font-size:9pt" >A&#160;direção&#160;da&#160;unidade</text>
<text transform="translate(833.67,1083.01) " fill="#000000"  style="font-size:9pt" >prisional&#160;tem&#160;menos&#160;poder</text>
<text transform="translate(836.17,1092.39) " fill="#000000"  style="font-size:9pt" >sobre&#160;os&#160;presos&#160;do&#160;que&#160;a</text>
<text transform="translate(830.12,1101.78) " fill="#000000"  style="font-size:9pt" >coordenação&#160;regional&#160;e&#160;o</text>
<text transform="translate(857.03,1111.17) " fill="#000000"  style="font-size:9pt" >gabinete&#160;da&#160;SAP.</text>
<text transform="translate(832.24,1014.70) " fill="#000000"  style="font-size:9pt" >Não&#160;dá&#160;para&#160;confiar&#160;nos</text>
<text transform="translate(883.72,1024.37) " fill="#000000"  style="font-size:9pt" >presos.</text>
<text transform="translate(834.41,941.70) " fill="#000000"  style="font-size:10pt" >É&#160;importante&#160;ganhar&#160;o</text>
<text transform="translate(843.40,952.78) " fill="#000000"  style="font-size:10pt" >respeito&#160;dos&#160;presos.</text>
<text transform="translate(835.03,863.81) " fill="#000000"  style="font-size:9pt" >Conversar&#160;com&#160;presos&#160;é</text>
<text transform="translate(846.22,873.59) " fill="#000000"  style="font-size:9pt" >inútil&#160;para&#160;fazê-&#160;los</text>
<text transform="translate(833.07,883.37) " fill="#000000"  style="font-size:9pt" >repensarem&#160;suas&#160;atitudes.</text>
<text transform="translate(834.26,789.73) " fill="#000000"  style="font-size:11pt" >O&#160;contato&#160;pessoal&#160;do</text>
<text transform="translate(832.97,801.67) " fill="#000000"  style="font-size:11pt" >diretor&#160;com&#160;os&#160;presos</text>
<text transform="translate(847.47,813.60) " fill="#000000"  style="font-size:11pt" >deve&#160;ser&#160;evitado.</text>
<text transform="translate(833.40,711.92) " fill="#000000"  style="font-size:10pt" >É&#160;mais&#160;fácil&#160;trabalhar</text>
<text transform="translate(836.26,722.70) " fill="#000000"  style="font-size:10pt" >na&#160;administração&#160;do</text>
<text transform="translate(832.48,733.48) " fill="#000000"  style="font-size:10pt" >que&#160;diretamente&#160;com&#160;os</text>
<text transform="translate(881.53,744.25) " fill="#000000"  style="font-size:10pt" >presos.</text>
<text transform="translate(840.10,639.92) " fill="#000000"  style="font-size:9pt" >A&#160;disciplina&#160;é&#160;a&#160;melhor</text>
<text transform="translate(837.00,649.70) " fill="#000000"  style="font-size:9pt" >forma&#160;de&#160;fazer&#160;os&#160;presos</text>
<text transform="translate(833.07,659.48) " fill="#000000"  style="font-size:9pt" >respeitarem&#160;as&#160;ordens&#160;dos</text>
<text transform="translate(850.68,669.26) " fill="#000000"  style="font-size:9pt" >agentes&#160;e&#160;diretores.</text>
<text transform="translate(844.24,560.12) " fill="#000000"  style="font-size:10pt" >Os&#160;presos&#160;deveriam</text>
<text transform="translate(854.07,571.17) " fill="#000000"  style="font-size:10pt" >ter&#160;mais&#160;respeito</text>
<text transform="translate(851.13,582.23) " fill="#000000"  style="font-size:10pt" >à&#160;autoridade&#160;dos</text>
<text transform="translate(834.24,593.28) " fill="#000000"  style="font-size:10pt" >diretores&#160;e&#160;dos&#160;agentes</text>
<text transform="translate(857.26,604.33) " fill="#000000"  style="font-size:10pt" >penitenciários.</text>
<text transform="translate(850.09,494.90) " fill="#000000"  style="font-size:8pt" >Uma&#160;conversa&#160;com&#160;os</text>
<text transform="translate(841.35,503.70) " fill="#000000"  style="font-size:8pt" >presos&#160;dá&#160;mais&#160;resultado</text>
<text transform="translate(833.89,512.50) " fill="#000000"  style="font-size:8pt" >do&#160;que&#160;aplicar&#160;uma&#160;sanção</text>
<text transform="translate(878.24,521.29) " fill="#000000"  style="font-size:8pt" >disciplinar.</text>
<text transform="translate(834.33,430.70) " fill="#000000"  style="font-size:10pt" >A&#160;ressocialização&#160;de</text>
<text transform="translate(832.90,441.54) " fill="#000000"  style="font-size:10pt" >presos&#160;é&#160;uma&#160;falácia.</text>
<text transform="translate(831.40,357.70) " fill="#000000"  style="font-size:9pt" >A&#160;vida&#160;na&#160;prisão&#160;é&#160;muito</text>
<text transform="translate(846.15,367.25) " fill="#000000"  style="font-size:9pt" >fácil&#160;para&#160;os&#160;presos.</text>
<text transform="translate(834.16,284.70) " fill="#000000"  style="font-size:10pt" >Os&#160;presos&#160;têm&#160;muitos</text>
<text transform="translate(879.94,295.74) " fill="#000000"  style="font-size:10pt" >direitos.</text>
<text transform="translate(833.89,207.30) " fill="#000000"  style="font-size:8pt" >Melhorar&#160;as&#160;condições&#160;das</text>
<text transform="translate(844.10,216.10) " fill="#000000"  style="font-size:8pt" >prisões&#160;torna&#160;os&#160;presos</text>
<text transform="translate(848.07,224.89) " fill="#000000"  style="font-size:8pt" >piores&#160;para&#160;os&#160;agentes.</text>
<text transform="translate(841.21,116.54) " fill="#000000"  style="font-size:8pt" >O&#160;trabalho&#160;do&#160;diretor&#160;não</text>
<text transform="translate(847.33,125.40) " fill="#000000"  style="font-size:8pt" >é&#160;ressocializar&#160;presos,</text>
<text transform="translate(844.71,134.27) " fill="#000000"  style="font-size:8pt" >mas&#160;sim&#160;manter&#160;a&#160;ordem</text>
<text transform="translate(849.75,143.13) " fill="#000000"  style="font-size:8pt" >e&#160;evitar&#160;que&#160;eles&#160;fujam</text>
<text transform="translate(847.60,152.00) " fill="#000000"  style="font-size:8pt" >ou&#160;pratiquem&#160;violência</text>
<text transform="translate(847.60,160.86) " fill="#000000"  style="font-size:8pt" >contra&#160;outros&#160;presos&#160;ou</text>
<text transform="translate(846.19,169.73) " fill="#000000"  style="font-size:8pt" >agentes&#160;penitenciários.</text>
<text transform="translate(835.84,43.54) " fill="#000000"  style="font-size:8pt" >Nós&#160;deveríamos&#160;parar&#160;de</text>
<text transform="translate(851.70,52.40) " fill="#000000"  style="font-size:8pt" >tratar&#160;os&#160;presos&#160;como</text>
<text transform="translate(839.47,61.27) " fill="#000000"  style="font-size:8pt" >vítimas&#160;que&#160;merecem&#160;ser</text>
<text transform="translate(845.85,70.13) " fill="#000000"  style="font-size:8pt" >ressocializadas&#160;e&#160;fazê-</text>
<text transform="translate(850.29,79.00) " fill="#000000"  style="font-size:8pt" >los&#160;pagar&#160;pelos&#160;crimes</text>
<text transform="translate(850.69,87.86) " fill="#000000"  style="font-size:8pt" >que&#160;cometeram&#160;contra</text>
<text transform="translate(865.61,96.73) " fill="#000000"  style="font-size:8pt" >outras&#160;pessoas.</text>
<text transform="translate(152.55,878.48) " fill="#000000"  style="font-size:18pt" >idade</text>
<text transform="translate(153.86,805.98) " fill="#000000"  style="font-size:19pt" >sexo</text>
<text transform="translate(153.38,727.74) " fill="#000000"  style="font-size:9pt" >seguranca</text>
<text transform="translate(151.85,655.53) " fill="#000000"  style="font-size:11pt" >unidades</text>
<text transform="translate(151.64,585.12) " fill="#000000"  style="font-size:16pt" >tempo</text>
<text transform="translate(521.92,1228.56) " fill="#000000"  style="font-size:7pt" >autonomo</text>
<text transform="translate(519.85,864.74) " fill="#000000"  style="font-size:10pt" >dialogal</text>
<text transform="translate(521.50,571.48) " fill="#000000"  style="font-size:7pt" >disciplinar</text>
<text transform="translate(521.54,244.11) " fill="#000000"  style="font-size:9pt" >punitivo</text>
<g id='ToolTip' opacity='1' visibility='hidden' pointer-events='none'>
   <rect id='tipbox' x='0' y='5' width='88' height='20' rx='2' ry='2' fill='white' stroke='black'/>
   <text id='tipText' x='5' y='20' font-family='Arial' font-size='10pt' fill='blue'>
      <tspan id='tipTitle' x='5' font-weight='bold' fill='black'><![CDATA[]]></tspan>
      <tspan id='tipDesc1' x='5' dy='13'><![CDATA[]]></tspan>
   </text>
</g>
</svg>
