<svg version="1.1"
     baseProfile="full"
     xmlns="http://www.w3.org/2000/svg"
     xmlns:xlink="http://www.w3.org/1999/xlink"
     xmlns:ev="http://www.w3.org/2001/xml-events"
     width="1517.67" height="1084.05"
     viewBox="0 0 1517.67 1084.05"
     font-family="Arial, Helvetica, sans-serif"
     onload='Init(evt)'
>
<title>grafico2</title>
<desc>R SVG Plot with tooltips! (mode=1)</desc>
<script type="text/ecmascript"><![CDATA[
    var SVGDocument = null;
    var SVGRoot = null;
    var SVGViewBox = null;
    var svgns = 'http://www.w3.org/2000/svg';
    var xlinkns = 'http://www.w3.org/1999/xlink';
    var map = null;
    var toolTip = null;
    var TrueCoords = null;
    var tipBox = null;
    var tipText = null;
    var tipTitle = null;
    var tipDesc1 = null;

    var lastElement = null;
    var titleText = '';
    var titleDesc = '';


    function Init(evt)
    {
       SVGDocument = evt.target.ownerDocument;
       SVGRoot = SVGDocument.documentElement;
       TrueCoords = SVGRoot.createSVGPoint();
       map = document.getElementById('canvas')

       toolTip = SVGDocument.getElementById('ToolTip');
       tipBox = SVGDocument.getElementById('tipbox');
       tipText = SVGDocument.getElementById('tipText');
       tipText.setAttributeNS(null, 'font-family', 'Arial, sans-serif' );
       tipTitle = SVGDocument.getElementById('tipTitle');
       tipDesc1 = SVGDocument.getElementById('tipDesc1');
       //window.status = (TrueCoords);

       //create event for object
       SVGRoot.addEventListener('mousemove', ShowTooltip, false);
       SVGRoot.addEventListener('mouseout', HideTooltip, false);
    };


    function GetTrueCoords(evt)
    {
       // find the current zoom level and pan setting, and adjust the reported
       //    mouse position accordingly
       var newScale = SVGRoot.currentScale;
       var translation = SVGRoot.currentTranslate;
       TrueCoords.x = (evt.pageX - translation.x)/newScale;
       TrueCoords.y = (evt.pageY - translation.y)/newScale;
    };


    function HideTooltip( evt )
    {
       toolTip.setAttributeNS(null, 'visibility', 'hidden');
    };


   function ShowTooltip( evt )
   {
      GetTrueCoords( evt );

      var tipScale = 1/SVGRoot.currentScale;
      var textWidth = 0;
      var tspanWidth = 0;
      var boxHeight = 20;

      tipBox.setAttributeNS(null, 'transform', 'scale(' + tipScale + ',' + tipScale + ')' );
      tipText.setAttributeNS(null, 'transform', 'scale(' + tipScale + ',' + tipScale + ')' );

      var titleValue = '';
      var desc1Value = '';
      var targetElement = evt.target;
      if ( lastElement != targetElement )
      {
         var targetTitle = targetElement.getElementsByTagName('tiptitle').item(0);
         if ( targetTitle )
         {
            // if there is a 'tiptitle' element, use its contents for the tooltip tiptitle
            titleValue = targetTitle.firstChild.nodeValue;
         }

         var targetDesc1 = targetElement.getElementsByTagName('desc1').item(0);
         if ( targetDesc1 )
         {
            // if there is a 'desc1' element, use its contents for the tooltip desc1
            desc1Value = targetDesc1.firstChild.nodeValue;

            if ( '' == titleValue )
            {
               // if there is no 'tiptitle' element, use the contents of the 'desc1' element for the tooltip title instead
               titleValue = desc1Value;
               desc1Value = '';
            }
         } else {
             // useful for debugging positioning...
             // desc1Value = 'xPos=' + TrueCoords.x + ' yPos=' + TrueCoords.y;
         }

         // if there is still no 'tiptitle' element, use the contents of the 'id' attribute for the tooltip title
         if ( '' == titleValue)
         {
             titleValue = targetElement.getAttributeNS(null, 'id');
             if (titleValue = 'canvas')
                 titleValue = ''
         }

         // selectively assign the tooltip title and desc the proper values,
         //   and hide those which don't have text values
         //
         var titleDisplay = 'none';
         if ( '' != titleValue )
         {
            tipTitle.firstChild.nodeValue = titleValue;
            titleDisplay = 'inline';
         }
         tipTitle.setAttributeNS(null, 'display', titleDisplay );

         var desc1Display = 'none';
         if ( '' != desc1Value )
         {
            tipDesc1.firstChild.nodeValue = desc1Value;
            desc1Display = 'inline';
         }
         tipDesc1.setAttributeNS(null, 'display', desc1Display );
      }

      // if there are tooltip contents to be displayed, adjust the size and position of the box
      if ( '' != titleValue )
      {
         var xPos = TrueCoords.x;
         var yPos = TrueCoords.y;
         //return rectangle around text as SVGRect object
         var outline = tipText.getBBox();
         tipBox.setAttributeNS(null, 'width', Number(outline.width) + 10);
         tipBox.setAttributeNS(null, 'height', Number(outline.height) + 10);

         // work out which direction tooltip needs to hang in to be visible
         var mapbb = map.getBBox();
         if (xPos + (10 * tipScale) + Number(outline.width) < Number(mapbb.width))
             xPos = xPos + 10 * tipScale;
         else
             xPos = xPos - 10 * tipScale - Number(outline.width);
         if (yPos + (10 * tipScale) + Number(outline.height) < Number(mapbb.height))
             yPos = yPos + 10 * tipScale;
         else
             yPos = yPos - 10 * tipScale - Number(outline.height);

         // update position
         toolTip.setAttributeNS(null, 'transform', 'translate(' + xPos + ',' + yPos + ')');
         toolTip.setAttributeNS(null, 'visibility', 'visible');
       }
    };

   ]]></script>
<rect width="100%" height="100%" style="fill:#FFFFFF" id='canvas'/>
<polyline points="542.02 , 918.43 839.61 , 1014.24 " stroke-width="2px" stroke="#808080" fill="#000000" stroke-opacity="1.000000" fill-opacity="0.000000"/>
<polygon points="838.08 , 1018.99 851.08 , 1017.94 841.14 , 1009.49 " stroke-width="1px" stroke="#FFFFFF" fill="#808080" stroke-opacity="0.000000" fill-opacity="1.000000" />
<polyline points="542.02 , 918.43 839.20 , 969.09 " stroke-width="2px" stroke="#808080" fill="#000000" stroke-opacity="1.000000" fill-opacity="0.000000"/>
<polygon points="838.36 , 974.01 851.08 , 971.11 840.04 , 964.17 " stroke-width="1px" stroke="#FFFFFF" fill="#808080" stroke-opacity="0.000000" fill-opacity="1.000000" />
<polyline points="542.02 , 918.43 839.03 , 924.06 " stroke-width="2px" stroke="#808080" fill="#000000" stroke-opacity="1.000000" fill-opacity="0.000000"/>
<polygon points="838.94 , 929.05 851.08 , 924.28 839.13 , 919.07 " stroke-width="1px" stroke="#FFFFFF" fill="#808080" stroke-opacity="0.000000" fill-opacity="1.000000" />
<polyline points="542.02 , 918.43 839.13 , 879.04 " stroke-width="2px" stroke="#808080" fill="#000000" stroke-opacity="1.000000" fill-opacity="0.000000"/>
<polygon points="839.79 , 883.99 851.08 , 877.46 838.48 , 874.10 " stroke-width="1px" stroke="#FFFFFF" fill="#808080" stroke-opacity="0.000000" fill-opacity="1.000000" />
<polyline points="542.02 , 918.43 839.49 , 833.92 " stroke-width="2px" stroke="#808080" fill="#000000" stroke-opacity="1.000000" fill-opacity="0.000000"/>
<polygon points="840.85 , 838.72 851.08 , 830.63 838.12 , 829.12 " stroke-width="1px" stroke="#FFFFFF" fill="#808080" stroke-opacity="0.000000" fill-opacity="1.000000" />
<polyline points="542.02 , 644.68 839.61 , 740.49 " stroke-width="2px" stroke="#808080" fill="#000000" stroke-opacity="1.000000" fill-opacity="0.000000"/>
<polygon points="838.08 , 745.24 851.08 , 744.19 841.14 , 735.74 " stroke-width="1px" stroke="#FFFFFF" fill="#808080" stroke-opacity="0.000000" fill-opacity="1.000000" />
<polyline points="542.02 , 644.68 839.20 , 695.34 " stroke-width="2px" stroke="#808080" fill="#000000" stroke-opacity="1.000000" fill-opacity="0.000000"/>
<polygon points="838.36 , 700.26 851.08 , 697.36 840.04 , 690.42 " stroke-width="1px" stroke="#FFFFFF" fill="#808080" stroke-opacity="0.000000" fill-opacity="1.000000" />
<polyline points="542.02 , 644.68 839.03 , 650.31 " stroke-width="2px" stroke="#808080" fill="#000000" stroke-opacity="1.000000" fill-opacity="0.000000"/>
<polygon points="838.94 , 655.30 851.08 , 650.53 839.13 , 645.32 " stroke-width="1px" stroke="#FFFFFF" fill="#808080" stroke-opacity="0.000000" fill-opacity="1.000000" />
<polyline points="542.02 , 644.68 839.13 , 605.29 " stroke-width="2px" stroke="#808080" fill="#000000" stroke-opacity="1.000000" fill-opacity="0.000000"/>
<polygon points="839.79 , 610.24 851.08 , 603.71 838.48 , 600.35 " stroke-width="1px" stroke="#FFFFFF" fill="#808080" stroke-opacity="0.000000" fill-opacity="1.000000" />
<polyline points="542.02 , 644.68 839.49 , 560.17 " stroke-width="2px" stroke="#808080" fill="#000000" stroke-opacity="1.000000" fill-opacity="0.000000"/>
<polygon points="840.85 , 564.97 851.08 , 556.88 838.12 , 555.37 " stroke-width="1px" stroke="#FFFFFF" fill="#808080" stroke-opacity="0.000000" fill-opacity="1.000000" />
<polyline points="542.02 , 425.68 839.20 , 476.34 " stroke-width="2px" stroke="#808080" fill="#000000" stroke-opacity="1.000000" fill-opacity="0.000000"/>
<polygon points="838.36 , 481.26 851.08 , 478.36 840.04 , 471.42 " stroke-width="1px" stroke="#FFFFFF" fill="#808080" stroke-opacity="0.000000" fill-opacity="1.000000" />
<polyline points="542.02 , 425.68 839.03 , 431.31 " stroke-width="2px" stroke="#808080" fill="#000000" stroke-opacity="1.000000" fill-opacity="0.000000"/>
<polygon points="838.94 , 436.30 851.08 , 431.53 839.13 , 426.32 " stroke-width="1px" stroke="#FFFFFF" fill="#808080" stroke-opacity="0.000000" fill-opacity="1.000000" />
<polyline points="542.02 , 425.68 839.13 , 386.29 " stroke-width="2px" stroke="#808080" fill="#000000" stroke-opacity="1.000000" fill-opacity="0.000000"/>
<polygon points="839.79 , 391.24 851.08 , 384.71 838.48 , 381.35 " stroke-width="1px" stroke="#FFFFFF" fill="#808080" stroke-opacity="0.000000" fill-opacity="1.000000" />
<polyline points="542.02 , 179.31 839.88 , 297.77 " stroke-width="2px" stroke="#808080" fill="#000000" stroke-opacity="1.000000" fill-opacity="0.000000"/>
<polygon points="838.04 , 302.41 851.08 , 302.22 841.73 , 293.14 " stroke-width="1px" stroke="#FFFFFF" fill="#808080" stroke-opacity="0.000000" fill-opacity="1.000000" />
<polyline points="542.02 , 179.31 839.38 , 252.52 " stroke-width="2px" stroke="#808080" fill="#000000" stroke-opacity="1.000000" fill-opacity="0.000000"/>
<polygon points="838.19 , 257.36 851.08 , 255.40 840.57 , 247.67 " stroke-width="1px" stroke="#FFFFFF" fill="#808080" stroke-opacity="0.000000" fill-opacity="1.000000" />
<polyline points="542.02 , 179.31 839.08 , 207.44 " stroke-width="2px" stroke="#808080" fill="#000000" stroke-opacity="1.000000" fill-opacity="0.000000"/>
<polygon points="838.61 , 212.40 851.08 , 208.57 839.55 , 202.47 " stroke-width="1px" stroke="#FFFFFF" fill="#808080" stroke-opacity="0.000000" fill-opacity="1.000000" />
<polyline points="542.02 , 179.31 839.05 , 162.43 " stroke-width="2px" stroke="#808080" fill="#000000" stroke-opacity="1.000000" fill-opacity="0.000000"/>
<polygon points="839.33 , 167.41 851.08 , 161.75 838.77 , 157.45 " stroke-width="1px" stroke="#FFFFFF" fill="#808080" stroke-opacity="0.000000" fill-opacity="1.000000" />
<polyline points="542.02 , 179.31 839.28 , 117.38 " stroke-width="2px" stroke="#808080" fill="#000000" stroke-opacity="1.000000" fill-opacity="0.000000"/>
<polygon points="840.30 , 122.26 851.08 , 114.92 838.27 , 112.49 " stroke-width="1px" stroke="#FFFFFF" fill="#808080" stroke-opacity="0.000000" fill-opacity="1.000000" />
<polyline points="542.02 , 179.31 839.74 , 72.17 " stroke-width="2px" stroke="#808080" fill="#000000" stroke-opacity="1.000000" fill-opacity="0.000000"/>
<polygon points="841.43 , 76.87 851.08 , 68.09 838.05 , 67.48 " stroke-width="1px" stroke="#FFFFFF" fill="#808080" stroke-opacity="0.000000" fill-opacity="1.000000" />
<polyline points="180.67 , 651.52 513.40 , 897.29 " stroke-width="2px" stroke="#808080" fill="#000000" stroke-opacity="1.000000" fill-opacity="0.000000"/>
<polygon points="510.44 , 901.30 523.09 , 904.45 516.37 , 893.28 " stroke-width="1px" stroke="#FFFFFF" fill="#808080" stroke-opacity="0.000000" fill-opacity="1.000000" />
<polyline points="180.67 , 596.77 515.45 , 894.77 " stroke-width="2px" stroke="#808080" fill="#000000" stroke-opacity="1.000000" fill-opacity="0.000000"/>
<polygon points="512.13 , 898.50 524.45 , 902.78 518.77 , 891.05 " stroke-width="1px" stroke="#FFFFFF" fill="#808080" stroke-opacity="0.000000" fill-opacity="1.000000" />
<polyline points="180.67 , 542.02 517.38 , 892.76 " stroke-width="2px" stroke="#808080" fill="#000000" stroke-opacity="1.000000" fill-opacity="0.000000"/>
<polygon points="513.78 , 896.22 525.73 , 901.45 520.98 , 889.31 " stroke-width="1px" stroke="#FFFFFF" fill="#808080" stroke-opacity="0.000000" fill-opacity="1.000000" />
<polyline points="180.67 , 487.27 519.17 , 891.16 " stroke-width="2px" stroke="#808080" fill="#000000" stroke-opacity="1.000000" fill-opacity="0.000000"/>
<polygon points="515.35 , 894.37 526.91 , 900.39 522.99 , 887.96 " stroke-width="1px" stroke="#FFFFFF" fill="#808080" stroke-opacity="0.000000" fill-opacity="1.000000" />
<polyline points="180.67 , 432.52 520.79 , 889.88 " stroke-width="2px" stroke="#808080" fill="#000000" stroke-opacity="1.000000" fill-opacity="0.000000"/>
<polygon points="516.79 , 892.86 527.98 , 899.55 524.80 , 886.90 " stroke-width="1px" stroke="#FFFFFF" fill="#808080" stroke-opacity="0.000000" fill-opacity="1.000000" />
<polyline points="180.67 , 651.52 506.45 , 645.36 " stroke-width="2px" stroke="#808080" fill="#000000" stroke-opacity="1.000000" fill-opacity="0.000000"/>
<polygon points="506.54 , 650.34 518.49 , 645.13 506.36 , 640.37 " stroke-width="1px" stroke="#FFFFFF" fill="#808080" stroke-opacity="0.000000" fill-opacity="1.000000" />
<polyline points="180.67 , 596.77 506.75 , 640.00 " stroke-width="2px" stroke="#808080" fill="#000000" stroke-opacity="1.000000" fill-opacity="0.000000"/>
<polygon points="506.10 , 644.95 518.69 , 641.59 507.41 , 635.06 " stroke-width="1px" stroke="#FFFFFF" fill="#808080" stroke-opacity="0.000000" fill-opacity="1.000000" />
<polyline points="180.67 , 542.02 507.80 , 634.96 " stroke-width="2px" stroke="#808080" fill="#000000" stroke-opacity="1.000000" fill-opacity="0.000000"/>
<polygon points="506.43 , 639.76 519.39 , 638.25 509.16 , 630.16 " stroke-width="1px" stroke="#FFFFFF" fill="#808080" stroke-opacity="0.000000" fill-opacity="1.000000" />
<polyline points="180.67 , 487.27 509.40 , 630.47 " stroke-width="2px" stroke="#808080" fill="#000000" stroke-opacity="1.000000" fill-opacity="0.000000"/>
<polygon points="507.41 , 635.05 520.45 , 635.28 511.40 , 625.90 " stroke-width="1px" stroke="#FFFFFF" fill="#808080" stroke-opacity="0.000000" fill-opacity="1.000000" />
<polyline points="180.67 , 432.52 511.34 , 626.67 " stroke-width="2px" stroke="#808080" fill="#000000" stroke-opacity="1.000000" fill-opacity="0.000000"/>
<polygon points="508.82 , 630.97 521.73 , 632.77 513.87 , 622.36 " stroke-width="1px" stroke="#FFFFFF" fill="#808080" stroke-opacity="0.000000" fill-opacity="1.000000" />
<polyline points="180.67 , 651.52 511.85 , 444.54 " stroke-width="2px" stroke="#808080" fill="#000000" stroke-opacity="1.000000" fill-opacity="0.000000"/>
<polygon points="514.50 , 448.77 522.07 , 438.15 509.21 , 440.31 " stroke-width="1px" stroke="#FFFFFF" fill="#808080" stroke-opacity="0.000000" fill-opacity="1.000000" />
<polyline points="180.67 , 596.77 509.87 , 440.91 " stroke-width="2px" stroke="#808080" fill="#000000" stroke-opacity="1.000000" fill-opacity="0.000000"/>
<polygon points="512.00 , 445.42 520.75 , 435.75 507.73 , 436.40 " stroke-width="1px" stroke="#FFFFFF" fill="#808080" stroke-opacity="0.000000" fill-opacity="1.000000" />
<polyline points="180.67 , 542.02 508.16 , 436.59 " stroke-width="2px" stroke="#808080" fill="#000000" stroke-opacity="1.000000" fill-opacity="0.000000"/>
<polygon points="509.69 , 441.34 519.62 , 432.89 506.63 , 431.84 " stroke-width="1px" stroke="#FFFFFF" fill="#808080" stroke-opacity="0.000000" fill-opacity="1.000000" />
<polyline points="180.67 , 487.27 506.95 , 431.66 " stroke-width="2px" stroke="#808080" fill="#000000" stroke-opacity="1.000000" fill-opacity="0.000000"/>
<polygon points="507.79 , 436.58 518.83 , 429.64 506.11 , 426.74 " stroke-width="1px" stroke="#FFFFFF" fill="#808080" stroke-opacity="0.000000" fill-opacity="1.000000" />
<polyline points="180.67 , 432.52 506.45 , 426.36 " stroke-width="2px" stroke="#808080" fill="#000000" stroke-opacity="1.000000" fill-opacity="0.000000"/>
<polygon points="506.54 , 431.34 518.49 , 426.13 506.36 , 421.37 " stroke-width="1px" stroke="#FFFFFF" fill="#808080" stroke-opacity="0.000000" fill-opacity="1.000000" />
<polyline points="180.67 , 651.52 520.40 , 207.56 " stroke-width="2px" stroke="#808080" fill="#000000" stroke-opacity="1.000000" fill-opacity="0.000000"/>
<polygon points="524.36 , 210.60 527.72 , 198.00 516.44 , 204.53 " stroke-width="1px" stroke="#FFFFFF" fill="#808080" stroke-opacity="0.000000" fill-opacity="1.000000" />
<polyline points="180.67 , 596.77 518.74 , 206.21 " stroke-width="2px" stroke="#808080" fill="#000000" stroke-opacity="1.000000" fill-opacity="0.000000"/>
<polygon points="522.51 , 209.47 526.62 , 197.10 514.97 , 202.94 " stroke-width="1px" stroke="#FFFFFF" fill="#808080" stroke-opacity="0.000000" fill-opacity="1.000000" />
<polyline points="180.67 , 542.02 516.91 , 204.51 " stroke-width="2px" stroke="#808080" fill="#000000" stroke-opacity="1.000000" fill-opacity="0.000000"/>
<polygon points="520.45 , 208.04 525.42 , 195.98 513.38 , 200.99 " stroke-width="1px" stroke="#FFFFFF" fill="#808080" stroke-opacity="0.000000" fill-opacity="1.000000" />
<polyline points="180.67 , 487.27 514.94 , 202.39 " stroke-width="2px" stroke="#808080" fill="#000000" stroke-opacity="1.000000" fill-opacity="0.000000"/>
<polygon points="518.18 , 206.18 524.11 , 194.57 511.71 , 198.59 " stroke-width="1px" stroke="#FFFFFF" fill="#808080" stroke-opacity="0.000000" fill-opacity="1.000000" />
<polyline points="180.67 , 432.52 512.89 , 199.73 " stroke-width="2px" stroke="#808080" fill="#000000" stroke-opacity="1.000000" fill-opacity="0.000000"/>
<polygon points="515.75 , 203.81 522.75 , 192.81 510.02 , 195.64 " stroke-width="1px" stroke="#FFFFFF" fill="#808080" stroke-opacity="0.000000" fill-opacity="1.000000" />
<polygon points="851.08 , 1060.92 955.67 , 1060.92 955.67 , 1008.63 851.08 , 1008.63 " stroke-width="1px" stroke="#FFFFFF" fill="#E41A1C" stroke-opacity="0.000000" fill-opacity="1.000000" />
<polyline points="851.08 , 1060.92 955.67 , 1060.92 955.67 , 1008.63 851.08 , 1008.63 851.08 , 1060.92 " stroke-width="1px" stroke="#FFFFFF" fill="#000000" stroke-opacity="0.000000" fill-opacity="0.000000"/>
<rect x="851.08" y="1008.63" width="104.60" height="52.30" stroke-width="2px" stroke="#000000" fill="#FFFFFF" stroke-opacity="1.000000" fill-opacity="0.000000" />
<polygon points="851.08 , 1006.17 955.67 , 1006.17 955.67 , 953.88 851.08 , 953.88 " stroke-width="1px" stroke="#FFFFFF" fill="#377EB8" stroke-opacity="0.000000" fill-opacity="1.000000" />
<polyline points="851.08 , 1006.17 955.67 , 1006.17 955.67 , 953.88 851.08 , 953.88 851.08 , 1006.17 " stroke-width="1px" stroke="#FFFFFF" fill="#000000" stroke-opacity="0.000000" fill-opacity="0.000000"/>
<rect x="851.08" y="953.88" width="104.60" height="52.30" stroke-width="2px" stroke="#000000" fill="#FFFFFF" stroke-opacity="1.000000" fill-opacity="0.000000" />
<polygon points="851.08 , 951.42 955.67 , 951.42 955.67 , 899.13 851.08 , 899.13 " stroke-width="1px" stroke="#FFFFFF" fill="#4DAF4A" stroke-opacity="0.000000" fill-opacity="1.000000" />
<polyline points="851.08 , 951.42 955.67 , 951.42 955.67 , 899.13 851.08 , 899.13 851.08 , 951.42 " stroke-width="1px" stroke="#FFFFFF" fill="#000000" stroke-opacity="0.000000" fill-opacity="0.000000"/>
<rect x="851.08" y="899.13" width="104.60" height="52.30" stroke-width="2px" stroke="#000000" fill="#FFFFFF" stroke-opacity="1.000000" fill-opacity="0.000000" />
<polygon points="851.08 , 896.67 955.67 , 896.67 955.67 , 844.38 851.08 , 844.38 " stroke-width="1px" stroke="#FFFFFF" fill="#984EA3" stroke-opacity="0.000000" fill-opacity="1.000000" />
<polyline points="851.08 , 896.67 955.67 , 896.67 955.67 , 844.38 851.08 , 844.38 851.08 , 896.67 " stroke-width="1px" stroke="#FFFFFF" fill="#000000" stroke-opacity="0.000000" fill-opacity="0.000000"/>
<rect x="851.08" y="844.38" width="104.60" height="52.30" stroke-width="2px" stroke="#000000" fill="#FFFFFF" stroke-opacity="1.000000" fill-opacity="0.000000" />
<polygon points="851.08 , 841.92 955.67 , 841.92 955.67 , 789.63 851.08 , 789.63 " stroke-width="1px" stroke="#FFFFFF" fill="#E41A1C" stroke-opacity="0.000000" fill-opacity="1.000000" />
<polyline points="851.08 , 841.92 955.67 , 841.92 955.67 , 789.63 851.08 , 789.63 851.08 , 841.92 " stroke-width="1px" stroke="#FFFFFF" fill="#000000" stroke-opacity="0.000000" fill-opacity="0.000000"/>
<rect x="851.08" y="789.63" width="104.60" height="52.30" stroke-width="2px" stroke="#000000" fill="#FFFFFF" stroke-opacity="1.000000" fill-opacity="0.000000" />
<polygon points="851.08 , 787.17 955.67 , 787.17 955.67 , 734.88 851.08 , 734.88 " stroke-width="1px" stroke="#FFFFFF" fill="#377EB8" stroke-opacity="0.000000" fill-opacity="1.000000" />
<polyline points="851.08 , 787.17 955.67 , 787.17 955.67 , 734.88 851.08 , 734.88 851.08 , 787.17 " stroke-width="1px" stroke="#FFFFFF" fill="#000000" stroke-opacity="0.000000" fill-opacity="0.000000"/>
<rect x="851.08" y="734.88" width="104.60" height="52.30" stroke-width="2px" stroke="#000000" fill="#FFFFFF" stroke-opacity="1.000000" fill-opacity="0.000000" />
<polygon points="851.08 , 732.42 955.67 , 732.42 955.67 , 680.13 851.08 , 680.13 " stroke-width="1px" stroke="#FFFFFF" fill="#4DAF4A" stroke-opacity="0.000000" fill-opacity="1.000000" />
<polyline points="851.08 , 732.42 955.67 , 732.42 955.67 , 680.13 851.08 , 680.13 851.08 , 732.42 " stroke-width="1px" stroke="#FFFFFF" fill="#000000" stroke-opacity="0.000000" fill-opacity="0.000000"/>
<rect x="851.08" y="680.13" width="104.60" height="52.30" stroke-width="2px" stroke="#000000" fill="#FFFFFF" stroke-opacity="1.000000" fill-opacity="0.000000" />
<polygon points="851.08 , 677.67 955.67 , 677.67 955.67 , 625.38 851.08 , 625.38 " stroke-width="1px" stroke="#FFFFFF" fill="#984EA3" stroke-opacity="0.000000" fill-opacity="1.000000" />
<polyline points="851.08 , 677.67 955.67 , 677.67 955.67 , 625.38 851.08 , 625.38 851.08 , 677.67 " stroke-width="1px" stroke="#FFFFFF" fill="#000000" stroke-opacity="0.000000" fill-opacity="0.000000"/>
<rect x="851.08" y="625.38" width="104.60" height="52.30" stroke-width="2px" stroke="#000000" fill="#FFFFFF" stroke-opacity="1.000000" fill-opacity="0.000000" />
<polygon points="851.08 , 622.92 955.67 , 622.92 955.67 , 570.63 851.08 , 570.63 " stroke-width="1px" stroke="#FFFFFF" fill="#E41A1C" stroke-opacity="0.000000" fill-opacity="1.000000" />
<polyline points="851.08 , 622.92 955.67 , 622.92 955.67 , 570.63 851.08 , 570.63 851.08 , 622.92 " stroke-width="1px" stroke="#FFFFFF" fill="#000000" stroke-opacity="0.000000" fill-opacity="0.000000"/>
<rect x="851.08" y="570.63" width="104.60" height="52.30" stroke-width="2px" stroke="#000000" fill="#FFFFFF" stroke-opacity="1.000000" fill-opacity="0.000000" />
<polygon points="851.08 , 568.17 955.67 , 568.17 955.67 , 515.88 851.08 , 515.88 " stroke-width="1px" stroke="#FFFFFF" fill="#377EB8" stroke-opacity="0.000000" fill-opacity="1.000000" />
<polyline points="851.08 , 568.17 955.67 , 568.17 955.67 , 515.88 851.08 , 515.88 851.08 , 568.17 " stroke-width="1px" stroke="#FFFFFF" fill="#000000" stroke-opacity="0.000000" fill-opacity="0.000000"/>
<rect x="851.08" y="515.88" width="104.60" height="52.30" stroke-width="2px" stroke="#000000" fill="#FFFFFF" stroke-opacity="1.000000" fill-opacity="0.000000" />
<polygon points="851.08 , 513.42 955.67 , 513.42 955.67 , 461.13 851.08 , 461.13 " stroke-width="1px" stroke="#FFFFFF" fill="#4DAF4A" stroke-opacity="0.000000" fill-opacity="1.000000" />
<polyline points="851.08 , 513.42 955.67 , 513.42 955.67 , 461.13 851.08 , 461.13 851.08 , 513.42 " stroke-width="1px" stroke="#FFFFFF" fill="#000000" stroke-opacity="0.000000" fill-opacity="0.000000"/>
<rect x="851.08" y="461.13" width="104.60" height="52.30" stroke-width="2px" stroke="#000000" fill="#FFFFFF" stroke-opacity="1.000000" fill-opacity="0.000000" />
<polygon points="851.08 , 458.67 955.67 , 458.67 955.67 , 406.38 851.08 , 406.38 " stroke-width="1px" stroke="#FFFFFF" fill="#984EA3" stroke-opacity="0.000000" fill-opacity="1.000000" />
<polyline points="851.08 , 458.67 955.67 , 458.67 955.67 , 406.38 851.08 , 406.38 851.08 , 458.67 " stroke-width="1px" stroke="#FFFFFF" fill="#000000" stroke-opacity="0.000000" fill-opacity="0.000000"/>
<rect x="851.08" y="406.38" width="104.60" height="52.30" stroke-width="2px" stroke="#000000" fill="#FFFFFF" stroke-opacity="1.000000" fill-opacity="0.000000" />
<polygon points="851.08 , 403.92 955.67 , 403.92 955.67 , 351.63 851.08 , 351.63 " stroke-width="1px" stroke="#FFFFFF" fill="#E41A1C" stroke-opacity="0.000000" fill-opacity="1.000000" />
<polyline points="851.08 , 403.92 955.67 , 403.92 955.67 , 351.63 851.08 , 351.63 851.08 , 403.92 " stroke-width="1px" stroke="#FFFFFF" fill="#000000" stroke-opacity="0.000000" fill-opacity="0.000000"/>
<rect x="851.08" y="351.63" width="104.60" height="52.30" stroke-width="2px" stroke="#000000" fill="#FFFFFF" stroke-opacity="1.000000" fill-opacity="0.000000" />
<polygon points="851.08 , 349.17 955.67 , 349.17 955.67 , 296.88 851.08 , 296.88 " stroke-width="1px" stroke="#FFFFFF" fill="#377EB8" stroke-opacity="0.000000" fill-opacity="1.000000" />
<polyline points="851.08 , 349.17 955.67 , 349.17 955.67 , 296.88 851.08 , 296.88 851.08 , 349.17 " stroke-width="1px" stroke="#FFFFFF" fill="#000000" stroke-opacity="0.000000" fill-opacity="0.000000"/>
<rect x="851.08" y="296.88" width="104.60" height="52.30" stroke-width="2px" stroke="#000000" fill="#FFFFFF" stroke-opacity="1.000000" fill-opacity="0.000000" />
<polygon points="851.08 , 294.42 955.67 , 294.42 955.67 , 242.13 851.08 , 242.13 " stroke-width="1px" stroke="#FFFFFF" fill="#4DAF4A" stroke-opacity="0.000000" fill-opacity="1.000000" />
<polyline points="851.08 , 294.42 955.67 , 294.42 955.67 , 242.13 851.08 , 242.13 851.08 , 294.42 " stroke-width="1px" stroke="#FFFFFF" fill="#000000" stroke-opacity="0.000000" fill-opacity="0.000000"/>
<rect x="851.08" y="242.13" width="104.60" height="52.30" stroke-width="2px" stroke="#000000" fill="#FFFFFF" stroke-opacity="1.000000" fill-opacity="0.000000" />
<polygon points="851.08 , 239.67 955.67 , 239.67 955.67 , 187.38 851.08 , 187.38 " stroke-width="1px" stroke="#FFFFFF" fill="#984EA3" stroke-opacity="0.000000" fill-opacity="1.000000" />
<polyline points="851.08 , 239.67 955.67 , 239.67 955.67 , 187.38 851.08 , 187.38 851.08 , 239.67 " stroke-width="1px" stroke="#FFFFFF" fill="#000000" stroke-opacity="0.000000" fill-opacity="0.000000"/>
<rect x="851.08" y="187.38" width="104.60" height="52.30" stroke-width="2px" stroke="#000000" fill="#FFFFFF" stroke-opacity="1.000000" fill-opacity="0.000000" />
<polygon points="851.08 , 184.92 955.67 , 184.92 955.67 , 132.63 851.08 , 132.63 " stroke-width="1px" stroke="#FFFFFF" fill="#E41A1C" stroke-opacity="0.000000" fill-opacity="1.000000" />
<polyline points="851.08 , 184.92 955.67 , 184.92 955.67 , 132.63 851.08 , 132.63 851.08 , 184.92 " stroke-width="1px" stroke="#FFFFFF" fill="#000000" stroke-opacity="0.000000" fill-opacity="0.000000"/>
<rect x="851.08" y="132.63" width="104.60" height="52.30" stroke-width="2px" stroke="#000000" fill="#FFFFFF" stroke-opacity="1.000000" fill-opacity="0.000000" />
<polygon points="851.08 , 130.17 955.67 , 130.17 955.67 , 77.88 851.08 , 77.88 " stroke-width="1px" stroke="#FFFFFF" fill="#377EB8" stroke-opacity="0.000000" fill-opacity="1.000000" />
<polyline points="851.08 , 130.17 955.67 , 130.17 955.67 , 77.88 851.08 , 77.88 851.08 , 130.17 " stroke-width="1px" stroke="#FFFFFF" fill="#000000" stroke-opacity="0.000000" fill-opacity="0.000000"/>
<rect x="851.08" y="77.88" width="104.60" height="52.30" stroke-width="2px" stroke="#000000" fill="#FFFFFF" stroke-opacity="1.000000" fill-opacity="0.000000" />
<polygon points="851.08 , 75.42 955.67 , 75.42 955.67 , 23.13 851.08 , 23.13 " stroke-width="1px" stroke="#FFFFFF" fill="#4DAF4A" stroke-opacity="0.000000" fill-opacity="1.000000" />
<polyline points="851.08 , 75.42 955.67 , 75.42 955.67 , 23.13 851.08 , 23.13 851.08 , 75.42 " stroke-width="1px" stroke="#FFFFFF" fill="#000000" stroke-opacity="0.000000" fill-opacity="0.000000"/>
<rect x="851.08" y="23.13" width="104.60" height="52.30" stroke-width="2px" stroke="#000000" fill="#FFFFFF" stroke-opacity="1.000000" fill-opacity="0.000000" />
<polygon points="542.02 , 894.90 543.52 , 894.94 545.00 , 895.09 546.48 , 895.32 547.94 , 895.65 549.37 , 896.07 550.77 , 896.58 552.14 , 897.18 553.47 , 897.87 554.75 , 898.63 555.98 , 899.48 557.15 , 900.40 558.27 , 901.40 559.31 , 902.46 560.29 , 903.59 561.20 , 904.78 562.02 , 906.02 562.77 , 907.32 563.43 , 908.65 564.01 , 910.03 564.50 , 911.44 564.90 , 912.88 565.20 , 914.34 565.41 , 915.82 565.53 , 917.31 565.56 , 918.80 565.49 , 920.30 565.32 , 921.78 565.06 , 923.25 564.71 , 924.70 564.27 , 926.13 563.73 , 927.52 563.11 , 928.88 562.41 , 930.20 561.62 , 931.47 560.75 , 932.68 559.81 , 933.84 558.80 , 934.94 557.72 , 935.97 556.57 , 936.93 555.37 , 937.82 554.11 , 938.62 552.81 , 939.35 551.46 , 939.99 550.07 , 940.55 548.66 , 941.01 547.21 , 941.39 545.74 , 941.67 544.26 , 941.86 542.77 , 941.95 541.28 , 941.95 539.79 , 941.86 538.31 , 941.67 536.84 , 941.39 535.39 , 941.01 533.98 , 940.55 532.59 , 939.99 531.24 , 939.35 529.94 , 938.62 528.68 , 937.82 527.48 , 936.93 526.33 , 935.97 525.25 , 934.94 524.24 , 933.84 523.30 , 932.68 522.43 , 931.47 521.64 , 930.20 520.94 , 928.88 520.32 , 927.52 519.78 , 926.13 519.34 , 924.70 518.99 , 923.25 518.73 , 921.78 518.56 , 920.30 518.49 , 918.80 518.52 , 917.31 518.64 , 915.82 518.85 , 914.34 519.15 , 912.88 519.55 , 911.44 520.04 , 910.03 520.62 , 908.65 521.28 , 907.32 522.03 , 906.02 522.85 , 904.78 523.76 , 903.59 524.74 , 902.46 525.78 , 901.40 526.90 , 900.40 528.07 , 899.48 529.30 , 898.63 530.58 , 897.87 531.91 , 897.18 533.28 , 896.58 534.68 , 896.07 536.11 , 895.65 537.57 , 895.32 539.05 , 895.09 540.53 , 894.94 542.02 , 894.90 " stroke-width="2px" stroke="#FFFFFF" fill="#E41A1C" stroke-opacity="0.000000" fill-opacity="1.000000" />
<polyline points="542.02 , 894.90 543.52 , 894.94 545.00 , 895.09 546.48 , 895.32 547.94 , 895.65 549.37 , 896.07 550.77 , 896.58 552.14 , 897.18 553.47 , 897.87 554.75 , 898.63 555.98 , 899.48 557.15 , 900.40 558.27 , 901.40 559.31 , 902.46 560.29 , 903.59 561.20 , 904.78 562.02 , 906.02 562.77 , 907.32 563.43 , 908.65 564.01 , 910.03 564.50 , 911.44 564.90 , 912.88 565.20 , 914.34 565.41 , 915.82 565.53 , 917.31 565.56 , 918.80 565.49 , 920.30 565.32 , 921.78 565.06 , 923.25 564.71 , 924.70 564.27 , 926.13 563.73 , 927.52 563.11 , 928.88 562.41 , 930.20 561.62 , 931.47 560.75 , 932.68 559.81 , 933.84 558.80 , 934.94 557.72 , 935.97 556.57 , 936.93 555.37 , 937.82 554.11 , 938.62 552.81 , 939.35 551.46 , 939.99 550.07 , 940.55 548.66 , 941.01 547.21 , 941.39 545.74 , 941.67 544.26 , 941.86 542.77 , 941.95 541.28 , 941.95 539.79 , 941.86 538.31 , 941.67 536.84 , 941.39 535.39 , 941.01 533.98 , 940.55 532.59 , 939.99 531.24 , 939.35 529.94 , 938.62 528.68 , 937.82 527.48 , 936.93 526.33 , 935.97 525.25 , 934.94 524.24 , 933.84 523.30 , 932.68 522.43 , 931.47 521.64 , 930.20 520.94 , 928.88 520.32 , 927.52 519.78 , 926.13 519.34 , 924.70 518.99 , 923.25 518.73 , 921.78 518.56 , 920.30 518.49 , 918.80 518.52 , 917.31 518.64 , 915.82 518.85 , 914.34 519.15 , 912.88 519.55 , 911.44 520.04 , 910.03 520.62 , 908.65 521.28 , 907.32 522.03 , 906.02 522.85 , 904.78 523.76 , 903.59 524.74 , 902.46 525.78 , 901.40 526.90 , 900.40 528.07 , 899.48 529.30 , 898.63 530.58 , 897.87 531.91 , 897.18 533.28 , 896.58 534.68 , 896.07 536.11 , 895.65 537.57 , 895.32 539.05 , 895.09 540.53 , 894.94 542.02 , 894.90 542.02 , 894.90 " stroke-width="2px" stroke="#000000" fill="#000000" stroke-opacity="1.000000" fill-opacity="0.000000"/>
<polygon points="542.02 , 621.15 543.52 , 621.19 545.00 , 621.34 546.48 , 621.57 547.94 , 621.90 549.37 , 622.32 550.77 , 622.83 552.14 , 623.43 553.47 , 624.12 554.75 , 624.88 555.98 , 625.73 557.15 , 626.65 558.27 , 627.65 559.31 , 628.71 560.29 , 629.84 561.20 , 631.03 562.02 , 632.27 562.77 , 633.57 563.43 , 634.90 564.01 , 636.28 564.50 , 637.69 564.90 , 639.13 565.20 , 640.59 565.41 , 642.07 565.53 , 643.56 565.56 , 645.05 565.49 , 646.55 565.32 , 648.03 565.06 , 649.50 564.71 , 650.95 564.27 , 652.38 563.73 , 653.77 563.11 , 655.13 562.41 , 656.45 561.62 , 657.72 560.75 , 658.93 559.81 , 660.09 558.80 , 661.19 557.72 , 662.22 556.57 , 663.18 555.37 , 664.07 554.11 , 664.87 552.81 , 665.60 551.46 , 666.24 550.07 , 666.80 548.66 , 667.26 547.21 , 667.64 545.74 , 667.92 544.26 , 668.11 542.77 , 668.20 541.28 , 668.20 539.79 , 668.11 538.31 , 667.92 536.84 , 667.64 535.39 , 667.26 533.98 , 666.80 532.59 , 666.24 531.24 , 665.60 529.94 , 664.87 528.68 , 664.07 527.48 , 663.18 526.33 , 662.22 525.25 , 661.19 524.24 , 660.09 523.30 , 658.93 522.43 , 657.72 521.64 , 656.45 520.94 , 655.13 520.32 , 653.77 519.78 , 652.38 519.34 , 650.95 518.99 , 649.50 518.73 , 648.03 518.56 , 646.55 518.49 , 645.05 518.52 , 643.56 518.64 , 642.07 518.85 , 640.59 519.15 , 639.13 519.55 , 637.69 520.04 , 636.28 520.62 , 634.90 521.28 , 633.57 522.03 , 632.27 522.85 , 631.03 523.76 , 629.84 524.74 , 628.71 525.78 , 627.65 526.90 , 626.65 528.07 , 625.73 529.30 , 624.88 530.58 , 624.12 531.91 , 623.43 533.28 , 622.83 534.68 , 622.32 536.11 , 621.90 537.57 , 621.57 539.05 , 621.34 540.53 , 621.19 542.02 , 621.15 " stroke-width="2px" stroke="#FFFFFF" fill="#377EB8" stroke-opacity="0.000000" fill-opacity="1.000000" />
<polyline points="542.02 , 621.15 543.52 , 621.19 545.00 , 621.34 546.48 , 621.57 547.94 , 621.90 549.37 , 622.32 550.77 , 622.83 552.14 , 623.43 553.47 , 624.12 554.75 , 624.88 555.98 , 625.73 557.15 , 626.65 558.27 , 627.65 559.31 , 628.71 560.29 , 629.84 561.20 , 631.03 562.02 , 632.27 562.77 , 633.57 563.43 , 634.90 564.01 , 636.28 564.50 , 637.69 564.90 , 639.13 565.20 , 640.59 565.41 , 642.07 565.53 , 643.56 565.56 , 645.05 565.49 , 646.55 565.32 , 648.03 565.06 , 649.50 564.71 , 650.95 564.27 , 652.38 563.73 , 653.77 563.11 , 655.13 562.41 , 656.45 561.62 , 657.72 560.75 , 658.93 559.81 , 660.09 558.80 , 661.19 557.72 , 662.22 556.57 , 663.18 555.37 , 664.07 554.11 , 664.87 552.81 , 665.60 551.46 , 666.24 550.07 , 666.80 548.66 , 667.26 547.21 , 667.64 545.74 , 667.92 544.26 , 668.11 542.77 , 668.20 541.28 , 668.20 539.79 , 668.11 538.31 , 667.92 536.84 , 667.64 535.39 , 667.26 533.98 , 666.80 532.59 , 666.24 531.24 , 665.60 529.94 , 664.87 528.68 , 664.07 527.48 , 663.18 526.33 , 662.22 525.25 , 661.19 524.24 , 660.09 523.30 , 658.93 522.43 , 657.72 521.64 , 656.45 520.94 , 655.13 520.32 , 653.77 519.78 , 652.38 519.34 , 650.95 518.99 , 649.50 518.73 , 648.03 518.56 , 646.55 518.49 , 645.05 518.52 , 643.56 518.64 , 642.07 518.85 , 640.59 519.15 , 639.13 519.55 , 637.69 520.04 , 636.28 520.62 , 634.90 521.28 , 633.57 522.03 , 632.27 522.85 , 631.03 523.76 , 629.84 524.74 , 628.71 525.78 , 627.65 526.90 , 626.65 528.07 , 625.73 529.30 , 624.88 530.58 , 624.12 531.91 , 623.43 533.28 , 622.83 534.68 , 622.32 536.11 , 621.90 537.57 , 621.57 539.05 , 621.34 540.53 , 621.19 542.02 , 621.15 542.02 , 621.15 " stroke-width="2px" stroke="#000000" fill="#000000" stroke-opacity="1.000000" fill-opacity="0.000000"/>
<polygon points="542.02 , 402.15 543.52 , 402.19 545.00 , 402.34 546.48 , 402.57 547.94 , 402.90 549.37 , 403.32 550.77 , 403.83 552.14 , 404.43 553.47 , 405.12 554.75 , 405.88 555.98 , 406.73 557.15 , 407.65 558.27 , 408.65 559.31 , 409.71 560.29 , 410.84 561.20 , 412.03 562.02 , 413.27 562.77 , 414.57 563.43 , 415.90 564.01 , 417.28 564.50 , 418.69 564.90 , 420.13 565.20 , 421.59 565.41 , 423.07 565.53 , 424.56 565.56 , 426.05 565.49 , 427.55 565.32 , 429.03 565.06 , 430.50 564.71 , 431.95 564.27 , 433.38 563.73 , 434.77 563.11 , 436.13 562.41 , 437.45 561.62 , 438.72 560.75 , 439.93 559.81 , 441.09 558.80 , 442.19 557.72 , 443.22 556.57 , 444.18 555.37 , 445.07 554.11 , 445.87 552.81 , 446.60 551.46 , 447.24 550.07 , 447.80 548.66 , 448.26 547.21 , 448.64 545.74 , 448.92 544.26 , 449.11 542.77 , 449.20 541.28 , 449.20 539.79 , 449.11 538.31 , 448.92 536.84 , 448.64 535.39 , 448.26 533.98 , 447.80 532.59 , 447.24 531.24 , 446.60 529.94 , 445.87 528.68 , 445.07 527.48 , 444.18 526.33 , 443.22 525.25 , 442.19 524.24 , 441.09 523.30 , 439.93 522.43 , 438.72 521.64 , 437.45 520.94 , 436.13 520.32 , 434.77 519.78 , 433.38 519.34 , 431.95 518.99 , 430.50 518.73 , 429.03 518.56 , 427.55 518.49 , 426.05 518.52 , 424.56 518.64 , 423.07 518.85 , 421.59 519.15 , 420.13 519.55 , 418.69 520.04 , 417.28 520.62 , 415.90 521.28 , 414.57 522.03 , 413.27 522.85 , 412.03 523.76 , 410.84 524.74 , 409.71 525.78 , 408.65 526.90 , 407.65 528.07 , 406.73 529.30 , 405.88 530.58 , 405.12 531.91 , 404.43 533.28 , 403.83 534.68 , 403.32 536.11 , 402.90 537.57 , 402.57 539.05 , 402.34 540.53 , 402.19 542.02 , 402.15 " stroke-width="2px" stroke="#FFFFFF" fill="#4DAF4A" stroke-opacity="0.000000" fill-opacity="1.000000" />
<polyline points="542.02 , 402.15 543.52 , 402.19 545.00 , 402.34 546.48 , 402.57 547.94 , 402.90 549.37 , 403.32 550.77 , 403.83 552.14 , 404.43 553.47 , 405.12 554.75 , 405.88 555.98 , 406.73 557.15 , 407.65 558.27 , 408.65 559.31 , 409.71 560.29 , 410.84 561.20 , 412.03 562.02 , 413.27 562.77 , 414.57 563.43 , 415.90 564.01 , 417.28 564.50 , 418.69 564.90 , 420.13 565.20 , 421.59 565.41 , 423.07 565.53 , 424.56 565.56 , 426.05 565.49 , 427.55 565.32 , 429.03 565.06 , 430.50 564.71 , 431.95 564.27 , 433.38 563.73 , 434.77 563.11 , 436.13 562.41 , 437.45 561.62 , 438.72 560.75 , 439.93 559.81 , 441.09 558.80 , 442.19 557.72 , 443.22 556.57 , 444.18 555.37 , 445.07 554.11 , 445.87 552.81 , 446.60 551.46 , 447.24 550.07 , 447.80 548.66 , 448.26 547.21 , 448.64 545.74 , 448.92 544.26 , 449.11 542.77 , 449.20 541.28 , 449.20 539.79 , 449.11 538.31 , 448.92 536.84 , 448.64 535.39 , 448.26 533.98 , 447.80 532.59 , 447.24 531.24 , 446.60 529.94 , 445.87 528.68 , 445.07 527.48 , 444.18 526.33 , 443.22 525.25 , 442.19 524.24 , 441.09 523.30 , 439.93 522.43 , 438.72 521.64 , 437.45 520.94 , 436.13 520.32 , 434.77 519.78 , 433.38 519.34 , 431.95 518.99 , 430.50 518.73 , 429.03 518.56 , 427.55 518.49 , 426.05 518.52 , 424.56 518.64 , 423.07 518.85 , 421.59 519.15 , 420.13 519.55 , 418.69 520.04 , 417.28 520.62 , 415.90 521.28 , 414.57 522.03 , 413.27 522.85 , 412.03 523.76 , 410.84 524.74 , 409.71 525.78 , 408.65 526.90 , 407.65 528.07 , 406.73 529.30 , 405.88 530.58 , 405.12 531.91 , 404.43 533.28 , 403.83 534.68 , 403.32 536.11 , 402.90 537.57 , 402.57 539.05 , 402.34 540.53 , 402.19 542.02 , 402.15 542.02 , 402.15 " stroke-width="2px" stroke="#000000" fill="#000000" stroke-opacity="1.000000" fill-opacity="0.000000"/>
<polygon points="542.02 , 155.77 543.52 , 155.82 545.00 , 155.96 546.48 , 156.20 547.94 , 156.53 549.37 , 156.95 550.77 , 157.46 552.14 , 158.06 553.47 , 158.74 554.75 , 159.51 555.98 , 160.35 557.15 , 161.28 558.27 , 162.27 559.31 , 163.34 560.29 , 164.47 561.20 , 165.65 562.02 , 166.90 562.77 , 168.19 563.43 , 169.53 564.01 , 170.91 564.50 , 172.32 564.90 , 173.76 565.20 , 175.22 565.41 , 176.70 565.53 , 178.19 565.56 , 179.68 565.49 , 181.17 565.32 , 182.66 565.06 , 184.13 564.71 , 185.58 564.27 , 187.00 563.73 , 188.40 563.11 , 189.76 562.41 , 191.07 561.62 , 192.34 560.75 , 193.56 559.81 , 194.72 558.80 , 195.82 557.72 , 196.85 556.57 , 197.81 555.37 , 198.69 554.11 , 199.50 552.81 , 200.22 551.46 , 200.87 550.07 , 201.42 548.66 , 201.89 547.21 , 202.26 545.74 , 202.55 544.26 , 202.73 542.77 , 202.83 541.28 , 202.83 539.79 , 202.73 538.31 , 202.55 536.84 , 202.26 535.39 , 201.89 533.98 , 201.42 532.59 , 200.87 531.24 , 200.22 529.94 , 199.50 528.68 , 198.69 527.48 , 197.81 526.33 , 196.85 525.25 , 195.82 524.24 , 194.72 523.30 , 193.56 522.43 , 192.34 521.64 , 191.07 520.94 , 189.76 520.32 , 188.40 519.78 , 187.00 519.34 , 185.58 518.99 , 184.13 518.73 , 182.66 518.56 , 181.17 518.49 , 179.68 518.52 , 178.19 518.64 , 176.70 518.85 , 175.22 519.15 , 173.76 519.55 , 172.32 520.04 , 170.91 520.62 , 169.53 521.28 , 168.19 522.03 , 166.90 522.85 , 165.65 523.76 , 164.47 524.74 , 163.34 525.78 , 162.27 526.90 , 161.28 528.07 , 160.35 529.30 , 159.51 530.58 , 158.74 531.91 , 158.06 533.28 , 157.46 534.68 , 156.95 536.11 , 156.53 537.57 , 156.20 539.05 , 155.96 540.53 , 155.82 542.02 , 155.77 " stroke-width="2px" stroke="#FFFFFF" fill="#984EA3" stroke-opacity="0.000000" fill-opacity="1.000000" />
<polyline points="542.02 , 155.77 543.52 , 155.82 545.00 , 155.96 546.48 , 156.20 547.94 , 156.53 549.37 , 156.95 550.77 , 157.46 552.14 , 158.06 553.47 , 158.74 554.75 , 159.51 555.98 , 160.35 557.15 , 161.28 558.27 , 162.27 559.31 , 163.34 560.29 , 164.47 561.20 , 165.65 562.02 , 166.90 562.77 , 168.19 563.43 , 169.53 564.01 , 170.91 564.50 , 172.32 564.90 , 173.76 565.20 , 175.22 565.41 , 176.70 565.53 , 178.19 565.56 , 179.68 565.49 , 181.17 565.32 , 182.66 565.06 , 184.13 564.71 , 185.58 564.27 , 187.00 563.73 , 188.40 563.11 , 189.76 562.41 , 191.07 561.62 , 192.34 560.75 , 193.56 559.81 , 194.72 558.80 , 195.82 557.72 , 196.85 556.57 , 197.81 555.37 , 198.69 554.11 , 199.50 552.81 , 200.22 551.46 , 200.87 550.07 , 201.42 548.66 , 201.89 547.21 , 202.26 545.74 , 202.55 544.26 , 202.73 542.77 , 202.83 541.28 , 202.83 539.79 , 202.73 538.31 , 202.55 536.84 , 202.26 535.39 , 201.89 533.98 , 201.42 532.59 , 200.87 531.24 , 200.22 529.94 , 199.50 528.68 , 198.69 527.48 , 197.81 526.33 , 196.85 525.25 , 195.82 524.24 , 194.72 523.30 , 193.56 522.43 , 192.34 521.64 , 191.07 520.94 , 189.76 520.32 , 188.40 519.78 , 187.00 519.34 , 185.58 518.99 , 184.13 518.73 , 182.66 518.56 , 181.17 518.49 , 179.68 518.52 , 178.19 518.64 , 176.70 518.85 , 175.22 519.15 , 173.76 519.55 , 172.32 520.04 , 170.91 520.62 , 169.53 521.28 , 168.19 522.03 , 166.90 522.85 , 165.65 523.76 , 164.47 524.74 , 163.34 525.78 , 162.27 526.90 , 161.28 528.07 , 160.35 529.30 , 159.51 530.58 , 158.74 531.91 , 158.06 533.28 , 157.46 534.68 , 156.95 536.11 , 156.53 537.57 , 156.20 539.05 , 155.96 540.53 , 155.82 542.02 , 155.77 542.02 , 155.77 " stroke-width="2px" stroke="#000000" fill="#000000" stroke-opacity="1.000000" fill-opacity="0.000000"/>
<polygon points="154.53 , 658.06 206.82 , 658.06 206.82 , 644.99 154.53 , 644.99 " stroke-width="1px" stroke="#FFFFFF" fill="#984EA3" stroke-opacity="0.000000" fill-opacity="1.000000" />
<polyline points="154.53 , 658.06 206.82 , 658.06 206.82 , 644.99 154.53 , 644.99 154.53 , 658.06 " stroke-width="1px" stroke="#FFFFFF" fill="#000000" stroke-opacity="0.000000" fill-opacity="0.000000"/>
<rect x="154.53" y="644.99" width="52.30" height="13.07" stroke-width="2px" stroke="#000000" fill="#FFFFFF" stroke-opacity="1.000000" fill-opacity="0.000000" />
<polygon points="154.53 , 603.31 206.82 , 603.31 206.82 , 590.24 154.53 , 590.24 " stroke-width="1px" stroke="#FFFFFF" fill="#E41A1C" stroke-opacity="0.000000" fill-opacity="1.000000" />
<polyline points="154.53 , 603.31 206.82 , 603.31 206.82 , 590.24 154.53 , 590.24 154.53 , 603.31 " stroke-width="1px" stroke="#FFFFFF" fill="#000000" stroke-opacity="0.000000" fill-opacity="0.000000"/>
<rect x="154.53" y="590.24" width="52.30" height="13.07" stroke-width="2px" stroke="#000000" fill="#FFFFFF" stroke-opacity="1.000000" fill-opacity="0.000000" />
<polygon points="154.53 , 548.56 206.82 , 548.56 206.82 , 535.49 154.53 , 535.49 " stroke-width="1px" stroke="#FFFFFF" fill="#377EB8" stroke-opacity="0.000000" fill-opacity="1.000000" />
<polyline points="154.53 , 548.56 206.82 , 548.56 206.82 , 535.49 154.53 , 535.49 154.53 , 548.56 " stroke-width="1px" stroke="#FFFFFF" fill="#000000" stroke-opacity="0.000000" fill-opacity="0.000000"/>
<rect x="154.53" y="535.49" width="52.30" height="13.07" stroke-width="2px" stroke="#000000" fill="#FFFFFF" stroke-opacity="1.000000" fill-opacity="0.000000" />
<polygon points="154.53 , 493.81 206.82 , 493.81 206.82 , 480.74 154.53 , 480.74 " stroke-width="1px" stroke="#FFFFFF" fill="#4DAF4A" stroke-opacity="0.000000" fill-opacity="1.000000" />
<polyline points="154.53 , 493.81 206.82 , 493.81 206.82 , 480.74 154.53 , 480.74 154.53 , 493.81 " stroke-width="1px" stroke="#FFFFFF" fill="#000000" stroke-opacity="0.000000" fill-opacity="0.000000"/>
<rect x="154.53" y="480.74" width="52.30" height="13.07" stroke-width="2px" stroke="#000000" fill="#FFFFFF" stroke-opacity="1.000000" fill-opacity="0.000000" />
<polygon points="154.53 , 439.06 206.82 , 439.06 206.82 , 425.99 154.53 , 425.99 " stroke-width="1px" stroke="#FFFFFF" fill="#984EA3" stroke-opacity="0.000000" fill-opacity="1.000000" />
<polyline points="154.53 , 439.06 206.82 , 439.06 206.82 , 425.99 154.53 , 425.99 154.53 , 439.06 " stroke-width="1px" stroke="#FFFFFF" fill="#000000" stroke-opacity="0.000000" fill-opacity="0.000000"/>
<rect x="154.53" y="425.99" width="52.30" height="13.07" stroke-width="2px" stroke="#000000" fill="#FFFFFF" stroke-opacity="1.000000" fill-opacity="0.000000" />
<text transform="translate(864.97,1030.26) " fill="#000000"  style="font-size:4pt" >A&#160;direção&#160;da&#160;unidade&#160;prisional</text>
<text transform="translate(871.96,1034.77) " fill="#000000"  style="font-size:4pt" >tem&#160;menos&#160;poder&#160;sobre&#160;os</text>
<text transform="translate(865.54,1039.29) " fill="#000000"  style="font-size:4pt" >presos&#160;do&#160;que&#160;a&#160;coordenação</text>
<text transform="translate(868.33,1043.80) " fill="#000000"  style="font-size:4pt" >regional&#160;e&#160;o&#160;gabinete&#160;da&#160;SAP.</text>
<text transform="translate(871.42,975.19) " fill="#000000"  style="font-size:4pt" >A&#160;perda&#160;do&#160;cargo&#160;de&#160;diretor</text>
<text transform="translate(870.75,980.02) " fill="#000000"  style="font-size:4pt" >geralmente&#160;se&#160;dá&#160;mais&#160;por</text>
<text transform="translate(867.49,984.86) " fill="#000000"  style="font-size:4pt" >razões&#160;políticas&#160;do&#160;que&#160;por</text>
<text transform="translate(868.87,989.69) " fill="#000000"  style="font-size:4pt" >falta&#160;de&#160;capacidade&#160;técnica.</text>
<text transform="translate(867.42,920.84) " fill="#000000"  style="font-size:4pt" >Muitos&#160;aspectos&#160;da&#160;dinâmica</text>
<text transform="translate(865.98,925.27) " fill="#000000"  style="font-size:4pt" >da&#160;unidade&#160;são&#160;decididos&#160;pela</text>
<text transform="translate(864.26,929.71) " fill="#000000"  style="font-size:4pt" >Coordenação&#160;Regional&#160;ou&#160;pelo</text>
<text transform="translate(882.78,934.14) " fill="#000000"  style="font-size:4pt" >gabinete&#160;da&#160;SAP.</text>
<text transform="translate(868.36,865.72) " fill="#000000"  style="font-size:4pt" >O&#160;cargo&#160;de&#160;diretor&#160;deveria&#160;ser</text>
<text transform="translate(867.32,870.52) " fill="#000000"  style="font-size:4pt" >ocupado&#160;por&#160;meio&#160;de&#160;concurso</text>
<text transform="translate(871.12,875.33) " fill="#000000"  style="font-size:4pt" >público&#160;interno&#160;e&#160;não&#160;por</text>
<text transform="translate(888.29,880.14) " fill="#000000"  style="font-size:4pt" >indicação.</text>
<text transform="translate(865.99,813.23) " fill="#000000"  style="font-size:5pt" >O&#160;diretor&#160;deveria&#160;ter&#160;mais</text>
<text transform="translate(860.79,818.32) " fill="#000000"  style="font-size:5pt" >autonomia&#160;para&#160;administrar&#160;a</text>
<text transform="translate(890.98,823.41) " fill="#000000"  style="font-size:5pt" >prisão.</text>
<text transform="translate(865.27,758.75) " fill="#000000"  style="font-size:4pt" >Conversar&#160;com&#160;presos&#160;é&#160;inútil</text>
<text transform="translate(865.47,763.30) " fill="#000000"  style="font-size:4pt" >para&#160;fazê-los&#160;repensarem&#160;suas</text>
<text transform="translate(893.19,767.85) " fill="#000000"  style="font-size:4pt" >atitudes.</text>
<text transform="translate(865.61,706.27) " fill="#000000"  style="font-size:4pt" >É&#160;importante&#160;ganhar&#160;o&#160;respeito</text>
<text transform="translate(889.57,710.87) " fill="#000000"  style="font-size:4pt" >dos&#160;presos.</text>
<text transform="translate(868.39,648.89) " fill="#000000"  style="font-size:5pt" >É&#160;mais&#160;fácil&#160;trabalhar</text>
<text transform="translate(863.47,654.16) " fill="#000000"  style="font-size:5pt" >na&#160;administração&#160;do&#160;que</text>
<text transform="translate(862.30,659.44) " fill="#000000"  style="font-size:5pt" >diretamente&#160;com&#160;os&#160;presos.</text>
<text transform="translate(863.85,596.78) " fill="#000000"  style="font-size:5pt" >Não&#160;dá&#160;para&#160;confiar&#160;nos</text>
<text transform="translate(892.45,602.26) " fill="#000000"  style="font-size:5pt" >presos.</text>
<text transform="translate(861.71,539.42) " fill="#000000"  style="font-size:5pt" >O&#160;contato&#160;pessoal&#160;do&#160;diretor</text>
<text transform="translate(867.88,544.63) " fill="#000000"  style="font-size:5pt" >com&#160;os&#160;presos&#160;deve&#160;ser</text>
<text transform="translate(891.70,549.83) " fill="#000000"  style="font-size:5pt" >evitado.</text>
<text transform="translate(867.73,482.54) " fill="#000000"  style="font-size:4pt" >A&#160;disciplina&#160;é&#160;a&#160;melhor&#160;forma</text>
<text transform="translate(866.78,487.27) " fill="#000000"  style="font-size:4pt" >de&#160;fazer&#160;os&#160;presos&#160;respeitarem</text>
<text transform="translate(874.34,492.01) " fill="#000000"  style="font-size:4pt" >as&#160;ordens&#160;dos&#160;agentes&#160;e</text>
<text transform="translate(892.35,496.75) " fill="#000000"  style="font-size:4pt" >diretores.</text>
<text transform="translate(860.83,427.43) " fill="#000000"  style="font-size:5pt" >Os&#160;presos&#160;deveriam&#160;ter&#160;mais</text>
<text transform="translate(864.52,432.52) " fill="#000000"  style="font-size:5pt" >respeito&#160;à&#160;autoridade&#160;dos</text>
<text transform="translate(868.81,437.62) " fill="#000000"  style="font-size:5pt" >diretores&#160;e&#160;dos&#160;agentes</text>
<text transform="translate(880.32,442.71) " fill="#000000"  style="font-size:5pt" >penitenciários.</text>
<text transform="translate(862.92,375.63) " fill="#000000"  style="font-size:4pt" >Uma&#160;conversa&#160;com&#160;os&#160;presos&#160;dá</text>
<text transform="translate(868.90,379.92) " fill="#000000"  style="font-size:4pt" >mais&#160;resultado&#160;do&#160;que&#160;aplicar</text>
<text transform="translate(872.50,384.20) " fill="#000000"  style="font-size:4pt" >uma&#160;sanção&#160;disciplinar.</text>
<text transform="translate(863.36,323.02) " fill="#000000"  style="font-size:4pt" >A&#160;ressocialização&#160;de&#160;presos&#160;é</text>
<text transform="translate(887.58,327.36) " fill="#000000"  style="font-size:4pt" >uma&#160;falácia.</text>
<text transform="translate(864.26,268.27) " fill="#000000"  style="font-size:4pt" >A&#160;vida&#160;na&#160;prisão&#160;é&#160;muito&#160;fácil</text>
<text transform="translate(885.06,272.71) " fill="#000000"  style="font-size:4pt" >para&#160;os&#160;presos.</text>
<text transform="translate(868.63,211.22) " fill="#000000"  style="font-size:4pt" >Melhorar&#160;as&#160;condições&#160;das</text>
<text transform="translate(865.81,215.83) " fill="#000000"  style="font-size:4pt" >prisões&#160;torna&#160;os&#160;presos&#160;piores</text>
<text transform="translate(883.65,220.45) " fill="#000000"  style="font-size:4pt" >para&#160;os&#160;agentes.</text>
<text transform="translate(862.58,150.27) " fill="#000000"  style="font-size:4pt" >Nós&#160;deveríamos&#160;parar&#160;de&#160;tratar</text>
<text transform="translate(867.96,154.52) " fill="#000000"  style="font-size:4pt" >os&#160;presos&#160;como&#160;vítimas&#160;que</text>
<text transform="translate(869.00,158.78) " fill="#000000"  style="font-size:4pt" >merecem&#160;ser&#160;ressocializadas</text>
<text transform="translate(867.09,163.03) " fill="#000000"  style="font-size:4pt" >e&#160;fazê-los&#160;pagar&#160;pelos&#160;crimes</text>
<text transform="translate(868.87,167.28) " fill="#000000"  style="font-size:4pt" >que&#160;cometeram&#160;contra&#160;outras</text>
<text transform="translate(892.66,171.53) " fill="#000000"  style="font-size:4pt" >pessoas.</text>
<text transform="translate(872.29,94.63) " fill="#000000"  style="font-size:4pt" >O&#160;trabalho&#160;do&#160;diretor&#160;não</text>
<text transform="translate(869.51,99.33) " fill="#000000"  style="font-size:4pt" >é&#160;ressocializar&#160;presos,&#160;mas</text>
<text transform="translate(870.28,104.03) " fill="#000000"  style="font-size:4pt" >sim&#160;manter&#160;a&#160;ordem&#160;e&#160;evitar</text>
<text transform="translate(870.14,108.72) " fill="#000000"  style="font-size:4pt" >que&#160;eles&#160;fujam&#160;ou&#160;pratiquem</text>
<text transform="translate(866.45,113.42) " fill="#000000"  style="font-size:4pt" >violência&#160;contra&#160;outros&#160;presos</text>
<text transform="translate(871.12,118.11) " fill="#000000"  style="font-size:4pt" >ou&#160;agentes&#160;penitenciários.</text>
<text transform="translate(865.47,51.56) " fill="#000000"  style="font-size:4pt" >Os&#160;presos&#160;têm&#160;muitos&#160;direitos.</text>
<text transform="translate(166.61,656.53) " fill="#000000"  style="font-size:9pt" >idade</text>
<text transform="translate(167.97,601.78) " fill="#000000"  style="font-size:9pt" >sexo</text>
<text transform="translate(159.45,545.60) " fill="#000000"  style="font-size:7pt" >seguranca</text>
<text transform="translate(159.71,491.41) " fill="#000000"  style="font-size:8pt" >unidades</text>
<text transform="translate(164.35,437.53) " fill="#000000"  style="font-size:9pt" >tempo</text>
<text transform="translate(524.79,921.83) " fill="#000000"  style="font-size:6pt" >autonomo</text>
<text transform="translate(524.28,649.08) " fill="#000000"  style="font-size:8pt" >dialogal</text>
<text transform="translate(524.44,429.01) " fill="#000000"  style="font-size:6pt" >disciplinar</text>
<text transform="translate(523.81,183.59) " fill="#000000"  style="font-size:8pt" >punitivo</text>
<g id='ToolTip' opacity='1' visibility='hidden' pointer-events='none'>
   <rect id='tipbox' x='0' y='5' width='88' height='20' rx='2' ry='2' fill='white' stroke='black'/>
   <text id='tipText' x='5' y='20' font-family='Arial' font-size='10pt' fill='blue'>
      <tspan id='tipTitle' x='5' font-weight='bold' fill='black'><![CDATA[]]></tspan>
      <tspan id='tipDesc1' x='5' dy='13'><![CDATA[]]></tspan>
   </text>
</g>
</svg>
