<?xml version="1.0" encoding="UTF-8" standalone="no"?>
<svg
   xmlns:dc="http://purl.org/dc/elements/1.1/"
   xmlns:cc="http://creativecommons.org/ns#"
   xmlns:rdf="http://www.w3.org/1999/02/22-rdf-syntax-ns#"
   xmlns:svg="http://www.w3.org/2000/svg"
   xmlns="http://www.w3.org/2000/svg"
   xmlns:sodipodi="http://sodipodi.sourceforge.net/DTD/sodipodi-0.dtd"
   xmlns:inkscape="http://www.inkscape.org/namespaces/inkscape"
   version="1.1"
   width="1517.67"
   height="1445.40"
   viewBox="0 0 1517.67 1445.40"
   font-family="Arial, Helvetica, sans-serif"
   onload="Init(evt)"
   id="svg2"
   inkscape:version="0.91 r13725"
   sodipodi:docname="grafico3.svg">
  <metadata
     id="metadata500">
    <rdf:RDF>
      <cc:Work
         rdf:about="">
        <dc:format>image/svg+xml</dc:format>
        <dc:type
           rdf:resource="http://purl.org/dc/dcmitype/StillImage" />
        <dc:title>grafico2</dc:title>
      </cc:Work>
    </rdf:RDF>
  </metadata>
  <defs
     id="defs498" />
  <sodipodi:namedview
     pagecolor="#ffffff"
     bordercolor="#666666"
     borderopacity="1"
     objecttolerance="10"
     gridtolerance="10"
     guidetolerance="10"
     inkscape:pageopacity="0"
     inkscape:pageshadow="2"
     inkscape:window-width="1370"
     inkscape:window-height="730"
     id="namedview496"
     showgrid="false"
     inkscape:zoom="0.37247474"
     inkscape:cx="354.51552"
     inkscape:cy="1152.2593"
     inkscape:window-x="0"
     inkscape:window-y="0"
     inkscape:window-maximized="0"
     inkscape:current-layer="svg2" />
  <title
     id="title4">grafico2</title>
  <desc
     id="desc6">R SVG Plot with tooltips! (mode=1)</desc>
  <script
     type="text/ecmascript"
     id="script8"><![CDATA[
    var SVGDocument = null;
    var SVGRoot = null;
    var SVGViewBox = null;
    var svgns = 'http://www.w3.org/2000/svg';
    var xlinkns = 'http://www.w3.org/1999/xlink';
    var map = null;
    var toolTip = null;
    var TrueCoords = null;
    var tipBox = null;
    var tipText = null;
    var tipTitle = null;
    var tipDesc1 = null;

    var lastElement = null;
    var titleText = '';
    var titleDesc = '';


    function Init(evt)
    {
       SVGDocument = evt.target.ownerDocument;
       SVGRoot = SVGDocument.documentElement;
       TrueCoords = SVGRoot.createSVGPoint();
       map = document.getElementById('canvas')

       toolTip = SVGDocument.getElementById('ToolTip');
       tipBox = SVGDocument.getElementById('tipbox');
       tipText = SVGDocument.getElementById('tipText');
       tipText.setAttributeNS(null, 'font-family', 'Arial, sans-serif' );
       tipTitle = SVGDocument.getElementById('tipTitle');
       tipDesc1 = SVGDocument.getElementById('tipDesc1');
       //window.status = (TrueCoords);

       //create event for object
       SVGRoot.addEventListener('mousemove', ShowTooltip, false);
       SVGRoot.addEventListener('mouseout', HideTooltip, false);
    };


    function GetTrueCoords(evt)
    {
       // find the current zoom level and pan setting, and adjust the reported
       //    mouse position accordingly
       var newScale = SVGRoot.currentScale;
       var translation = SVGRoot.currentTranslate;
       TrueCoords.x = (evt.pageX - translation.x)/newScale;
       TrueCoords.y = (evt.pageY - translation.y)/newScale;
    };


    function HideTooltip( evt )
    {
       toolTip.setAttributeNS(null, 'visibility', 'hidden');
    };


   function ShowTooltip( evt )
   {
      GetTrueCoords( evt );

      var tipScale = 1/SVGRoot.currentScale;
      var textWidth = 0;
      var tspanWidth = 0;
      var boxHeight = 20;

      tipBox.setAttributeNS(null, 'transform', 'scale(' + tipScale + ',' + tipScale + ')' );
      tipText.setAttributeNS(null, 'transform', 'scale(' + tipScale + ',' + tipScale + ')' );

      var titleValue = '';
      var desc1Value = '';
      var targetElement = evt.target;
      if ( lastElement != targetElement )
      {
         var targetTitle = targetElement.getElementsByTagName('tiptitle').item(0);
         if ( targetTitle )
         {
            // if there is a 'tiptitle' element, use its contents for the tooltip tiptitle
            titleValue = targetTitle.firstChild.nodeValue;
         }

         var targetDesc1 = targetElement.getElementsByTagName('desc1').item(0);
         if ( targetDesc1 )
         {
            // if there is a 'desc1' element, use its contents for the tooltip desc1
            desc1Value = targetDesc1.firstChild.nodeValue;

            if ( '' == titleValue )
            {
               // if there is no 'tiptitle' element, use the contents of the 'desc1' element for the tooltip title instead
               titleValue = desc1Value;
               desc1Value = '';
            }
         } else {
             // useful for debugging positioning...
             // desc1Value = 'xPos=' + TrueCoords.x + ' yPos=' + TrueCoords.y;
         }

         // if there is still no 'tiptitle' element, use the contents of the 'id' attribute for the tooltip title
         if ( '' == titleValue)
         {
             titleValue = targetElement.getAttributeNS(null, 'id');
             if (titleValue = 'canvas')
                 titleValue = ''
         }

         // selectively assign the tooltip title and desc the proper values,
         //   and hide those which don't have text values
         //
         var titleDisplay = 'none';
         if ( '' != titleValue )
         {
            tipTitle.firstChild.nodeValue = titleValue;
            titleDisplay = 'inline';
         }
         tipTitle.setAttributeNS(null, 'display', titleDisplay );

         var desc1Display = 'none';
         if ( '' != desc1Value )
         {
            tipDesc1.firstChild.nodeValue = desc1Value;
            desc1Display = 'inline';
         }
         tipDesc1.setAttributeNS(null, 'display', desc1Display );
      }

      // if there are tooltip contents to be displayed, adjust the size and position of the box
      if ( '' != titleValue )
      {
         var xPos = TrueCoords.x;
         var yPos = TrueCoords.y;
         //return rectangle around text as SVGRect object
         var outline = tipText.getBBox();
         tipBox.setAttributeNS(null, 'width', Number(outline.width) + 10);
         tipBox.setAttributeNS(null, 'height', Number(outline.height) + 10);

         // work out which direction tooltip needs to hang in to be visible
         var mapbb = map.getBBox();
         if (xPos + (10 * tipScale) + Number(outline.width) < Number(mapbb.width))
             xPos = xPos + 10 * tipScale;
         else
             xPos = xPos - 10 * tipScale - Number(outline.width);
         if (yPos + (10 * tipScale) + Number(outline.height) < Number(mapbb.height))
             yPos = yPos + 10 * tipScale;
         else
             yPos = yPos - 10 * tipScale - Number(outline.height);

         // update position
         toolTip.setAttributeNS(null, 'transform', 'translate(' + xPos + ',' + yPos + ')');
         toolTip.setAttributeNS(null, 'visibility', 'visible');
       }
    };

   ]]></script>
  <rect
     width="1517.67"
     height="1445.4"
     style="fill:#ffffff"
     id="canvas"
     x="171.82373"
     y="451.03729" />
  <polyline
     points="566.33 , 1235.01 817.47 , 1342.82 "
     id="polyline11"
     transform="matrix(1.3338127,0,0,1.0453041,-188.67791,-36.798169)"
     style="fill:#000000;fill-opacity:0;stroke:#808080;stroke-width:2px;stroke-opacity:1" />
  <polygon
     points="819.69,1337.67 815.26,1347.98 829.91,1348.16 "
     id="polygon13"
     transform="matrix(1.3140656,0,0,1.0270415,-164.66889,-41.020986)"
     style="fill:#808080;fill-opacity:1;stroke:#ffffff;stroke-width:1px;stroke-opacity:0" />
  <polyline
     points="567.81 , 1230.44 816.71 , 1287.00 "
     id="polyline15"
     transform="matrix(1.3338127,0,0,1.0453041,-188.67791,-36.798169)"
     style="fill:#000000;fill-opacity:0;stroke:#808080;stroke-width:2px;stroke-opacity:1" />
  <polygon
     points="817.96,1281.54 815.47,1292.47 829.91,1290 "
     id="polygon17"
     transform="matrix(1.3140656,0,0,1.0270415,-164.66889,-41.020986)"
     style="fill:#808080;fill-opacity:1;stroke:#ffffff;stroke-width:1px;stroke-opacity:0" />
  <polyline
     points="568.46 , 1225.24 816.38 , 1231.50 "
     id="polyline19"
     transform="matrix(1.3338127,0,0,1.0453041,-188.67791,-36.798169)"
     style="fill:#000000;fill-opacity:0;stroke:#808080;stroke-width:2px;stroke-opacity:1" />
  <polygon
     points="816.52,1225.9 816.24,1237.11 829.91,1231.84 "
     id="polygon21"
     transform="matrix(1.3140656,0,0,1.0270415,-164.66889,-41.020986)"
     style="fill:#808080;fill-opacity:1;stroke:#ffffff;stroke-width:1px;stroke-opacity:0" />
  <polyline
     points="568.07 , 1219.97 816.58 , 1176.04 "
     id="polyline23"
     transform="matrix(1.3338127,0,0,1.0453041,-188.67791,-36.798169)"
     style="fill:#000000;fill-opacity:0;stroke:#808080;stroke-width:2px;stroke-opacity:1" />
  <polygon
     points="815.61,1170.52 817.56,1181.56 829.91,1173.69 "
     id="polygon25"
     transform="matrix(1.3140656,0,0,1.0270415,-164.66889,-41.020986)"
     style="fill:#808080;fill-opacity:1;stroke:#ffffff;stroke-width:1px;stroke-opacity:0" />
  <polyline
     points="566.76 , 1215.21 817.25 , 1120.32 "
     id="polyline27"
     transform="matrix(1.3338127,0,0,1.0453041,-188.67791,-36.798169)"
     style="fill:#000000;fill-opacity:0;stroke:#808080;stroke-width:2px;stroke-opacity:1" />
  <polygon
     points="815.27,1115.08 819.24,1125.57 829.91,1115.53 "
     id="polygon29"
     transform="matrix(1.3140656,0,0,1.0270415,-164.66889,-41.020986)"
     style="fill:#808080;fill-opacity:1;stroke:#ffffff;stroke-width:1px;stroke-opacity:0" />
  <polyline
     points="566.33 , 870.01 817.47 , 977.82 "
     id="polyline31"
     transform="matrix(1.3338127,0,0,1.0453041,-188.67791,-36.798169)"
     style="fill:#000000;fill-opacity:0;stroke:#808080;stroke-width:2px;stroke-opacity:1" />
  <polygon
     points="819.69,972.67 815.26,982.98 829.91,983.16 "
     id="polygon33"
     transform="matrix(1.3140656,0,0,1.0270415,-164.66889,-41.020986)"
     style="fill:#808080;fill-opacity:1;stroke:#ffffff;stroke-width:1px;stroke-opacity:0" />
  <polyline
     points="567.81 , 865.44 816.71 , 922.00 "
     id="polyline35"
     transform="matrix(1.3338127,0,0,1.0453041,-188.67791,-36.798169)"
     style="fill:#000000;fill-opacity:0;stroke:#808080;stroke-width:2px;stroke-opacity:1" />
  <polygon
     points="817.96,916.54 815.47,927.47 829.91,925 "
     id="polygon37"
     transform="matrix(1.3140656,0,0,1.0270415,-164.66889,-41.020986)"
     style="fill:#808080;fill-opacity:1;stroke:#ffffff;stroke-width:1px;stroke-opacity:0" />
  <polyline
     points="568.46 , 860.24 816.38 , 866.50 "
     id="polyline39"
     transform="matrix(1.3338127,0,0,1.0453041,-188.67791,-36.798169)"
     style="fill:#000000;fill-opacity:0;stroke:#808080;stroke-width:2px;stroke-opacity:1" />
  <polygon
     points="816.52,860.9 816.24,872.11 829.91,866.84 "
     id="polygon41"
     transform="matrix(1.3140656,0,0,1.0270415,-164.66889,-41.020986)"
     style="fill:#808080;fill-opacity:1;stroke:#ffffff;stroke-width:1px;stroke-opacity:0" />
  <polyline
     points="568.07 , 854.97 816.58 , 811.04 "
     id="polyline43"
     transform="matrix(1.3338127,0,0,1.0453041,-188.67791,-36.798169)"
     style="fill:#000000;fill-opacity:0;stroke:#808080;stroke-width:2px;stroke-opacity:1" />
  <polygon
     points="815.61,805.52 817.56,816.56 829.91,808.69 "
     id="polygon45"
     transform="matrix(1.3140656,0,0,1.0270415,-164.66889,-41.020986)"
     style="fill:#808080;fill-opacity:1;stroke:#ffffff;stroke-width:1px;stroke-opacity:0" />
  <polyline
     points="566.76 , 850.21 817.25 , 755.32 "
     id="polyline47"
     transform="matrix(1.3338127,0,0,1.0453041,-188.67791,-36.798169)"
     style="fill:#000000;fill-opacity:0;stroke:#808080;stroke-width:2px;stroke-opacity:1" />
  <polygon
     points="815.27,750.08 819.24,760.57 829.91,750.53 "
     id="polygon49"
     transform="matrix(1.3140656,0,0,1.0270415,-164.66889,-41.020986)"
     style="fill:#808080;fill-opacity:1;stroke:#ffffff;stroke-width:1px;stroke-opacity:0" />
  <polyline
     points="567.81 , 573.44 816.71 , 630.00 "
     id="polyline51"
     transform="matrix(1.3338127,0,0,1.0453041,-188.67791,-36.798169)"
     style="fill:#000000;fill-opacity:0;stroke:#808080;stroke-width:2px;stroke-opacity:1" />
  <polygon
     points="817.96,624.54 815.47,635.47 829.91,633 "
     id="polygon53"
     transform="matrix(1.3140656,0,0,1.0270415,-164.66889,-41.020986)"
     style="fill:#808080;fill-opacity:1;stroke:#ffffff;stroke-width:1px;stroke-opacity:0" />
  <polyline
     points="568.46 , 568.24 816.38 , 574.50 "
     id="polyline55"
     transform="matrix(1.3338127,0,0,1.0453041,-188.67791,-36.798169)"
     style="fill:#000000;fill-opacity:0;stroke:#808080;stroke-width:2px;stroke-opacity:1" />
  <polygon
     points="816.52,568.9 816.24,580.11 829.91,574.84 "
     id="polygon57"
     transform="matrix(1.3140656,0,0,1.0270415,-164.66889,-41.020986)"
     style="fill:#808080;fill-opacity:1;stroke:#ffffff;stroke-width:1px;stroke-opacity:0" />
  <polyline
     points="568.07 , 562.97 816.58 , 519.04 "
     id="polyline59"
     transform="matrix(1.3338127,0,0,1.0453041,-188.67791,-36.798169)"
     style="fill:#000000;fill-opacity:0;stroke:#808080;stroke-width:2px;stroke-opacity:1" />
  <polygon
     points="815.61,513.52 817.56,524.56 829.91,516.69 "
     id="polygon61"
     transform="matrix(1.3140656,0,0,1.0270415,-164.66889,-41.020986)"
     style="fill:#808080;fill-opacity:1;stroke:#ffffff;stroke-width:1px;stroke-opacity:0" />
  <polyline
     points="565.39 , 251.47 830.46 , 392.03 "
     id="polyline63"
     transform="matrix(1.3338127,0,0,1.0453041,-188.67791,-36.798169)"
     style="fill:#000000;fill-opacity:0;stroke:#808080;stroke-width:2px;stroke-opacity:1" />
  <polygon
     points="833.09,387.08 827.84,396.99 842.42,398.38 "
     id="polygon65"
     transform="matrix(1.3140656,0,0,1.0270415,-164.66889,-41.020986)"
     style="fill:#808080;fill-opacity:1;stroke:#ffffff;stroke-width:1px;stroke-opacity:0" />
  <polyline
     points="567.15 , 247.32 817.05 , 329.36 "
     id="polyline67"
     transform="matrix(1.3338127,0,0,1.0453041,-188.67791,-36.798169)"
     style="fill:#000000;fill-opacity:0;stroke:#808080;stroke-width:2px;stroke-opacity:1" />
  <polygon
     points="818.8,324.03 815.3,334.69 829.91,333.58 "
     id="polygon69"
     transform="matrix(1.3140656,0,0,1.0270415,-164.66889,-41.020986)"
     style="fill:#808080;fill-opacity:1;stroke:#ffffff;stroke-width:1px;stroke-opacity:0" />
  <polyline
     points="568.26 , 242.39 816.48 , 273.73 "
     id="polyline71"
     transform="matrix(1.3338127,0,0,1.0453041,-188.67791,-36.798169)"
     style="fill:#000000;fill-opacity:0;stroke:#808080;stroke-width:2px;stroke-opacity:1" />
  <polygon
     points="817.18,268.17 815.78,279.29 829.91,275.42 "
     id="polygon73"
     transform="matrix(1.3140656,0,0,1.0270415,-164.66889,-41.020986)"
     style="fill:#808080;fill-opacity:1;stroke:#ffffff;stroke-width:1px;stroke-opacity:0" />
  <polyline
     points="568.40 , 237.08 816.41 , 218.29 "
     id="polyline75"
     transform="matrix(1.3338127,0,0,1.0453041,-188.67791,-36.798169)"
     style="fill:#000000;fill-opacity:0;stroke:#808080;stroke-width:2px;stroke-opacity:1" />
  <polygon
     points="815.99,212.7 816.84,223.88 829.91,217.27 "
     id="polygon77"
     transform="matrix(1.3140656,0,0,1.0270415,-164.66889,-41.020986)"
     style="fill:#808080;fill-opacity:1;stroke:#ffffff;stroke-width:1px;stroke-opacity:0" />
  <polyline
     points="567.51 , 232.00 816.87 , 162.73 "
     id="polyline79"
     transform="matrix(1.3338127,0,0,1.0453041,-188.67791,-36.798169)"
     style="fill:#000000;fill-opacity:0;stroke:#808080;stroke-width:2px;stroke-opacity:1" />
  <polygon
     points="815.37,157.33 818.37,168.13 829.91,159.11 "
     id="polygon81"
     transform="matrix(1.3140656,0,0,1.0270415,-164.66889,-41.020986)"
     style="fill:#808080;fill-opacity:1;stroke:#ffffff;stroke-width:1px;stroke-opacity:0" />
  <polyline
     points="565.87 , 227.63 823.80 , 103.88 "
     id="polyline83"
     transform="matrix(1.3338127,0,0,1.0453041,-188.67791,-36.798169)"
     style="fill:#000000;fill-opacity:0;stroke:#808080;stroke-width:2px;stroke-opacity:1" />
  <polygon
     points="821.38,98.82 826.23,108.93 836.01,98.02 "
     id="polygon85"
     transform="matrix(1.3140656,0,0,1.0270415,-164.66889,-41.020986)"
     style="fill:#808080;fill-opacity:1;stroke:#ffffff;stroke-width:1px;stroke-opacity:0" />
  <polyline
     points="195.59 , 883.39 513.54 , 1196.52 "
     id="polyline87"
     transform="matrix(1.4016694,0,0,0.99968007,-212.61461,0.23405416)"
     style="fill:#000000;fill-opacity:0;stroke:#808080;stroke-width:2px;stroke-opacity:1" />
  <polygon
     points="523.18,1206.02 517.47,1192.52 509.6,1200.51 "
     id="polygon89"
     transform="matrix(1.4016694,0,0,0.99968007,-212.61461,0.23405416)"
     style="fill:#808080;fill-opacity:1;stroke:#ffffff;stroke-width:1px;stroke-opacity:0" />
  <polyline
     points="193.05 , 810.39 516.26 , 1194.00 "
     id="polyline91"
     transform="matrix(1.4016694,0,0,0.99968007,-212.61461,0.23405416)"
     style="fill:#000000;fill-opacity:0;stroke:#808080;stroke-width:2px;stroke-opacity:1" />
  <polygon
     points="524.98,1204.35 520.55,1190.39 511.97,1197.61 "
     id="polygon93"
     transform="matrix(1.4016694,0,0,0.99968007,-212.61461,0.23405416)"
     style="fill:#808080;fill-opacity:1;stroke:#ffffff;stroke-width:1px;stroke-opacity:0" />
  <polyline
     points="191.25 , 737.39 518.66 , 1192.13 "
     id="polyline95"
     transform="matrix(1.4016694,0,0,0.99968007,-212.61461,0.23405416)"
     style="fill:#000000;fill-opacity:0;stroke:#808080;stroke-width:2px;stroke-opacity:1" />
  <polygon
     points="526.57,1203.11 523.21,1188.85 514.11,1195.4 "
     id="polygon97"
     transform="matrix(1.4016694,0,0,0.99968007,-212.61461,0.23405416)"
     style="fill:#808080;fill-opacity:1;stroke:#ffffff;stroke-width:1px;stroke-opacity:0" />
  <polyline
     points="189.91 , 664.39 520.75 , 1190.72 "
     id="polyline99"
     transform="matrix(1.4016694,0,0,0.99968007,-212.61461,0.23405416)"
     style="fill:#000000;fill-opacity:0;stroke:#808080;stroke-width:2px;stroke-opacity:1" />
  <polygon
     points="527.95,1202.18 525.49,1187.74 516,1193.71 "
     id="polygon101"
     transform="matrix(1.4016694,0,0,0.99968007,-212.61461,0.23405416)"
     style="fill:#808080;fill-opacity:1;stroke:#ffffff;stroke-width:1px;stroke-opacity:0" />
  <polyline
     points="188.87 , 591.39 522.55 , 1189.66 "
     id="polyline103"
     transform="matrix(1.4016694,0,0,0.99968007,-212.61461,0.23405416)"
     style="fill:#000000;fill-opacity:0;stroke:#808080;stroke-width:2px;stroke-opacity:1" />
  <polygon
     points="529.14,1201.48 527.45,1186.92 517.65,1192.39 "
     id="polygon105"
     transform="matrix(1.4016694,0,0,0.99968007,-212.61461,0.23405416)"
     style="fill:#808080;fill-opacity:1;stroke:#ffffff;stroke-width:1px;stroke-opacity:0" />
  <polyline
     points="215.94 , 867.81 502.05 , 860.58 "
     id="polyline107"
     transform="matrix(1.4016694,0,0,0.99968007,-212.61461,0.23405416)"
     style="fill:#000000;fill-opacity:0;stroke:#808080;stroke-width:2px;stroke-opacity:1" />
  <polygon
     points="515.59,860.24 501.91,854.98 502.2,866.19 "
     id="polygon109"
     transform="matrix(1.4016694,0,0,0.99968007,-212.61461,0.23405416)"
     style="fill:#808080;fill-opacity:1;stroke:#ffffff;stroke-width:1px;stroke-opacity:0" />
  <polyline
     points="215.94 , 801.93 502.65 , 852.62 "
     id="polyline111"
     transform="matrix(1.4016694,0,0,0.99968007,-212.61461,0.23405416)"
     style="fill:#000000;fill-opacity:0;stroke:#808080;stroke-width:2px;stroke-opacity:1" />
  <polygon
     points="515.98,854.97 503.63,847.09 501.68,858.14 "
     id="polygon113"
     transform="matrix(1.4016694,0,0,0.99968007,-212.61461,0.23405416)"
     style="fill:#808080;fill-opacity:1;stroke:#ffffff;stroke-width:1px;stroke-opacity:0" />
  <polyline
     points="215.94 , 736.06 504.63 , 845.41 "
     id="polyline115"
     transform="matrix(1.4016694,0,0,0.99968007,-212.61461,0.23405416)"
     style="fill:#000000;fill-opacity:0;stroke:#808080;stroke-width:2px;stroke-opacity:1" />
  <polygon
     points="517.29,850.21 506.62,840.17 502.65,850.66 "
     id="polygon117"
     transform="matrix(1.4016694,0,0,0.99968007,-212.61461,0.23405416)"
     style="fill:#808080;fill-opacity:1;stroke:#ffffff;stroke-width:1px;stroke-opacity:0" />
  <polyline
     points="205.97 , 664.39 507.45 , 839.49 "
     id="polyline119"
     transform="matrix(1.4016694,0,0,0.99968007,-212.61461,0.23405416)"
     style="fill:#000000;fill-opacity:0;stroke:#808080;stroke-width:2px;stroke-opacity:1" />
  <polygon
     points="519.16,846.29 510.27,834.64 504.63,844.34 "
     id="polygon121"
     transform="matrix(1.4016694,0,0,0.99968007,-212.61461,0.23405416)"
     style="fill:#808080;fill-opacity:1;stroke:#ffffff;stroke-width:1px;stroke-opacity:0" />
  <polyline
     points="199.44 , 591.39 510.54 , 834.93 "
     id="polyline123"
     transform="matrix(1.4016694,0,0,0.99968007,-212.61461,0.23405416)"
     style="fill:#000000;fill-opacity:0;stroke:#808080;stroke-width:2px;stroke-opacity:1" />
  <polygon
     points="521.2,843.27 514,830.51 507.08,839.34 "
     id="polygon125"
     transform="matrix(1.4016694,0,0,0.99968007,-212.61461,0.23405416)"
     style="fill:#808080;fill-opacity:1;stroke:#ffffff;stroke-width:1px;stroke-opacity:0" />
  <polyline
     points="198.31 , 854.01 511.31 , 593.17 "
     id="polyline127"
     transform="matrix(1.4016694,0,0,0.99968007,-212.61461,0.23405416)"
     style="fill:#000000;fill-opacity:0;stroke:#808080;stroke-width:2px;stroke-opacity:1" />
  <polygon
     points="521.71,584.51 507.72,588.86 514.9,597.48 "
     id="polygon129"
     transform="matrix(1.4016694,0,0,0.99968007,-212.61461,0.23405416)"
     style="fill:#808080;fill-opacity:1;stroke:#ffffff;stroke-width:1px;stroke-opacity:0" />
  <polyline
     points="203.95 , 781.01 508.22 , 588.92 "
     id="polyline131"
     transform="matrix(1.4016694,0,0,0.99968007,-212.61461,0.23405416)"
     style="fill:#000000;fill-opacity:0;stroke:#808080;stroke-width:2px;stroke-opacity:1" />
  <polygon
     points="519.66,581.69 505.22,584.18 511.21,593.66 "
     id="polygon133"
     transform="matrix(1.4016694,0,0,0.99968007,-212.61461,0.23405416)"
     style="fill:#808080;fill-opacity:1;stroke:#ffffff;stroke-width:1px;stroke-opacity:0" />
  <polyline
     points="214.90 , 708.01 505.28 , 583.35 "
     id="polyline135"
     transform="matrix(1.4016694,0,0,0.99968007,-212.61461,0.23405416)"
     style="fill:#000000;fill-opacity:0;stroke:#808080;stroke-width:2px;stroke-opacity:1" />
  <polygon
     points="517.72,578.01 503.07,578.2 507.5,588.5 "
     id="polygon137"
     transform="matrix(1.4016694,0,0,0.99968007,-212.61461,0.23405416)"
     style="fill:#808080;fill-opacity:1;stroke:#ffffff;stroke-width:1px;stroke-opacity:0" />
  <polyline
     points="215.94 , 641.69 503.04 , 576.44 "
     id="polyline139"
     transform="matrix(1.4016694,0,0,0.99968007,-212.61461,0.23405416)"
     style="fill:#000000;fill-opacity:0;stroke:#808080;stroke-width:2px;stroke-opacity:1" />
  <polygon
     points="516.24,573.44 501.79,570.97 504.28,581.9 "
     id="polygon141"
     transform="matrix(1.4016694,0,0,0.99968007,-212.61461,0.23405416)"
     style="fill:#808080;fill-opacity:1;stroke:#ffffff;stroke-width:1px;stroke-opacity:0" />
  <polyline
     points="215.94 , 575.81 502.05 , 568.58 "
     id="polyline143"
     transform="matrix(1.4016694,0,0,0.99968007,-212.61461,0.23405416)"
     style="fill:#000000;fill-opacity:0;stroke:#808080;stroke-width:2px;stroke-opacity:1" />
  <polygon
     points="515.59,568.24 501.91,562.98 502.2,574.19 "
     id="polygon145"
     transform="matrix(1.4016694,0,0,0.99968007,-212.61461,0.23405416)"
     style="fill:#808080;fill-opacity:1;stroke:#ffffff;stroke-width:1px;stroke-opacity:0" />
  <polyline
     points="189.11 , 854.01 522.12 , 273.75 "
     id="polyline147"
     transform="matrix(1.4016694,0,0,0.99968007,-212.61461,0.23405416)"
     style="fill:#000000;fill-opacity:0;stroke:#808080;stroke-width:2px;stroke-opacity:1" />
  <polygon
     points="528.86,262.01 517.26,270.96 526.99,276.54 "
     id="polygon149"
     transform="matrix(1.4016694,0,0,0.99968007,-212.61461,0.23405416)"
     style="fill:#808080;fill-opacity:1;stroke:#ffffff;stroke-width:1px;stroke-opacity:0" />
  <polyline
     points="190.21 , 781.01 520.25 , 272.61 "
     id="polyline151"
     transform="matrix(1.4016694,0,0,0.99968007,-212.61461,0.23405416)"
     style="fill:#000000;fill-opacity:0;stroke:#808080;stroke-width:2px;stroke-opacity:1" />
  <polygon
     points="527.62,261.26 515.55,269.56 524.96,275.66 "
     id="polygon153"
     transform="matrix(1.4016694,0,0,0.99968007,-212.61461,0.23405416)"
     style="fill:#808080;fill-opacity:1;stroke:#ffffff;stroke-width:1px;stroke-opacity:0" />
  <polyline
     points="191.65 , 708.01 518.09 , 271.11 "
     id="polyline155"
     transform="matrix(1.4016694,0,0,0.99968007,-212.61461,0.23405416)"
     style="fill:#000000;fill-opacity:0;stroke:#808080;stroke-width:2px;stroke-opacity:1" />
  <polygon
     points="526.2,260.26 513.6,267.75 522.58,274.46 "
     id="polygon157"
     transform="matrix(1.4016694,0,0,0.99968007,-212.61461,0.23405416)"
     style="fill:#808080;fill-opacity:1;stroke:#ffffff;stroke-width:1px;stroke-opacity:0" />
  <polyline
     points="193.60 , 635.01 515.61 , 269.09 "
     id="polyline159"
     transform="matrix(1.4016694,0,0,0.99968007,-212.61461,0.23405416)"
     style="fill:#000000;fill-opacity:0;stroke:#808080;stroke-width:2px;stroke-opacity:1" />
  <polygon
     points="524.55,258.93 511.4,265.39 519.82,272.8 "
     id="polygon161"
     transform="matrix(1.4016694,0,0,0.99968007,-212.61461,0.23405416)"
     style="fill:#808080;fill-opacity:1;stroke:#ffffff;stroke-width:1px;stroke-opacity:0" />
  <polyline
     points="196.40 , 562.01 512.81 , 266.37 "
     id="polyline163"
     transform="matrix(1.4016694,0,0,0.99968007,-212.61461,0.23405416)"
     style="fill:#000000;fill-opacity:0;stroke:#808080;stroke-width:2px;stroke-opacity:1" />
  <polygon
     points="522.7,257.13 508.98,262.28 516.64,270.47 "
     id="polygon165"
     transform="matrix(1.4016694,0,0,0.99968007,-212.61461,0.23405416)"
     style="fill:#808080;fill-opacity:1;stroke:#ffffff;stroke-width:1px;stroke-opacity:0" />
  <polygon
     points="976.84,1347.38 829.91,1347.38 829.91,1412.02 976.84,1412.02 "
     id="polygon167"
     transform="matrix(1.3140656,0,0,1.0270415,-164.66889,-41.020986)"
     style="fill:#66c2a5;fill-opacity:0.39370099;stroke:#ffffff;stroke-width:1px;stroke-opacity:0" />
  <polyline
     points="829.91 , 1412.02 976.84 , 1412.02 976.84 , 1347.38 829.91 , 1347.38 829.91 , 1412.02 "
     id="polyline169"
     transform="matrix(1.3140656,0,0,1.0270415,-164.66889,-41.020986)"
     style="fill:#000000;fill-opacity:0;stroke:#ffffff;stroke-width:1px;stroke-opacity:0" />
  <rect
     x="925.88727"
     y="1342.7942"
     width="193.06252"
     height="66.398232"
     id="rect171"
     style="fill:#ffffff;fill-opacity:0;stroke:#000000;stroke-width:2.32344556px;stroke-opacity:1" />
  <polygon
     points="976.84,1274.38 829.91,1274.38 829.91,1339.02 976.84,1339.02 "
     id="polygon173"
     transform="matrix(1.3140656,0,0,1.0270415,-164.66889,-41.020986)"
     style="fill:#66c2a5;fill-opacity:0.39370099;stroke:#ffffff;stroke-width:1px;stroke-opacity:0" />
  <polyline
     points="829.91 , 1339.02 976.84 , 1339.02 976.84 , 1274.38 829.91 , 1274.38 829.91 , 1339.02 "
     id="polyline175"
     transform="matrix(1.3140656,0,0,1.0270415,-164.66889,-41.020986)"
     style="fill:#000000;fill-opacity:0;stroke:#ffffff;stroke-width:1px;stroke-opacity:0" />
  <rect
     x="925.88727"
     y="1267.8202"
     width="193.06252"
     height="66.398232"
     id="rect177"
     style="fill:#ffffff;fill-opacity:0;stroke:#000000;stroke-width:2.32344556px;stroke-opacity:1" />
  <polygon
     points="976.84,1201.38 829.91,1201.38 829.91,1266.02 976.84,1266.02 "
     id="polygon179"
     transform="matrix(1.3140656,0,0,1.0270415,-164.66889,-41.020986)"
     style="fill:#66c2a5;fill-opacity:0.39370099;stroke:#ffffff;stroke-width:1px;stroke-opacity:0" />
  <polyline
     points="829.91 , 1266.02 976.84 , 1266.02 976.84 , 1201.38 829.91 , 1201.38 829.91 , 1266.02 "
     id="polyline181"
     transform="matrix(1.3140656,0,0,1.0270415,-164.66889,-41.020986)"
     style="fill:#000000;fill-opacity:0;stroke:#ffffff;stroke-width:1px;stroke-opacity:0" />
  <rect
     x="925.88727"
     y="1192.8462"
     width="193.06252"
     height="66.398232"
     id="rect183"
     style="fill:#ffffff;fill-opacity:0;stroke:#000000;stroke-width:2.32344556px;stroke-opacity:1" />
  <polygon
     points="976.84,1128.38 829.91,1128.38 829.91,1193.02 976.84,1193.02 "
     id="polygon185"
     transform="matrix(1.3140656,0,0,1.0270415,-164.66889,-41.020986)"
     style="fill:#66c2a5;fill-opacity:0.39370099;stroke:#ffffff;stroke-width:1px;stroke-opacity:0" />
  <polyline
     points="829.91 , 1193.02 976.84 , 1193.02 976.84 , 1128.38 829.91 , 1128.38 829.91 , 1193.02 "
     id="polyline187"
     transform="matrix(1.3140656,0,0,1.0270415,-164.66889,-41.020986)"
     style="fill:#000000;fill-opacity:0;stroke:#ffffff;stroke-width:1px;stroke-opacity:0" />
  <rect
     x="925.88727"
     y="1117.8722"
     width="193.06252"
     height="66.398232"
     id="rect189"
     style="fill:#ffffff;fill-opacity:0;stroke:#000000;stroke-width:2.32344556px;stroke-opacity:1" />
  <polygon
     points="976.84,1055.38 829.91,1055.38 829.91,1120.02 976.84,1120.02 "
     id="polygon191"
     transform="matrix(1.3140656,0,0,1.0270415,-164.66889,-41.020986)"
     style="fill:#66c2a5;fill-opacity:0.39370099;stroke:#ffffff;stroke-width:1px;stroke-opacity:0" />
  <polyline
     points="829.91 , 1120.02 976.84 , 1120.02 976.84 , 1055.38 829.91 , 1055.38 829.91 , 1120.02 "
     id="polyline193"
     transform="matrix(1.3140656,0,0,1.0270415,-164.66889,-41.020986)"
     style="fill:#000000;fill-opacity:0;stroke:#ffffff;stroke-width:1px;stroke-opacity:0" />
  <rect
     x="925.88727"
     y="1042.8981"
     width="193.06252"
     height="66.398232"
     id="rect195"
     style="fill:#ffffff;fill-opacity:0;stroke:#000000;stroke-width:2.32344556px;stroke-opacity:1" />
  <polygon
     points="976.84,982.38 829.91,982.38 829.91,1047.02 976.84,1047.02 "
     id="polygon197"
     transform="matrix(1.3140656,0,0,1.0270415,-164.66889,-41.020986)"
     style="fill:#fc8d62;fill-opacity:0.39370099;stroke:#ffffff;stroke-width:1px;stroke-opacity:0" />
  <polyline
     points="829.91 , 1047.02 976.84 , 1047.02 976.84 , 982.38 829.91 , 982.38 829.91 , 1047.02 "
     id="polyline199"
     transform="matrix(1.3140656,0,0,1.0270415,-164.66889,-41.020986)"
     style="fill:#000000;fill-opacity:0;stroke:#ffffff;stroke-width:1px;stroke-opacity:0" />
  <rect
     x="925.88727"
     y="967.92401"
     width="193.06252"
     height="66.398232"
     id="rect201"
     style="fill:#ffffff;fill-opacity:0;stroke:#000000;stroke-width:2.32344556px;stroke-opacity:1" />
  <polygon
     points="976.84,909.38 829.91,909.38 829.91,974.02 976.84,974.02 "
     id="polygon203"
     transform="matrix(1.3140656,0,0,1.0270415,-164.66889,-41.020986)"
     style="fill:#fc8d62;fill-opacity:0.39370099;stroke:#ffffff;stroke-width:1px;stroke-opacity:0" />
  <polyline
     points="829.91 , 974.02 976.84 , 974.02 976.84 , 909.38 829.91 , 909.38 829.91 , 974.02 "
     id="polyline205"
     transform="matrix(1.3140656,0,0,1.0270415,-164.66889,-41.020986)"
     style="fill:#000000;fill-opacity:0;stroke:#ffffff;stroke-width:1px;stroke-opacity:0" />
  <rect
     x="925.88727"
     y="892.95001"
     width="193.06252"
     height="66.398232"
     id="rect207"
     style="fill:#ffffff;fill-opacity:0;stroke:#000000;stroke-width:2.32344556px;stroke-opacity:1" />
  <polygon
     points="976.84,836.38 829.91,836.38 829.91,901.02 976.84,901.02 "
     id="polygon209"
     transform="matrix(1.3140656,0,0,1.0270415,-164.66889,-41.020986)"
     style="fill:#fc8d62;fill-opacity:0.39370099;stroke:#ffffff;stroke-width:1px;stroke-opacity:0" />
  <polyline
     points="829.91 , 901.02 976.84 , 901.02 976.84 , 836.38 829.91 , 836.38 829.91 , 901.02 "
     id="polyline211"
     transform="matrix(1.3140656,0,0,1.0270415,-164.66889,-41.020986)"
     style="fill:#000000;fill-opacity:0;stroke:#ffffff;stroke-width:1px;stroke-opacity:0" />
  <rect
     x="925.88727"
     y="817.97595"
     width="193.06252"
     height="66.398232"
     id="rect213"
     style="fill:#ffffff;fill-opacity:0;stroke:#000000;stroke-width:2.32344556px;stroke-opacity:1" />
  <polygon
     points="976.84,763.38 829.91,763.38 829.91,828.02 976.84,828.02 "
     id="polygon215"
     transform="matrix(1.3140656,0,0,1.0270415,-164.66889,-41.020986)"
     style="fill:#fc8d62;fill-opacity:0.39370099;stroke:#ffffff;stroke-width:1px;stroke-opacity:0" />
  <polyline
     points="829.91 , 828.02 976.84 , 828.02 976.84 , 763.38 829.91 , 763.38 829.91 , 828.02 "
     id="polyline217"
     transform="matrix(1.3140656,0,0,1.0270415,-164.66889,-41.020986)"
     style="fill:#000000;fill-opacity:0;stroke:#ffffff;stroke-width:1px;stroke-opacity:0" />
  <rect
     x="925.88727"
     y="743.00195"
     width="193.06252"
     height="66.398232"
     id="rect219"
     style="fill:#ffffff;fill-opacity:0;stroke:#000000;stroke-width:2.32344556px;stroke-opacity:1" />
  <polygon
     points="976.84,690.38 829.91,690.38 829.91,755.02 976.84,755.02 "
     id="polygon221"
     transform="matrix(1.3140656,0,0,1.0270415,-164.66889,-41.020986)"
     style="fill:#fc8d62;fill-opacity:0.39370099;stroke:#ffffff;stroke-width:1px;stroke-opacity:0" />
  <polyline
     points="829.91 , 755.02 976.84 , 755.02 976.84 , 690.38 829.91 , 690.38 829.91 , 755.02 "
     id="polyline223"
     transform="matrix(1.3140656,0,0,1.0270415,-164.66889,-41.020986)"
     style="fill:#000000;fill-opacity:0;stroke:#ffffff;stroke-width:1px;stroke-opacity:0" />
  <rect
     x="925.88727"
     y="668.02789"
     width="193.06252"
     height="66.398232"
     id="rect225"
     style="fill:#ffffff;fill-opacity:0;stroke:#000000;stroke-width:2.32344556px;stroke-opacity:1" />
  <polygon
     points="976.84,617.38 829.91,617.38 829.91,682.02 976.84,682.02 "
     id="polygon227"
     transform="matrix(1.3140656,0,0,1.0270415,-164.66889,-41.020986)"
     style="fill:#8da0cb;fill-opacity:0.39370099;stroke:#ffffff;stroke-width:1px;stroke-opacity:0" />
  <polyline
     points="829.91 , 682.02 976.84 , 682.02 976.84 , 617.38 829.91 , 617.38 829.91 , 682.02 "
     id="polyline229"
     transform="matrix(1.3140656,0,0,1.0270415,-164.66889,-41.020986)"
     style="fill:#000000;fill-opacity:0;stroke:#ffffff;stroke-width:1px;stroke-opacity:0" />
  <rect
     x="925.88727"
     y="593.05389"
     width="193.06252"
     height="66.398232"
     id="rect231"
     style="fill:#ffffff;fill-opacity:0;stroke:#000000;stroke-width:2.32344556px;stroke-opacity:1" />
  <polygon
     points="976.84,544.38 829.91,544.38 829.91,609.02 976.84,609.02 "
     id="polygon233"
     transform="matrix(1.3140656,0,0,1.0270415,-164.66889,-41.020986)"
     style="fill:#8da0cb;fill-opacity:0.39370099;stroke:#ffffff;stroke-width:1px;stroke-opacity:0" />
  <polyline
     points="829.91 , 609.02 976.84 , 609.02 976.84 , 544.38 829.91 , 544.38 829.91 , 609.02 "
     id="polyline235"
     transform="matrix(1.3140656,0,0,1.0270415,-164.66889,-41.020986)"
     style="fill:#000000;fill-opacity:0;stroke:#ffffff;stroke-width:1px;stroke-opacity:0" />
  <rect
     x="925.88727"
     y="518.07983"
     width="193.06252"
     height="66.398232"
     id="rect237"
     style="fill:#ffffff;fill-opacity:0;stroke:#000000;stroke-width:2.32344556px;stroke-opacity:1" />
  <polygon
     points="976.84,471.38 829.91,471.38 829.91,536.02 976.84,536.02 "
     id="polygon239"
     transform="matrix(1.3140656,0,0,1.0270415,-164.66889,-41.020986)"
     style="fill:#8da0cb;fill-opacity:0.39370099;stroke:#ffffff;stroke-width:1px;stroke-opacity:0" />
  <polyline
     points="829.91 , 536.02 976.84 , 536.02 976.84 , 471.38 829.91 , 471.38 829.91 , 536.02 "
     id="polyline241"
     transform="matrix(1.3140656,0,0,1.0270415,-164.66889,-41.020986)"
     style="fill:#000000;fill-opacity:0;stroke:#ffffff;stroke-width:1px;stroke-opacity:0" />
  <rect
     x="925.88727"
     y="443.10583"
     width="193.06252"
     height="66.398232"
     id="rect243"
     style="fill:#ffffff;fill-opacity:0;stroke:#000000;stroke-width:2.32344556px;stroke-opacity:1" />
  <polygon
     points="976.84,398.38 829.91,398.38 829.91,463.02 976.84,463.02 "
     id="polygon245"
     transform="matrix(1.3140656,0,0,1.0270415,-164.66889,-41.020986)"
     style="fill:#e78ac3;fill-opacity:0.39370099;stroke:#ffffff;stroke-width:1px;stroke-opacity:0" />
  <polyline
     points="829.91 , 463.02 976.84 , 463.02 976.84 , 398.38 829.91 , 398.38 829.91 , 463.02 "
     id="polyline247"
     transform="matrix(1.3140656,0,0,1.0270415,-164.66889,-41.020986)"
     style="fill:#000000;fill-opacity:0;stroke:#ffffff;stroke-width:1px;stroke-opacity:0" />
  <rect
     x="925.88727"
     y="368.13181"
     width="193.06252"
     height="66.398232"
     id="rect249"
     style="fill:#ffffff;fill-opacity:0;stroke:#000000;stroke-width:2.32344556px;stroke-opacity:1" />
  <polygon
     points="976.84,325.38 829.91,325.38 829.91,390.02 976.84,390.02 "
     id="polygon251"
     transform="matrix(1.3140656,0,0,1.0270415,-164.66889,-41.020986)"
     style="fill:#e78ac3;fill-opacity:0.39370099;stroke:#ffffff;stroke-width:1px;stroke-opacity:0" />
  <polyline
     points="829.91 , 390.02 976.84 , 390.02 976.84 , 325.38 829.91 , 325.38 829.91 , 390.02 "
     id="polyline253"
     transform="matrix(1.3140656,0,0,1.0270415,-164.66889,-41.020986)"
     style="fill:#000000;fill-opacity:0;stroke:#ffffff;stroke-width:1px;stroke-opacity:0" />
  <rect
     x="925.88727"
     y="293.15778"
     width="193.06252"
     height="66.398232"
     id="rect255"
     style="fill:#ffffff;fill-opacity:0;stroke:#000000;stroke-width:2.32344556px;stroke-opacity:1" />
  <polygon
     points="976.84,252.38 829.91,252.38 829.91,317.02 976.84,317.02 "
     id="polygon257"
     transform="matrix(1.3140656,0,0,1.0270415,-164.66889,-41.020986)"
     style="fill:#e78ac3;fill-opacity:0.39370099;stroke:#ffffff;stroke-width:1px;stroke-opacity:0" />
  <polyline
     points="829.91 , 317.02 976.84 , 317.02 976.84 , 252.38 829.91 , 252.38 829.91 , 317.02 "
     id="polyline259"
     transform="matrix(1.3140656,0,0,1.0270415,-164.66889,-41.020986)"
     style="fill:#000000;fill-opacity:0;stroke:#ffffff;stroke-width:1px;stroke-opacity:0" />
  <rect
     x="925.88727"
     y="218.18375"
     width="193.06252"
     height="66.398232"
     id="rect261"
     style="fill:#ffffff;fill-opacity:0;stroke:#000000;stroke-width:2.32344556px;stroke-opacity:1" />
  <polygon
     points="976.84,179.38 829.91,179.38 829.91,244.02 976.84,244.02 "
     id="polygon263"
     transform="matrix(1.3140656,0,0,1.0270415,-164.66889,-41.020986)"
     style="fill:#e78ac3;fill-opacity:0.39370099;stroke:#ffffff;stroke-width:1px;stroke-opacity:0" />
  <polyline
     points="829.91 , 244.02 976.84 , 244.02 976.84 , 179.38 829.91 , 179.38 829.91 , 244.02 "
     id="polyline265"
     transform="matrix(1.3140656,0,0,1.0270415,-164.66889,-41.020986)"
     style="fill:#000000;fill-opacity:0;stroke:#ffffff;stroke-width:1px;stroke-opacity:0" />
  <rect
     x="925.88727"
     y="143.20972"
     width="193.06252"
     height="66.398232"
     id="rect267"
     style="fill:#ffffff;fill-opacity:0;stroke:#000000;stroke-width:2.32344556px;stroke-opacity:1" />
  <polygon
     points="976.84,106.38 829.91,106.38 829.91,171.02 976.84,171.02 "
     id="polygon269"
     transform="matrix(1.3140656,0,0,1.0270415,-164.66889,-41.020986)"
     style="fill:#e78ac3;fill-opacity:0.39370099;stroke:#ffffff;stroke-width:1px;stroke-opacity:0" />
  <polyline
     points="829.91 , 171.02 976.84 , 171.02 976.84 , 106.38 829.91 , 106.38 829.91 , 171.02 "
     id="polyline271"
     transform="matrix(1.3140656,0,0,1.0270415,-164.66889,-41.020986)"
     style="fill:#000000;fill-opacity:0;stroke:#ffffff;stroke-width:1px;stroke-opacity:0" />
  <rect
     x="925.88727"
     y="68.235687"
     width="193.06252"
     height="66.398232"
     id="rect273"
     style="fill:#ffffff;fill-opacity:0;stroke:#000000;stroke-width:2.32344556px;stroke-opacity:1" />
  <polygon
     points="976.84,33.38 829.91,33.38 829.91,98.02 976.84,98.02 "
     id="polygon275"
     transform="matrix(1.3140656,0,0,1.0270415,-164.66889,-41.020986)"
     style="fill:#e78ac3;fill-opacity:0.39370099;stroke:#ffffff;stroke-width:1px;stroke-opacity:0" />
  <polyline
     points="829.91 , 98.02 976.84 , 98.02 976.84 , 33.38 829.91 , 33.38 829.91 , 98.02 "
     id="polyline277"
     transform="matrix(1.3140656,0,0,1.0270415,-164.66889,-41.020986)"
     style="fill:#000000;fill-opacity:0;stroke:#ffffff;stroke-width:1px;stroke-opacity:0" />
  <rect
     x="925.88727"
     y="-6.7383399"
     width="193.06252"
     height="66.398232"
     id="rect279"
     style="fill:#ffffff;fill-opacity:0;stroke:#000000;stroke-width:2.32344556px;stroke-opacity:1" />
  <polygon
     points="215.94,854.01 145.41,854.01 145.41,883.39 215.94,883.39 "
     id="polygon281"
     transform="matrix(2.6570674,0,0,1.0044203,-508.79254,-12.59117)"
     style="fill:#8dd3c7;fill-opacity:0.39370099;stroke:#ffffff;stroke-width:1px;stroke-opacity:0" />
  <polyline
     points="145.41 , 883.39 215.94 , 883.39 215.94 , 854.01 145.41 , 854.01 145.41 , 883.39 "
     id="polyline283"
     transform="matrix(2.6570674,0,0,1.0044203,-508.79254,-12.59117)"
     style="fill:#000000;fill-opacity:0;stroke:#ffffff;stroke-width:1px;stroke-opacity:0" />
  <rect
     x="-122.42836"
     y="845.19379"
     width="187.37639"
     height="29.509869"
     id="rect285"
     style="fill:#ffffff;fill-opacity:0;stroke:#000000;stroke-width:3.26730013px;stroke-opacity:1" />
  <polygon
     points="215.94,781.01 145.41,781.01 145.41,810.39 215.94,810.39 "
     id="polygon287"
     transform="matrix(2.6570674,0,0,1.0044203,-508.79254,-12.59117)"
     style="fill:#ffffb3;fill-opacity:0.39370099;stroke:#ffffff;stroke-width:1px;stroke-opacity:0" />
  <polyline
     points="145.41 , 810.39 215.94 , 810.39 215.94 , 781.01 145.41 , 781.01 145.41 , 810.39 "
     id="polyline289"
     transform="matrix(2.6570674,0,0,1.0044203,-508.79254,-12.59117)"
     style="fill:#000000;fill-opacity:0;stroke:#ffffff;stroke-width:1px;stroke-opacity:0" />
  <rect
     x="-122.42836"
     y="771.87115"
     width="187.37639"
     height="29.509869"
     id="rect291"
     style="fill:#ffffff;fill-opacity:0;stroke:#000000;stroke-width:3.26730013px;stroke-opacity:1" />
  <polygon
     points="215.94,708.01 145.41,708.01 145.41,737.39 215.94,737.39 "
     id="polygon293"
     transform="matrix(2.6570674,0,0,1.0044203,-508.79254,-12.59117)"
     style="fill:#bebada;fill-opacity:0.39370099;stroke:#ffffff;stroke-width:1px;stroke-opacity:0" />
  <polyline
     points="145.41 , 737.39 215.94 , 737.39 215.94 , 708.01 145.41 , 708.01 145.41 , 737.39 "
     id="polyline295"
     transform="matrix(2.6570674,0,0,1.0044203,-508.79254,-12.59117)"
     style="fill:#000000;fill-opacity:0;stroke:#ffffff;stroke-width:1px;stroke-opacity:0" />
  <rect
     x="-122.42836"
     y="698.54846"
     width="187.37639"
     height="29.509869"
     id="rect297"
     style="fill:#ffffff;fill-opacity:0;stroke:#000000;stroke-width:3.26730013px;stroke-opacity:1" />
  <polygon
     points="215.94,635.01 145.41,635.01 145.41,664.39 215.94,664.39 "
     id="polygon299"
     transform="matrix(2.6570674,0,0,1.0044203,-508.79254,-12.59117)"
     style="fill:#fb8072;fill-opacity:0.39370099;stroke:#ffffff;stroke-width:1px;stroke-opacity:0" />
  <polyline
     points="145.41 , 664.39 215.94 , 664.39 215.94 , 635.01 145.41 , 635.01 145.41 , 664.39 "
     id="polyline301"
     transform="matrix(2.6570674,0,0,1.0044203,-508.79254,-12.59117)"
     style="fill:#000000;fill-opacity:0;stroke:#ffffff;stroke-width:1px;stroke-opacity:0" />
  <rect
     x="-119.59925"
     y="623.22455"
     width="187.37639"
     height="29.509869"
     id="rect303"
     style="fill:#ffffff;fill-opacity:0;stroke:#000000;stroke-width:3.26730013px;stroke-opacity:1"
     transform="matrix(0.99999173,0.00406706,-0.00406706,0.99999173,0,0)" />
  <polygon
     points="215.94,562.01 145.41,562.01 145.41,591.39 215.94,591.39 "
     id="polygon305"
     transform="matrix(2.6570674,0,0,1.0044203,-508.79254,-12.59117)"
     style="fill:#80b1d3;fill-opacity:0.39370099;stroke:#ffffff;stroke-width:1px;stroke-opacity:0" />
  <polyline
     points="145.41 , 591.39 215.94 , 591.39 215.94 , 562.01 145.41 , 562.01 145.41 , 591.39 "
     id="polyline307"
     transform="matrix(2.6570674,0,0,1.0044203,-508.79254,-12.59117)"
     style="fill:#000000;fill-opacity:0;stroke:#ffffff;stroke-width:1px;stroke-opacity:0" />
  <rect
     x="-122.42836"
     y="551.90308"
     width="187.37639"
     height="29.509869"
     id="rect309"
     style="fill:#ffffff;fill-opacity:0;stroke:#000000;stroke-width:3.26730013px;stroke-opacity:1" />
  <polygon
     points="542.02 , 1198.13 543.70 , 1198.18 545.37 , 1198.34 547.03 , 1198.61 548.67 , 1198.98 550.28 , 1199.45 551.85 , 1200.02 553.39 , 1200.70 554.88 , 1201.46 556.32 , 1202.33 557.71 , 1203.28 559.02 , 1204.32 560.28 , 1205.43 561.45 , 1206.63 562.55 , 1207.90 563.57 , 1209.23 564.50 , 1210.63 565.34 , 1212.09 566.08 , 1213.59 566.73 , 1215.14 567.28 , 1216.72 567.73 , 1218.34 568.07 , 1219.98 568.31 , 1221.64 568.44 , 1223.32 568.47 , 1224.99 568.39 , 1226.67 568.20 , 1228.34 567.91 , 1229.99 567.52 , 1231.62 567.02 , 1233.22 566.42 , 1234.79 565.72 , 1236.32 564.93 , 1237.80 564.04 , 1239.22 563.07 , 1240.59 562.01 , 1241.89 560.87 , 1243.13 559.66 , 1244.28 558.37 , 1245.36 557.02 , 1246.36 555.61 , 1247.27 554.14 , 1248.08 552.63 , 1248.80 551.07 , 1249.43 549.48 , 1249.95 547.85 , 1250.37 546.20 , 1250.69 544.54 , 1250.90 542.86 , 1251.01 541.19 , 1251.01 539.51 , 1250.90 537.85 , 1250.69 536.20 , 1250.37 534.57 , 1249.95 532.98 , 1249.43 531.42 , 1248.80 529.91 , 1248.08 528.44 , 1247.27 527.03 , 1246.36 525.68 , 1245.36 524.39 , 1244.28 523.18 , 1243.13 522.04 , 1241.89 520.98 , 1240.59 520.01 , 1239.22 519.12 , 1237.80 518.33 , 1236.32 517.63 , 1234.79 517.03 , 1233.22 516.53 , 1231.62 516.14 , 1229.99 515.85 , 1228.34 515.66 , 1226.67 515.58 , 1224.99 515.61 , 1223.32 515.74 , 1221.64 515.98 , 1219.98 516.32 , 1218.34 516.77 , 1216.72 517.32 , 1215.14 517.97 , 1213.59 518.71 , 1212.09 519.55 , 1210.63 520.48 , 1209.23 521.50 , 1207.90 522.60 , 1206.63 523.77 , 1205.43 525.03 , 1204.32 526.34 , 1203.28 527.73 , 1202.33 529.17 , 1201.46 530.66 , 1200.70 532.20 , 1200.02 533.77 , 1199.45 535.38 , 1198.98 537.02 , 1198.61 538.68 , 1198.34 540.35 , 1198.18 542.02 , 1198.13 "
     stroke-width="2px"
     stroke="#FFFFFF"
     fill="#66C2A5"
     stroke-opacity="0.000000"
     fill-opacity="0.393701"
     id="polygon311" />
  <polyline
     points="542.02 , 1198.13 543.70 , 1198.18 545.37 , 1198.34 547.03 , 1198.61 548.67 , 1198.98 550.28 , 1199.45 551.85 , 1200.02 553.39 , 1200.70 554.88 , 1201.46 556.32 , 1202.33 557.71 , 1203.28 559.02 , 1204.32 560.28 , 1205.43 561.45 , 1206.63 562.55 , 1207.90 563.57 , 1209.23 564.50 , 1210.63 565.34 , 1212.09 566.08 , 1213.59 566.73 , 1215.14 567.28 , 1216.72 567.73 , 1218.34 568.07 , 1219.98 568.31 , 1221.64 568.44 , 1223.32 568.47 , 1224.99 568.39 , 1226.67 568.20 , 1228.34 567.91 , 1229.99 567.52 , 1231.62 567.02 , 1233.22 566.42 , 1234.79 565.72 , 1236.32 564.93 , 1237.80 564.04 , 1239.22 563.07 , 1240.59 562.01 , 1241.89 560.87 , 1243.13 559.66 , 1244.28 558.37 , 1245.36 557.02 , 1246.36 555.61 , 1247.27 554.14 , 1248.08 552.63 , 1248.80 551.07 , 1249.43 549.48 , 1249.95 547.85 , 1250.37 546.20 , 1250.69 544.54 , 1250.90 542.86 , 1251.01 541.19 , 1251.01 539.51 , 1250.90 537.85 , 1250.69 536.20 , 1250.37 534.57 , 1249.95 532.98 , 1249.43 531.42 , 1248.80 529.91 , 1248.08 528.44 , 1247.27 527.03 , 1246.36 525.68 , 1245.36 524.39 , 1244.28 523.18 , 1243.13 522.04 , 1241.89 520.98 , 1240.59 520.01 , 1239.22 519.12 , 1237.80 518.33 , 1236.32 517.63 , 1234.79 517.03 , 1233.22 516.53 , 1231.62 516.14 , 1229.99 515.85 , 1228.34 515.66 , 1226.67 515.58 , 1224.99 515.61 , 1223.32 515.74 , 1221.64 515.98 , 1219.98 516.32 , 1218.34 516.77 , 1216.72 517.32 , 1215.14 517.97 , 1213.59 518.71 , 1212.09 519.55 , 1210.63 520.48 , 1209.23 521.50 , 1207.90 522.60 , 1206.63 523.77 , 1205.43 525.03 , 1204.32 526.34 , 1203.28 527.73 , 1202.33 529.17 , 1201.46 530.66 , 1200.70 532.20 , 1200.02 533.77 , 1199.45 535.38 , 1198.98 537.02 , 1198.61 538.68 , 1198.34 540.35 , 1198.18 542.02 , 1198.13 542.02 , 1198.13 "
     stroke-width="2px"
     stroke="#000000"
     fill="#000000"
     stroke-opacity="1.000000"
     fill-opacity="0.000000"
     id="polyline313" />
  <polygon
     points="542.02 , 833.13 543.70 , 833.18 545.37 , 833.34 547.03 , 833.61 548.67 , 833.98 550.28 , 834.45 551.85 , 835.02 553.39 , 835.70 554.88 , 836.46 556.32 , 837.33 557.71 , 838.28 559.02 , 839.32 560.28 , 840.43 561.45 , 841.63 562.55 , 842.90 563.57 , 844.23 564.50 , 845.63 565.34 , 847.09 566.08 , 848.59 566.73 , 850.14 567.28 , 851.72 567.73 , 853.34 568.07 , 854.98 568.31 , 856.64 568.44 , 858.32 568.47 , 859.99 568.39 , 861.67 568.20 , 863.34 567.91 , 864.99 567.52 , 866.62 567.02 , 868.22 566.42 , 869.79 565.72 , 871.32 564.93 , 872.80 564.04 , 874.22 563.07 , 875.59 562.01 , 876.89 560.87 , 878.13 559.66 , 879.28 558.37 , 880.36 557.02 , 881.36 555.61 , 882.27 554.14 , 883.08 552.63 , 883.80 551.07 , 884.43 549.48 , 884.95 547.85 , 885.37 546.20 , 885.69 544.54 , 885.90 542.86 , 886.01 541.19 , 886.01 539.51 , 885.90 537.85 , 885.69 536.20 , 885.37 534.57 , 884.95 532.98 , 884.43 531.42 , 883.80 529.91 , 883.08 528.44 , 882.27 527.03 , 881.36 525.68 , 880.36 524.39 , 879.28 523.18 , 878.13 522.04 , 876.89 520.98 , 875.59 520.01 , 874.22 519.12 , 872.80 518.33 , 871.32 517.63 , 869.79 517.03 , 868.22 516.53 , 866.62 516.14 , 864.99 515.85 , 863.34 515.66 , 861.67 515.58 , 859.99 515.61 , 858.32 515.74 , 856.64 515.98 , 854.98 516.32 , 853.34 516.77 , 851.72 517.32 , 850.14 517.97 , 848.59 518.71 , 847.09 519.55 , 845.63 520.48 , 844.23 521.50 , 842.90 522.60 , 841.63 523.77 , 840.43 525.03 , 839.32 526.34 , 838.28 527.73 , 837.33 529.17 , 836.46 530.66 , 835.70 532.20 , 835.02 533.77 , 834.45 535.38 , 833.98 537.02 , 833.61 538.68 , 833.34 540.35 , 833.18 542.02 , 833.13 "
     stroke-width="2px"
     stroke="#FFFFFF"
     fill="#FC8D62"
     stroke-opacity="0.000000"
     fill-opacity="0.393701"
     id="polygon315" />
  <polyline
     points="542.02 , 833.13 543.70 , 833.18 545.37 , 833.34 547.03 , 833.61 548.67 , 833.98 550.28 , 834.45 551.85 , 835.02 553.39 , 835.70 554.88 , 836.46 556.32 , 837.33 557.71 , 838.28 559.02 , 839.32 560.28 , 840.43 561.45 , 841.63 562.55 , 842.90 563.57 , 844.23 564.50 , 845.63 565.34 , 847.09 566.08 , 848.59 566.73 , 850.14 567.28 , 851.72 567.73 , 853.34 568.07 , 854.98 568.31 , 856.64 568.44 , 858.32 568.47 , 859.99 568.39 , 861.67 568.20 , 863.34 567.91 , 864.99 567.52 , 866.62 567.02 , 868.22 566.42 , 869.79 565.72 , 871.32 564.93 , 872.80 564.04 , 874.22 563.07 , 875.59 562.01 , 876.89 560.87 , 878.13 559.66 , 879.28 558.37 , 880.36 557.02 , 881.36 555.61 , 882.27 554.14 , 883.08 552.63 , 883.80 551.07 , 884.43 549.48 , 884.95 547.85 , 885.37 546.20 , 885.69 544.54 , 885.90 542.86 , 886.01 541.19 , 886.01 539.51 , 885.90 537.85 , 885.69 536.20 , 885.37 534.57 , 884.95 532.98 , 884.43 531.42 , 883.80 529.91 , 883.08 528.44 , 882.27 527.03 , 881.36 525.68 , 880.36 524.39 , 879.28 523.18 , 878.13 522.04 , 876.89 520.98 , 875.59 520.01 , 874.22 519.12 , 872.80 518.33 , 871.32 517.63 , 869.79 517.03 , 868.22 516.53 , 866.62 516.14 , 864.99 515.85 , 863.34 515.66 , 861.67 515.58 , 859.99 515.61 , 858.32 515.74 , 856.64 515.98 , 854.98 516.32 , 853.34 516.77 , 851.72 517.32 , 850.14 517.97 , 848.59 518.71 , 847.09 519.55 , 845.63 520.48 , 844.23 521.50 , 842.90 522.60 , 841.63 523.77 , 840.43 525.03 , 839.32 526.34 , 838.28 527.73 , 837.33 529.17 , 836.46 530.66 , 835.70 532.20 , 835.02 533.77 , 834.45 535.38 , 833.98 537.02 , 833.61 538.68 , 833.34 540.35 , 833.18 542.02 , 833.13 542.02 , 833.13 "
     stroke-width="2px"
     stroke="#000000"
     fill="#000000"
     stroke-opacity="1.000000"
     fill-opacity="0.000000"
     id="polyline317" />
  <polygon
     points="542.02 , 541.13 543.70 , 541.18 545.37 , 541.34 547.03 , 541.61 548.67 , 541.98 550.28 , 542.45 551.85 , 543.02 553.39 , 543.70 554.88 , 544.46 556.32 , 545.33 557.71 , 546.28 559.02 , 547.32 560.28 , 548.43 561.45 , 549.63 562.55 , 550.90 563.57 , 552.23 564.50 , 553.63 565.34 , 555.09 566.08 , 556.59 566.73 , 558.14 567.28 , 559.72 567.73 , 561.34 568.07 , 562.98 568.31 , 564.64 568.44 , 566.32 568.47 , 567.99 568.39 , 569.67 568.20 , 571.34 567.91 , 572.99 567.52 , 574.62 567.02 , 576.22 566.42 , 577.79 565.72 , 579.32 564.93 , 580.80 564.04 , 582.22 563.07 , 583.59 562.01 , 584.89 560.87 , 586.13 559.66 , 587.28 558.37 , 588.36 557.02 , 589.36 555.61 , 590.27 554.14 , 591.08 552.63 , 591.80 551.07 , 592.43 549.48 , 592.95 547.85 , 593.37 546.20 , 593.69 544.54 , 593.90 542.86 , 594.01 541.19 , 594.01 539.51 , 593.90 537.85 , 593.69 536.20 , 593.37 534.57 , 592.95 532.98 , 592.43 531.42 , 591.80 529.91 , 591.08 528.44 , 590.27 527.03 , 589.36 525.68 , 588.36 524.39 , 587.28 523.18 , 586.13 522.04 , 584.89 520.98 , 583.59 520.01 , 582.22 519.12 , 580.80 518.33 , 579.32 517.63 , 577.79 517.03 , 576.22 516.53 , 574.62 516.14 , 572.99 515.85 , 571.34 515.66 , 569.67 515.58 , 567.99 515.61 , 566.32 515.74 , 564.64 515.98 , 562.98 516.32 , 561.34 516.77 , 559.72 517.32 , 558.14 517.97 , 556.59 518.71 , 555.09 519.55 , 553.63 520.48 , 552.23 521.50 , 550.90 522.60 , 549.63 523.77 , 548.43 525.03 , 547.32 526.34 , 546.28 527.73 , 545.33 529.17 , 544.46 530.66 , 543.70 532.20 , 543.02 533.77 , 542.45 535.38 , 541.98 537.02 , 541.61 538.68 , 541.34 540.35 , 541.18 542.02 , 541.13 "
     stroke-width="2px"
     stroke="#FFFFFF"
     fill="#8DA0CB"
     stroke-opacity="0.000000"
     fill-opacity="0.393701"
     id="polygon319" />
  <polyline
     points="542.02 , 541.13 543.70 , 541.18 545.37 , 541.34 547.03 , 541.61 548.67 , 541.98 550.28 , 542.45 551.85 , 543.02 553.39 , 543.70 554.88 , 544.46 556.32 , 545.33 557.71 , 546.28 559.02 , 547.32 560.28 , 548.43 561.45 , 549.63 562.55 , 550.90 563.57 , 552.23 564.50 , 553.63 565.34 , 555.09 566.08 , 556.59 566.73 , 558.14 567.28 , 559.72 567.73 , 561.34 568.07 , 562.98 568.31 , 564.64 568.44 , 566.32 568.47 , 567.99 568.39 , 569.67 568.20 , 571.34 567.91 , 572.99 567.52 , 574.62 567.02 , 576.22 566.42 , 577.79 565.72 , 579.32 564.93 , 580.80 564.04 , 582.22 563.07 , 583.59 562.01 , 584.89 560.87 , 586.13 559.66 , 587.28 558.37 , 588.36 557.02 , 589.36 555.61 , 590.27 554.14 , 591.08 552.63 , 591.80 551.07 , 592.43 549.48 , 592.95 547.85 , 593.37 546.20 , 593.69 544.54 , 593.90 542.86 , 594.01 541.19 , 594.01 539.51 , 593.90 537.85 , 593.69 536.20 , 593.37 534.57 , 592.95 532.98 , 592.43 531.42 , 591.80 529.91 , 591.08 528.44 , 590.27 527.03 , 589.36 525.68 , 588.36 524.39 , 587.28 523.18 , 586.13 522.04 , 584.89 520.98 , 583.59 520.01 , 582.22 519.12 , 580.80 518.33 , 579.32 517.63 , 577.79 517.03 , 576.22 516.53 , 574.62 516.14 , 572.99 515.85 , 571.34 515.66 , 569.67 515.58 , 567.99 515.61 , 566.32 515.74 , 564.64 515.98 , 562.98 516.32 , 561.34 516.77 , 559.72 517.32 , 558.14 517.97 , 556.59 518.71 , 555.09 519.55 , 553.63 520.48 , 552.23 521.50 , 550.90 522.60 , 549.63 523.77 , 548.43 525.03 , 547.32 526.34 , 546.28 527.73 , 545.33 529.17 , 544.46 530.66 , 543.70 532.20 , 543.02 533.77 , 542.45 535.38 , 541.98 537.02 , 541.61 538.68 , 541.34 540.35 , 541.18 542.02 , 541.13 542.02 , 541.13 "
     stroke-width="2px"
     stroke="#000000"
     fill="#000000"
     stroke-opacity="1.000000"
     fill-opacity="0.000000"
     id="polyline321" />
  <polygon
     points="542.02 , 212.63 543.70 , 212.68 545.37 , 212.84 547.03 , 213.11 548.67 , 213.48 550.28 , 213.95 551.85 , 214.52 553.39 , 215.20 554.88 , 215.96 556.32 , 216.83 557.71 , 217.78 559.02 , 218.82 560.28 , 219.93 561.45 , 221.13 562.55 , 222.40 563.57 , 223.73 564.50 , 225.13 565.34 , 226.59 566.08 , 228.09 566.73 , 229.64 567.28 , 231.22 567.73 , 232.84 568.07 , 234.48 568.31 , 236.14 568.44 , 237.82 568.47 , 239.49 568.39 , 241.17 568.20 , 242.84 567.91 , 244.49 567.52 , 246.12 567.02 , 247.72 566.42 , 249.29 565.72 , 250.82 564.93 , 252.30 564.04 , 253.72 563.07 , 255.09 562.01 , 256.39 560.87 , 257.63 559.66 , 258.78 558.37 , 259.86 557.02 , 260.86 555.61 , 261.77 554.14 , 262.58 552.63 , 263.30 551.07 , 263.93 549.48 , 264.45 547.85 , 264.87 546.20 , 265.19 544.54 , 265.40 542.86 , 265.51 541.19 , 265.51 539.51 , 265.40 537.85 , 265.19 536.20 , 264.87 534.57 , 264.45 532.98 , 263.93 531.42 , 263.30 529.91 , 262.58 528.44 , 261.77 527.03 , 260.86 525.68 , 259.86 524.39 , 258.78 523.18 , 257.63 522.04 , 256.39 520.98 , 255.09 520.01 , 253.72 519.12 , 252.30 518.33 , 250.82 517.63 , 249.29 517.03 , 247.72 516.53 , 246.12 516.14 , 244.49 515.85 , 242.84 515.66 , 241.17 515.58 , 239.49 515.61 , 237.82 515.74 , 236.14 515.98 , 234.48 516.32 , 232.84 516.77 , 231.22 517.32 , 229.64 517.97 , 228.09 518.71 , 226.59 519.55 , 225.13 520.48 , 223.73 521.50 , 222.40 522.60 , 221.13 523.77 , 219.93 525.03 , 218.82 526.34 , 217.78 527.73 , 216.83 529.17 , 215.96 530.66 , 215.20 532.20 , 214.52 533.77 , 213.95 535.38 , 213.48 537.02 , 213.11 538.68 , 212.84 540.35 , 212.68 542.02 , 212.63 "
     stroke-width="2px"
     stroke="#FFFFFF"
     fill="#E78AC3"
     stroke-opacity="0.000000"
     fill-opacity="0.393701"
     id="polygon323" />
  <polyline
     points="542.02 , 212.63 543.70 , 212.68 545.37 , 212.84 547.03 , 213.11 548.67 , 213.48 550.28 , 213.95 551.85 , 214.52 553.39 , 215.20 554.88 , 215.96 556.32 , 216.83 557.71 , 217.78 559.02 , 218.82 560.28 , 219.93 561.45 , 221.13 562.55 , 222.40 563.57 , 223.73 564.50 , 225.13 565.34 , 226.59 566.08 , 228.09 566.73 , 229.64 567.28 , 231.22 567.73 , 232.84 568.07 , 234.48 568.31 , 236.14 568.44 , 237.82 568.47 , 239.49 568.39 , 241.17 568.20 , 242.84 567.91 , 244.49 567.52 , 246.12 567.02 , 247.72 566.42 , 249.29 565.72 , 250.82 564.93 , 252.30 564.04 , 253.72 563.07 , 255.09 562.01 , 256.39 560.87 , 257.63 559.66 , 258.78 558.37 , 259.86 557.02 , 260.86 555.61 , 261.77 554.14 , 262.58 552.63 , 263.30 551.07 , 263.93 549.48 , 264.45 547.85 , 264.87 546.20 , 265.19 544.54 , 265.40 542.86 , 265.51 541.19 , 265.51 539.51 , 265.40 537.85 , 265.19 536.20 , 264.87 534.57 , 264.45 532.98 , 263.93 531.42 , 263.30 529.91 , 262.58 528.44 , 261.77 527.03 , 260.86 525.68 , 259.86 524.39 , 258.78 523.18 , 257.63 522.04 , 256.39 520.98 , 255.09 520.01 , 253.72 519.12 , 252.30 518.33 , 250.82 517.63 , 249.29 517.03 , 247.72 516.53 , 246.12 516.14 , 244.49 515.85 , 242.84 515.66 , 241.17 515.58 , 239.49 515.61 , 237.82 515.74 , 236.14 515.98 , 234.48 516.32 , 232.84 516.77 , 231.22 517.32 , 229.64 517.97 , 228.09 518.71 , 226.59 519.55 , 225.13 520.48 , 223.73 521.50 , 222.40 522.60 , 221.13 523.77 , 219.93 525.03 , 218.82 526.34 , 217.78 527.73 , 216.83 529.17 , 215.96 530.66 , 215.20 532.20 , 214.52 533.77 , 213.95 535.38 , 213.48 537.02 , 213.11 538.68 , 212.84 540.35 , 212.68 542.02 , 212.63 542.02 , 212.63 "
     stroke-width="2px"
     stroke="#000000"
     fill="#000000"
     stroke-opacity="1.000000"
     fill-opacity="0.000000"
     id="polyline325" />
  <text
     style="font-size:15.97368813px;fill:#000000"
     id="text327"
     x="831.46869"
     y="1547.3341"
     transform="matrix(1.1311258,0.0046004,-0.00359556,0.8840603,0,0)">Odiretordeveriater</text>
  <text
     style="font-size:15.97368813px;fill:#000000"
     id="text329"
     x="828.25073"
     y="1560.996"
     transform="matrix(1.1311258,0.0046004,-0.00359556,0.8840603,0,0)">maisautonomiapara</text>
  <text
     style="font-size:15.97368813px;fill:#000000"
     id="text331"
     x="823.41797"
     y="1574.6694"
     transform="matrix(1.1311258,0.0046004,-0.00359556,0.8840603,0,0)">administrarapriso.</text>
  <text
     style="font-size:13.06938171px;fill:#000000"
     id="text333"
     x="851.06696"
     y="1452.8512"
     transform="matrix(1.1311258,0.0046004,-0.00359556,0.8840603,0,0)">Ocargodediretor</text>
  <text
     style="font-size:13.06938171px;fill:#000000"
     id="text335"
     x="844.38708"
     y="1463.8527"
     transform="matrix(1.1311258,0.0046004,-0.00359556,0.8840603,0,0)">deveriaserocupado</text>
  <text
     style="font-size:13.06938171px;fill:#000000"
     id="text337"
     x="840.16998"
     y="1474.8657"
     transform="matrix(1.1311258,0.0046004,-0.00359556,0.8840603,0,0)">pormeiodeconcurso</text>
  <text
     style="font-size:13.06938171px;fill:#000000"
     id="text339"
     x="822.08197"
     y="1485.8673"
     transform="matrix(1.1311258,0.0046004,-0.00359556,0.8840603,0,0)">pblicointernoenopor</text>
  <text
     style="font-size:13.06938171px;fill:#000000"
     id="text341"
     x="866.95935"
     y="1496.8804"
     transform="matrix(1.1311258,0.0046004,-0.00359556,0.8840603,0,0)">indicao.</text>
  <text
     style="font-size:11.61722755px;fill:#000000"
     id="text343"
     x="851.19476"
     y="1368.7075"
     transform="matrix(1.1311258,0.0046004,-0.00359556,0.8840603,0,0)">Aperdadocargode</text>
  <text
     style="font-size:11.61722755px;fill:#000000"
     id="text345"
     x="836.98688"
     y="1379.2676"
     transform="matrix(1.1311258,0.0046004,-0.00359556,0.8840603,0,0)">diretorgeralmentesed</text>
  <text
     style="font-size:11.61722755px;fill:#000000"
     id="text347"
     x="828.32043"
     y="1389.8394"
     transform="matrix(1.1311258,0.0046004,-0.00359556,0.8840603,0,0)">maisporrazespolticas</text>
  <text
     style="font-size:11.61722755px;fill:#000000"
     id="text349"
     x="855.26074"
     y="1400.3994"
     transform="matrix(1.1311258,0.0046004,-0.00359556,0.8840603,0,0)">doqueporfaltade</text>
  <text
     style="font-size:11.61722755px;fill:#000000"
     id="text351"
     x="848.54596"
     y="1410.9711"
     transform="matrix(1.1311258,0.0046004,-0.00359556,0.8840603,0,0)">capacidadetcnica.</text>
  <text
     style="font-size:11.61722755px;fill:#000000"
     id="text353"
     x="852.76306"
     y="1283.8206"
     transform="matrix(1.1311258,0.0046004,-0.00359556,0.8840603,0,0)">Muitosaspectosda</text>
  <text
     style="font-size:11.61722755px;fill:#000000"
     id="text355"
     x="846.90796"
     y="1294.4387"
     transform="matrix(1.1311258,0.0046004,-0.00359556,0.8840603,0,0)">dinmicadaunidade</text>
  <text
     style="font-size:11.61722755px;fill:#000000"
     id="text357"
     x="851.0437"
     y="1305.0568"
     transform="matrix(1.1311258,0.0046004,-0.00359556,0.8840603,0,0)">sodecididospela</text>
  <text
     style="font-size:11.61722755px;fill:#000000"
     id="text359"
     x="828.71545"
     y="1315.6749"
     transform="matrix(1.1311258,0.0046004,-0.00359556,0.8840603,0,0)">CoordenaoRegionalou</text>
  <text
     style="font-size:11.61722755px;fill:#000000"
     id="text361"
     x="845.33966"
     y="1326.2931"
     transform="matrix(1.1311258,0.0046004,-0.00359556,0.8840603,0,0)">pelogabinetedaSAP.</text>
  <text
     style="font-size:13.06938171px;fill:#000000"
     id="text363"
     x="833.58307"
     y="1198.585"
     transform="matrix(1.1311258,0.0046004,-0.00359556,0.8840603,0,0)">Adireodaunidade</text>
  <text
     style="font-size:13.06938171px;fill:#000000"
     id="text365"
     x="825.41608"
     y="1209.4934"
     transform="matrix(1.1311258,0.0046004,-0.00359556,0.8840603,0,0)">prisionaltemmenospoder</text>
  <text
     style="font-size:13.06938171px;fill:#000000"
     id="text367"
     x="828.32043"
     y="1220.3904"
     transform="matrix(1.1311258,0.0046004,-0.00359556,0.8840603,0,0)">sobreospresosdoquea</text>
  <text
     style="font-size:13.06938171px;fill:#000000"
     id="text369"
     x="821.29199"
     y="1231.299"
     transform="matrix(1.1311258,0.0046004,-0.00359556,0.8840603,0,0)">coordenaoregionaleo</text>
  <text
     style="font-size:13.06938171px;fill:#000000"
     id="text371"
     x="852.55396"
     y="1242.2075"
     transform="matrix(1.1311258,0.0046004,-0.00359556,0.8840603,0,0)">gabinetedaSAP.</text>
  <text
     style="font-size:13.06938171px;fill:#000000"
     id="text373"
     x="823.75482"
     y="1130.1362"
     transform="matrix(1.1311258,0.0046004,-0.00359556,0.8840603,0,0)">Nodparaconfiarnos</text>
  <text
     style="font-size:13.06938171px;fill:#000000"
     id="text375"
     x="883.5603"
     y="1141.37"
     transform="matrix(1.1311258,0.0046004,-0.00359556,0.8840603,0,0)">presos.</text>
  <text
     style="font-size:14.52153492px;fill:#000000"
     id="text377"
     x="826.27576"
     y="1045.3304"
     transform="matrix(1.1311258,0.0046004,-0.00359556,0.8840603,0,0)">importanteganharo</text>
  <text
     style="font-size:14.52153492px;fill:#000000"
     id="text379"
     x="836.71967"
     y="1058.2023"
     transform="matrix(1.1311258,0.0046004,-0.00359556,0.8840603,0,0)">respeitodospresos.</text>
  <text
     style="font-size:13.06938171px;fill:#000000"
     id="text381"
     x="826.99603"
     y="954.84387"
     transform="matrix(1.1311258,0.0046004,-0.00359556,0.8840603,0,0)">Conversarcompresos</text>
  <text
     style="font-size:13.06938171px;fill:#000000"
     id="text383"
     x="839.99573"
     y="966.20557"
     transform="matrix(1.1311258,0.0046004,-0.00359556,0.8840603,0,0)">intilparafaz-los</text>
  <text
     style="font-size:13.06938171px;fill:#000000"
     id="text385"
     x="824.71912"
     y="977.56714"
     transform="matrix(1.1311258,0.0046004,-0.00359556,0.8840603,0,0)">repensaremsuasatitudes.</text>
  <text
     style="font-size:15.97368813px;fill:#000000"
     id="text387"
     x="826.10156"
     y="868.78339"
     transform="matrix(1.1311258,0.0046004,-0.00359556,0.8840603,0,0)">Ocontatopessoaldo</text>
  <text
     style="font-size:15.97368813px;fill:#000000"
     id="text389"
     x="824.60291"
     y="882.65436"
     transform="matrix(1.1311258,0.0046004,-0.00359556,0.8840603,0,0)">diretorcomospresos</text>
  <text
     style="font-size:15.97368813px;fill:#000000"
     id="text391"
     x="841.44788"
     y="896.51379"
     transform="matrix(1.1311258,0.0046004,-0.00359556,0.8840603,0,0)">deveserevitado.</text>
  <text
     style="font-size:14.52153492px;fill:#000000"
     id="text393"
     x="825.10242"
     y="778.38977"
     transform="matrix(1.1311258,0.0046004,-0.00359556,0.8840603,0,0)">maisfciltrabalhar</text>
  <text
     style="font-size:14.52153492px;fill:#000000"
     id="text395"
     x="828.42499"
     y="790.91315"
     transform="matrix(1.1311258,0.0046004,-0.00359556,0.8840603,0,0)">naadministraodo</text>
  <text
     style="font-size:14.52153492px;fill:#000000"
     id="text397"
     x="824.03363"
     y="803.43652"
     transform="matrix(1.1311258,0.0046004,-0.00359556,0.8840603,0,0)">quediretamentecomos</text>
  <text
     style="font-size:14.52153492px;fill:#000000"
     id="text399"
     x="881.01611"
     y="815.9483"
     transform="matrix(1.1311258,0.0046004,-0.00359556,0.8840603,0,0)">presos.</text>
  <text
     style="font-size:13.06938171px;fill:#000000"
     id="text401"
     x="832.88599"
     y="694.74573"
     transform="matrix(1.1311258,0.0046004,-0.00359556,0.8840603,0,0)">Adisciplinaamelhor</text>
  <text
     style="font-size:13.06938171px;fill:#000000"
     id="text403"
     x="829.28467"
     y="706.10742"
     transform="matrix(1.1311258,0.0046004,-0.00359556,0.8840603,0,0)">formadefazerospresos</text>
  <text
     style="font-size:13.06938171px;fill:#000000"
     id="text405"
     x="824.71912"
     y="717.46899"
     transform="matrix(1.1311258,0.0046004,-0.00359556,0.8840603,0,0)">respeitaremasordensdos</text>
  <text
     style="font-size:13.06938171px;fill:#000000"
     id="text407"
     x="845.177"
     y="728.83069"
     transform="matrix(1.1311258,0.0046004,-0.00359556,0.8840603,0,0)">agentesediretores.</text>
  <text
     style="font-size:14.52153492px;fill:#000000"
     id="text409"
     x="837.6955"
     y="602.04028"
     transform="matrix(1.1311258,0.0046004,-0.00359556,0.8840603,0,0)">Ospresosdeveriam</text>
  <text
     style="font-size:14.52153492px;fill:#000000"
     id="text411"
     x="849.1153"
     y="614.87726"
     transform="matrix(1.1311258,0.0046004,-0.00359556,0.8840603,0,0)">termaisrespeito</text>
  <text
     style="font-size:14.52153492px;fill:#000000"
     id="text413"
     x="845.69983"
     y="627.72595"
     transform="matrix(1.1311258,0.0046004,-0.00359556,0.8840603,0,0)">autoridadedos</text>
  <text
     style="font-size:14.52153492px;fill:#000000"
     id="text415"
     x="826.07831"
     y="640.56305"
     transform="matrix(1.1311258,0.0046004,-0.00359556,0.8840603,0,0)">diretoresedosagentes</text>
  <text
     style="font-size:14.52153492px;fill:#000000"
     id="text417"
     x="852.82117"
     y="653.40002"
     transform="matrix(1.1311258,0.0046004,-0.00359556,0.8840603,0,0)">penitencirios.</text>
  <text
     style="font-size:11.61722755px;fill:#000000"
     id="text419"
     x="844.49158"
     y="526.27271"
     transform="matrix(1.1311258,0.0046004,-0.00359556,0.8840603,0,0)">Umaconversacomos</text>
  <text
     style="font-size:11.61722755px;fill:#000000"
     id="text421"
     x="834.33813"
     y="536.49591"
     transform="matrix(1.1311258,0.0046004,-0.00359556,0.8840603,0,0)">presosdmaisresultado</text>
  <text
     style="font-size:11.61722755px;fill:#000000"
     id="text423"
     x="825.67175"
     y="546.71906"
     transform="matrix(1.1311258,0.0046004,-0.00359556,0.8840603,0,0)">doqueaplicarumasano</text>
  <text
     style="font-size:11.61722755px;fill:#000000"
     id="text425"
     x="877.19409"
     y="556.93054"
     transform="matrix(1.1311258,0.0046004,-0.00359556,0.8840603,0,0)">disciplinar.</text>
  <text
     style="font-size:14.52153492px;fill:#000000"
     id="text427"
     x="826.1828"
     y="451.69012"
     transform="matrix(1.1311258,0.0046004,-0.00359556,0.8840603,0,0)">Aressocializaode</text>
  <text
     style="font-size:14.52153492px;fill:#000000"
     id="text429"
     x="824.52155"
     y="464.2832"
     transform="matrix(1.1311258,0.0046004,-0.00359556,0.8840603,0,0)">presosumafalcia.</text>
  <text
     style="font-size:13.06938171px;fill:#000000"
     id="text431"
     x="822.77899"
     y="366.88437"
     transform="matrix(1.1311258,0.0046004,-0.00359556,0.8840603,0,0)">Avidanaprisomuito</text>
  <text
     style="font-size:13.06938171px;fill:#000000"
     id="text433"
     x="839.91437"
     y="377.97879"
     transform="matrix(1.1311258,0.0046004,-0.00359556,0.8840603,0,0)">fcilparaospresos.</text>
  <text
     style="font-size:14.52153492px;fill:#000000"
     id="text435"
     x="825.98535"
     y="282.07858"
     transform="matrix(1.1311258,0.0046004,-0.00359556,0.8840603,0,0)">Ospresostmmuitos</text>
  <text
     style="font-size:14.52153492px;fill:#000000"
     id="text437"
     x="879.16907"
     y="294.90402"
     transform="matrix(1.1311258,0.0046004,-0.00359556,0.8840603,0,0)">direitos.</text>
  <text
     style="font-size:11.61722755px;fill:#000000"
     id="text439"
     x="825.67175"
     y="192.16122"
     transform="matrix(1.1311258,0.0046004,-0.00359556,0.8840603,0,0)">Melhorarascondiesdas</text>
  <text
     style="font-size:11.61722755px;fill:#000000"
     id="text441"
     x="837.53284"
     y="202.38438"
     transform="matrix(1.1311258,0.0046004,-0.00359556,0.8840603,0,0)">prisestornaospresos</text>
  <text
     style="font-size:11.61722755px;fill:#000000"
     id="text443"
     x="842.14496"
     y="212.59593"
     transform="matrix(1.1311258,0.0046004,-0.00359556,0.8840603,0,0)">pioresparaosagentes.</text>
  <text
     style="font-size:11.61722755px;fill:#000000"
     id="text445"
     x="834.17548"
     y="86.723282"
     transform="matrix(1.1311258,0.0046004,-0.00359556,0.8840603,0,0)">Otrabalhododiretorno</text>
  <text
     style="font-size:11.61722755px;fill:#000000"
     id="text447"
     x="841.28522"
     y="97.016151"
     transform="matrix(1.1311258,0.0046004,-0.00359556,0.8840603,0,0)">ressocializarpresos,</text>
  <text
     style="font-size:11.61722755px;fill:#000000"
     id="text449"
     x="838.24152"
     y="107.32063"
     transform="matrix(1.1311258,0.0046004,-0.00359556,0.8840603,0,0)">massimmanteraordem</text>
  <text
     style="font-size:11.61722755px;fill:#000000"
     id="text451"
     x="844.09662"
     y="117.61348"
     transform="matrix(1.1311258,0.0046004,-0.00359556,0.8840603,0,0)">eevitarqueelesfujam</text>
  <text
     style="font-size:11.61722755px;fill:#000000"
     id="text453"
     x="841.59888"
     y="127.91796"
     transform="matrix(1.1311258,0.0046004,-0.00359556,0.8840603,0,0)">oupratiquemviolncia</text>
  <text
     style="font-size:11.61722755px;fill:#000000"
     id="text455"
     x="841.59888"
     y="138.21082"
     transform="matrix(1.1311258,0.0046004,-0.00359556,0.8840603,0,0)">contraoutrospresosou</text>
  <text
     style="font-size:11.61722755px;fill:#000000"
     id="text457"
     x="839.96088"
     y="148.5153"
     transform="matrix(1.1311258,0.0046004,-0.00359556,0.8840603,0,0)">agentespenitencirios.</text>
  <text
     style="font-size:11.61722755px;fill:#000000"
     id="text459"
     x="827.93701"
     y="1.9175117"
     transform="matrix(1.1311258,0.0046004,-0.00359556,0.8840603,0,0)">Nsdeveramospararde</text>
  <text
     style="font-size:14.6227932px;fill:#000000"
     id="text461"
     x="756.26318"
     y="5.6103649"
     transform="matrix(1.2419588,0.00418986,-0.00394787,0.80516635,0,0)">tratarospresoscomo</text>
  <text
     style="font-size:14.6227932px;fill:#000000"
     id="text463"
     x="743.21057"
     y="18.555643"
     transform="matrix(1.2419588,0.00418986,-0.00394787,0.80516637,0,0)">vtimasquemerecemser</text>
  <text
     style="font-size:14.6227932px;fill:#000000"
     id="text465"
     x="747.7088"
     y="31.536572"
     transform="matrix(1.2419588,0.00418986,-0.00394787,0.80516635,0,0)">ressocializadasefaz-</text>
  <text
     style="font-size:14.6227932px;fill:#000000"
     id="text467"
     x="754.20129"
     y="44.506996"
     transform="matrix(1.2419588,0.00418986,-0.00394787,0.80516635,0,0)">lospagarpeloscrimes</text>
  <text
     style="font-size:14.6227932px;fill:#000000"
     id="text469"
     x="754.78632"
     y="57.462788"
     transform="matrix(1.2419588,0.00418986,-0.00394787,0.80516635,0,0)">quecometeramcontra</text>
  <text
     style="font-size:14.6227932px;fill:#000000"
     id="text471"
     x="776.60345"
     y="70.433212"
     transform="matrix(1.2419588,0.00418986,-0.00394787,0.80516635,0,0)">outraspessoas.</text>
  <text
     transform="scale(1.6264606,0.61483199)"
     style="font-size:36.75712585px;fill:#000000"
     id="text473"
     x="-63.60862"
     y="1414.6499">idade</text>
  <text
     transform="scale(1.6264606,0.61483199)"
     style="font-size:38.79918671px;fill:#000000"
     id="text475"
     x="-61.468536"
     y="1296.2102">sexo</text>
  <text
     transform="scale(1.6264606,0.61483199)"
     style="font-size:18.37856293px;fill:#000000"
     id="text477"
     x="-62.252689"
     y="1168.3934">seguranca</text>
  <text
     transform="scale(1.6264606,0.61483199)"
     style="font-size:22.46268845px;fill:#000000"
     id="text479"
     x="-64.752174"
     y="1050.4276">unidades</text>
  <text
     transform="scale(1.6264606,0.61483199)"
     style="font-size:32.67300034px;fill:#000000"
     id="text481"
     x="-65.095238"
     y="935.40222">tempo</text>
  <text
     transform="matrix(0.99999173,0.00406706,-0.00406706,0.99999173,0,0)"
     style="font-size:8.75px;fill:#000000"
     id="text483"
     x="524.74908"
     y="1226.5588">autonomo</text>
  <text
     transform="matrix(0.99999173,0.00406706,-0.00406706,0.99999173,0,0)"
     style="font-size:12.5px;fill:#000000"
     id="text485"
     x="522.67914"
     y="862.73883">dialogal</text>
  <text
     transform="matrix(0.99999173,0.00406706,-0.00406706,0.99999173,0,0)"
     style="font-size:8.75px;fill:#000000"
     id="text487"
     x="524.3291"
     y="569.47882">disciplinar</text>
  <text
     transform="matrix(0.99999173,0.00406706,-0.00406706,0.99999173,0,0)"
     style="font-size:11.25px;fill:#000000"
     id="text489"
     x="524.36914"
     y="242.10881">punitivo</text>
</svg>
